<svg width="68" height="68" viewBox="0 0 68 68" fill="none" xmlns="http://www.w3.org/2000/svg">
<path d="M56.08 10H11.92C10.858 10 10 10.858 10 11.92V56.08C10 57.142 10.858 58 11.92 58H56.08C57.142 58 58 57.142 58 56.08V11.92C58 10.858 57.142 10 56.08 10ZM50.536 24.01H46.702C43.696 24.01 43.114 25.438 43.114 27.538V32.164H50.29L49.354 39.406H43.114V58H35.632V39.412H29.374V32.164H35.632V26.824C35.632 20.626 39.418 17.248 44.95 17.248C47.602 17.248 49.876 17.446 50.542 17.536V24.01H50.536Z" fill="white"/>
</svg>
