<svg xmlns="http://www.w3.org/2000/svg" xmlns:xlink="http://www.w3.org/1999/xlink" width="940" zoomAndPan="magnify" viewBox="0 0 705 591.000005" height="788" preserveAspectRatio="xMidYMid meet" version="1.0"><defs><clipPath id="ccd2895db7"><path d="M 83.058594 26 L 622 26 L 622 564.644531 L 83.058594 564.644531 Z M 83.058594 26 " clip-rule="nonzero"/></clipPath></defs><g clip-path="url(#ccd2895db7)"><path fill="#e4e4e4" d="M 615.109375 83.636719 L 575.898438 83.636719 C 575.886719 80.464844 574.671875 77.296875 572.25 74.875 C 569.90625 72.535156 566.863281 71.347656 563.796875 71.257812 L 563.796875 32.332031 C 563.796875 29.816406 562.289062 27.542969 559.960938 26.578125 C 557.660156 25.613281 554.960938 26.125 553.175781 27.898438 L 510.867188 69.773438 C 509.679688 70.949219 509.007812 72.546875 509.015625 74.21875 L 509.117188 120.378906 L 489.800781 139.699219 C 446.625 100.90625 389.585938 77.253906 327.113281 77.253906 C 192.742188 77.253906 83.417969 186.574219 83.417969 320.949219 C 83.417969 455.328125 192.742188 564.644531 327.113281 564.644531 C 461.484375 564.644531 570.808594 455.324219 570.808594 320.949219 C 570.808594 258.007812 546.820312 200.5625 507.503906 157.273438 L 526.808594 137.964844 L 572.933594 137.867188 C 574.570312 137.863281 576.140625 137.214844 577.304688 136.066406 L 619.492188 94.308594 C 621.289062 92.53125 621.839844 89.839844 620.875 87.503906 C 619.914062 85.164062 617.636719 83.636719 615.109375 83.636719 Z M 527.152344 320.949219 C 527.152344 431.253906 437.414062 520.992188 327.113281 520.992188 C 216.808594 520.992188 127.074219 431.253906 127.074219 320.949219 C 127.074219 210.648438 216.808594 120.910156 327.113281 120.910156 C 377.550781 120.910156 423.65625 139.714844 458.878906 170.628906 L 421.332031 208.1875 C 395.796875 186.8125 362.9375 173.917969 327.113281 173.917969 C 246.042969 173.917969 180.082031 239.875 180.082031 320.949219 C 180.082031 402.019531 246.042969 467.976562 327.113281 467.976562 C 408.179688 467.976562 474.140625 402.019531 474.140625 320.949219 C 474.140625 284.664062 460.898438 251.429688 439.035156 225.757812 L 476.585938 188.199219 C 508.011719 223.546875 527.152344 270.046875 527.152344 320.949219 Z M 327.113281 377.546875 C 358.320312 377.546875 383.710938 352.15625 383.710938 320.949219 C 383.710938 309.625 380.332031 299.085938 374.578125 290.230469 L 412.460938 252.339844 C 427.601562 271.140625 436.722656 294.988281 436.722656 320.949219 C 436.722656 381.390625 387.554688 430.554688 327.113281 430.554688 C 266.671875 430.554688 217.503906 381.390625 217.503906 320.949219 C 217.503906 260.511719 266.671875 211.339844 327.113281 211.339844 C 352.613281 211.339844 376.050781 220.171875 394.695312 234.832031 L 356.726562 272.808594 C 348.097656 267.484375 337.976562 264.351562 327.113281 264.351562 C 295.90625 264.351562 270.515625 289.742188 270.515625 320.949219 C 270.515625 352.15625 295.90625 377.546875 327.113281 377.546875 Z M 327.113281 377.546875 " fill-opacity="1" fill-rule="nonzero"/></g></svg>