<svg xmlns="http://www.w3.org/2000/svg" xmlns:xlink="http://www.w3.org/1999/xlink" width="940" zoomAndPan="magnify" viewBox="0 0 705 591.000005" height="788" preserveAspectRatio="xMidYMid meet" version="1.0"><defs><clipPath id="31d622c478"><path d="M 19.003906 95.570312 L 685.769531 95.570312 L 685.769531 531.332031 L 19.003906 531.332031 Z M 19.003906 95.570312 " clip-rule="nonzero"/></clipPath></defs><g clip-path="url(#31d622c478)"><path fill="#e4e4e4" d="M 499.1875 512.164062 C 406.867188 512.164062 331.753906 436.972656 331.753906 344.546875 C 331.753906 252.121094 406.867188 176.929688 499.1875 176.929688 C 591.515625 176.929688 666.625 252.121094 666.625 344.546875 C 666.625 436.972656 591.515625 512.164062 499.1875 512.164062 Z M 671.105469 271.839844 C 661.710938 249.59375 648.257812 229.621094 631.125 212.46875 C 613.992188 195.320312 594.039062 181.851562 571.816406 172.445312 C 551.738281 163.941406 530.566406 159.097656 508.765625 158.003906 L 508.765625 136.464844 L 520.117188 136.464844 C 526.0625 136.464844 530.890625 131.632812 530.890625 125.675781 L 530.890625 106.359375 C 530.890625 100.398438 526.0625 95.570312 520.117188 95.570312 L 478.261719 95.570312 C 472.3125 95.570312 467.488281 100.398438 467.488281 106.359375 L 467.488281 125.675781 C 467.488281 131.632812 472.3125 136.464844 478.261719 136.464844 L 489.617188 136.464844 L 489.617188 158.003906 C 467.808594 159.097656 446.640625 163.941406 426.558594 172.445312 C 422.472656 174.175781 418.464844 176.042969 414.535156 178.046875 L 224.523438 187.578125 L 386.445312 195.699219 C 379.714844 200.824219 373.308594 206.410156 367.253906 212.46875 C 364.503906 215.222656 361.855469 218.058594 359.292969 220.957031 L 171.335938 230.386719 L 345.148438 239.105469 C 338.722656 248.5 333.167969 258.46875 328.527344 268.960938 L 81.128906 278.097656 L 321.632812 286.976562 C 317.597656 299.421875 314.914062 312.226562 313.578125 325.285156 L 19.003906 334.75 L 312.605469 344.183594 C 312.605469 344.304688 312.605469 344.425781 312.605469 344.546875 C 312.605469 358.339844 314.085938 371.914062 317.019531 385.152344 L 29.640625 394.382812 L 322.183594 403.785156 C 323.699219 408.324219 325.398438 412.816406 327.269531 417.253906 C 328.890625 421.085938 330.632812 424.839844 332.492188 428.535156 L 155.59375 437.410156 L 343.023438 446.808594 C 349.101562 456.09375 356.003906 464.835938 363.714844 472.972656 L 198.140625 481.28125 L 382.796875 490.542969 C 396.109375 501.207031 410.757812 509.960938 426.558594 516.648438 C 449.566406 526.394531 474.007812 531.332031 499.1875 531.332031 C 524.375 531.332031 548.8125 526.394531 571.816406 516.648438 C 594.039062 507.242188 613.992188 493.773438 631.125 476.625 C 648.257812 459.472656 661.710938 439.5 671.105469 417.253906 C 680.839844 394.21875 685.773438 369.761719 685.773438 344.546875 C 685.773438 319.332031 680.839844 294.875 671.105469 271.839844 " fill-opacity="1" fill-rule="nonzero"/></g><path fill="#e4e4e4" d="M 499.1875 326.015625 C 491.320312 326.015625 484.609375 330.992188 482.027344 337.972656 L 459.582031 341.074219 L 464.191406 364.042969 L 487 357.988281 C 490.234375 360.886719 494.503906 362.652344 499.1875 362.652344 C 507.265625 362.652344 514.109375 357.410156 516.539062 350.148438 L 649.675781 314.808594 L 513.980469 333.558594 C 510.65625 328.988281 505.269531 326.015625 499.1875 326.015625 " fill-opacity="1" fill-rule="nonzero"/><path fill="#e4e4e4" d="M 499.828125 217.179688 C 502.765625 217.179688 505.144531 214.796875 505.144531 211.855469 L 505.144531 190.558594 C 505.144531 187.617188 502.765625 185.234375 499.828125 185.234375 C 496.890625 185.234375 494.507812 187.617188 494.507812 190.558594 L 494.507812 211.855469 C 494.507812 214.796875 496.890625 217.179688 499.828125 217.179688 " fill-opacity="1" fill-rule="nonzero"/><path fill="#e4e4e4" d="M 563.246094 234.539062 C 564.085938 235.019531 565 235.253906 565.902344 235.253906 C 567.742188 235.253906 569.527344 234.296875 570.515625 232.589844 L 581.152344 214.144531 C 582.621094 211.597656 581.75 208.339844 579.207031 206.871094 C 576.660156 205.398438 573.410156 206.273438 571.941406 208.820312 L 561.300781 227.265625 C 559.832031 229.8125 560.703125 233.066406 563.246094 234.539062 " fill-opacity="1" fill-rule="nonzero"/><path fill="#e4e4e4" d="M 609.503906 281.308594 C 610.492188 283.019531 612.28125 283.976562 614.117188 283.976562 C 615.015625 283.976562 615.933594 283.746094 616.773438 283.261719 L 635.195312 272.613281 C 637.742188 271.140625 638.613281 267.882812 637.140625 265.335938 C 635.671875 262.789062 632.421875 261.917969 629.878906 263.390625 L 611.453125 274.039062 C 608.910156 275.507812 608.035156 278.765625 609.503906 281.308594 " fill-opacity="1" fill-rule="nonzero"/><path fill="#e4e4e4" d="M 626.203125 344.972656 C 626.203125 347.914062 628.582031 350.296875 631.519531 350.296875 L 652.796875 350.296875 C 655.734375 350.296875 658.113281 347.914062 658.113281 344.972656 C 658.113281 342.03125 655.734375 339.648438 652.796875 339.648438 L 631.519531 339.648438 C 628.582031 339.648438 626.203125 342.03125 626.203125 344.972656 " fill-opacity="1" fill-rule="nonzero"/><path fill="#e4e4e4" d="M 634.558594 417.164062 L 616.132812 406.515625 C 613.589844 405.042969 610.335938 405.914062 608.867188 408.460938 C 607.398438 411.007812 608.269531 414.265625 610.8125 415.734375 L 629.238281 426.386719 C 630.074219 426.867188 630.992188 427.101562 631.894531 427.101562 C 633.730469 427.101562 635.519531 426.144531 636.503906 424.433594 C 637.976562 421.886719 637.101562 418.632812 634.558594 417.164062 " fill-opacity="1" fill-rule="nonzero"/><path fill="#e4e4e4" d="M 569.410156 456.71875 C 567.941406 454.171875 564.691406 453.296875 562.144531 454.769531 C 559.597656 456.238281 558.726562 459.496094 560.199219 462.042969 L 570.835938 480.488281 C 571.816406 482.195312 573.605469 483.148438 575.445312 483.148438 C 576.347656 483.148438 577.261719 482.917969 578.097656 482.433594 C 580.644531 480.96875 581.515625 477.710938 580.046875 475.164062 L 569.410156 456.71875 " fill-opacity="1" fill-rule="nonzero"/><path fill="#e4e4e4" d="M 498.550781 471.484375 C 495.613281 471.484375 493.234375 473.871094 493.234375 476.808594 L 493.234375 498.109375 C 493.234375 501.046875 495.613281 503.429688 498.550781 503.429688 C 501.488281 503.429688 503.871094 501.046875 503.871094 498.109375 L 503.871094 476.808594 C 503.871094 473.871094 501.488281 471.484375 498.550781 471.484375 " fill-opacity="1" fill-rule="nonzero"/><path fill="#e4e4e4" d="M 435.128906 454.132812 C 432.585938 452.660156 429.332031 453.53125 427.863281 456.078125 L 417.226562 474.523438 C 415.757812 477.070312 416.628906 480.328125 419.171875 481.796875 C 420.007812 482.28125 420.925781 482.511719 421.828125 482.511719 C 423.664062 482.511719 425.453125 481.558594 426.441406 479.847656 L 437.078125 461.402344 C 438.546875 458.855469 437.671875 455.601562 435.128906 454.132812 " fill-opacity="1" fill-rule="nonzero"/><path fill="#e4e4e4" d="M 381.609375 405.40625 L 363.183594 416.054688 C 360.640625 417.527344 359.765625 420.78125 361.234375 423.328125 C 362.21875 425.035156 364.007812 425.992188 365.84375 425.992188 C 366.75 425.992188 367.664062 425.761719 368.5 425.277344 L 386.925781 414.628906 C 389.46875 413.160156 390.339844 409.902344 388.871094 407.355469 C 387.402344 404.808594 384.152344 403.9375 381.609375 405.40625 " fill-opacity="1" fill-rule="nonzero"/><path fill="#e4e4e4" d="M 372.175781 343.695312 C 372.175781 340.753906 369.792969 338.371094 366.855469 338.371094 L 345.582031 338.371094 C 342.640625 338.371094 340.261719 340.753906 340.261719 343.695312 C 340.261719 346.632812 342.640625 349.019531 345.582031 349.019531 L 366.855469 349.019531 C 369.792969 349.019531 372.175781 346.632812 372.175781 343.695312 " fill-opacity="1" fill-rule="nonzero"/><path fill="#e4e4e4" d="M 387.566406 272.933594 L 369.140625 262.28125 C 366.597656 260.8125 363.34375 261.683594 361.875 264.230469 C 360.40625 266.777344 361.277344 270.035156 363.820312 271.503906 L 382.242188 282.15625 C 383.082031 282.636719 384 282.867188 384.898438 282.867188 C 386.738281 282.867188 388.523438 281.914062 389.511719 280.203125 C 390.980469 277.65625 390.109375 274.402344 387.566406 272.933594 " fill-opacity="1" fill-rule="nonzero"/><path fill="#e4e4e4" d="M 427.546875 208.179688 C 426.074219 205.632812 422.824219 204.757812 420.277344 206.230469 C 417.734375 207.699219 416.863281 210.957031 418.332031 213.503906 L 428.96875 231.949219 C 429.957031 233.660156 431.742188 234.613281 433.582031 234.613281 C 434.484375 234.613281 435.398438 234.382812 436.238281 233.898438 C 438.78125 232.425781 439.652344 229.171875 438.183594 226.625 L 427.546875 208.179688 " fill-opacity="1" fill-rule="nonzero"/></svg>