<svg xmlns="http://www.w3.org/2000/svg" xmlns:xlink="http://www.w3.org/1999/xlink" width="940" zoomAndPan="magnify" viewBox="0 0 705 591.000005" height="788" preserveAspectRatio="xMidYMid meet" version="1.0"><defs><clipPath id="5eb3883850"><path d="M 98 355 L 178 355 L 178 552.953125 L 98 552.953125 Z M 98 355 " clip-rule="nonzero"/></clipPath><clipPath id="acbe93365a"><path d="M 201 336 L 280 336 L 280 552.953125 L 201 552.953125 Z M 201 336 " clip-rule="nonzero"/></clipPath><clipPath id="f95c325c05"><path d="M 303 262 L 383 262 L 383 552.953125 L 303 552.953125 Z M 303 262 " clip-rule="nonzero"/></clipPath><clipPath id="10e6882d58"><path d="M 406 240 L 485 240 L 485 552.953125 L 406 552.953125 Z M 406 240 " clip-rule="nonzero"/></clipPath><clipPath id="9ba666e035"><path d="M 508 151 L 588 151 L 588 552.953125 L 508 552.953125 Z M 508 151 " clip-rule="nonzero"/></clipPath></defs><g clip-path="url(#5eb3883850)"><path fill="#e4e4e4" d="M 156.371094 355.308594 C 155.824219 355.308594 155.054688 355.460938 154.351562 356.097656 L 98.722656 407.574219 L 98.722656 544.703125 C 98.722656 549.292969 102.429688 553.003906 107.015625 553.003906 L 169.164062 553.003906 C 173.730469 553.003906 177.460938 549.292969 177.460938 544.703125 L 177.460938 372.320312 L 158.28125 356.03125 C 157.601562 355.4375 156.855469 355.308594 156.371094 355.308594 " fill-opacity="1" fill-rule="nonzero"/></g><g clip-path="url(#acbe93365a)"><path fill="#e4e4e4" d="M 210.464844 392.011719 C 207.285156 392.011719 204.167969 391.441406 201.226562 390.363281 L 201.226562 544.703125 C 201.226562 549.292969 204.9375 553.003906 209.523438 553.003906 L 271.671875 553.003906 C 276.234375 553.003906 279.964844 549.292969 279.964844 544.703125 L 279.964844 336.691406 L 228.769531 384.765625 C 223.808594 389.441406 217.289062 392.011719 210.464844 392.011719 " fill-opacity="1" fill-rule="nonzero"/></g><g clip-path="url(#f95c325c05)"><path fill="#e4e4e4" d="M 360.328125 262.300781 C 359.78125 262.300781 358.992188 262.453125 358.289062 263.113281 L 303.734375 314.367188 L 303.734375 544.703125 C 303.734375 549.292969 307.441406 553.003906 312.027344 553.003906 L 374.175781 553.003906 C 378.742188 553.003906 382.472656 549.292969 382.472656 544.703125 L 382.472656 281.769531 L 362.347656 263.089844 C 361.625 262.453125 360.855469 262.300781 360.328125 262.300781 " fill-opacity="1" fill-rule="nonzero"/></g><g clip-path="url(#10e6882d58)"><path fill="#e4e4e4" d="M 409.640625 297.246094 C 408.5 297.246094 407.359375 297.160156 406.238281 297.003906 L 406.238281 544.703125 C 406.238281 549.292969 409.949219 553.003906 414.535156 553.003906 L 476.683594 553.003906 C 481.246094 553.003906 484.976562 549.292969 484.976562 544.703125 L 484.976562 240.414062 L 427.195312 290.683594 C 422.324219 294.917969 416.09375 297.246094 409.640625 297.246094 " fill-opacity="1" fill-rule="nonzero"/></g><g clip-path="url(#9ba666e035)"><path fill="#e4e4e4" d="M 508.746094 544.703125 C 508.746094 549.292969 512.453125 553.003906 517.039062 553.003906 L 579.1875 553.003906 C 583.753906 553.003906 587.484375 549.292969 587.484375 544.703125 L 587.484375 151.203125 L 508.746094 219.734375 L 508.746094 544.703125 " fill-opacity="1" fill-rule="nonzero"/></g><path fill="#e4e4e4" d="M 655.734375 38.261719 L 583.601562 46.515625 C 571.75 47.878906 566.242188 61.925781 574.011719 70.96875 L 582.480469 80.847656 C 587.792969 87.039062 587.113281 96.367188 580.945312 101.722656 L 420.019531 241.773438 C 414.292969 246.757812 405.734375 246.625 400.183594 241.445312 L 370.292969 213.722656 C 364.566406 208.410156 355.722656 208.453125 350.015625 213.785156 L 219.660156 336.253906 C 214.132812 341.433594 205.617188 341.652344 199.867188 336.757812 L 165.148438 307.257812 C 159.421875 302.382812 150.949219 302.558594 145.441406 307.671875 L 36.769531 408.234375 C 30.734375 413.808594 30.363281 423.203125 35.9375 429.21875 C 41.511719 435.253906 50.925781 435.605469 56.9375 430.050781 L 146.277344 347.382812 C 151.785156 342.269531 160.253906 342.09375 165.984375 346.964844 L 200.855469 376.601562 C 206.605469 381.496094 215.140625 381.277344 220.648438 376.097656 L 350.148438 254.441406 C 355.832031 249.105469 364.695312 249.0625 370.425781 254.375 L 399.523438 281.398438 C 405.097656 286.578125 413.65625 286.710938 419.382812 281.726562 L 600.148438 124.421875 C 606.355469 119.023438 615.792969 119.703125 621.171875 125.980469 L 626.984375 132.765625 C 634.734375 141.808594 649.4375 138.492188 652.597656 127.011719 L 671.753906 56.941406 C 674.542969 46.800781 666.179688 37.054688 655.734375 38.261719 " fill-opacity="1" fill-rule="nonzero"/></svg>