<svg xmlns="http://www.w3.org/2000/svg" xmlns:xlink="http://www.w3.org/1999/xlink" width="940" zoomAndPan="magnify" viewBox="0 0 705 591.000005" height="788" preserveAspectRatio="xMidYMid meet" version="1.0"><defs><clipPath id="8a56f92ed0"><path d="M 262 430.527344 L 329.25 430.527344 L 329.25 503.949219 L 262 503.949219 Z M 262 430.527344 " clip-rule="nonzero"/></clipPath><clipPath id="4bcb95f764"><path d="M 530.464844 89.769531 L 685.097656 89.769531 L 685.097656 307 L 530.464844 307 Z M 530.464844 89.769531 " clip-rule="nonzero"/></clipPath></defs><path fill="#e4e4e4" d="M 245.296875 391.472656 L 212.050781 436.15625 C 205 445.628906 206.980469 459.148438 216.449219 466.199219 L 218.785156 467.9375 C 222.613281 470.789062 227.101562 472.164062 231.558594 472.164062 C 238.121094 472.164062 244.617188 469.179688 248.816406 463.535156 L 282.066406 418.855469 C 289.113281 409.382812 287.132812 395.863281 277.664062 388.8125 L 275.328125 387.074219 C 271.5 384.222656 267.011719 382.847656 262.554688 382.847656 C 255.992188 382.847656 249.496094 385.832031 245.296875 391.472656 " fill-opacity="1" fill-rule="nonzero"/><g clip-path="url(#8a56f92ed0)"><path fill="#e4e4e4" d="M 288.519531 438.398438 L 265.847656 468.867188 C 259.554688 477.324219 261.320312 489.394531 269.777344 495.691406 L 275.800781 500.175781 C 279.214844 502.722656 283.226562 503.949219 287.203125 503.949219 C 293.066406 503.949219 298.863281 501.285156 302.613281 496.246094 L 325.285156 465.777344 C 331.578125 457.324219 329.808594 445.25 321.355469 438.953125 L 315.332031 434.46875 C 311.914062 431.925781 307.90625 430.695312 303.925781 430.695312 C 298.066406 430.695312 292.269531 433.359375 288.519531 438.398438 " fill-opacity="1" fill-rule="nonzero"/></g><path fill="#e4e4e4" d="M 167.273438 338.914062 L 158.128906 332.105469 C 155.058594 329.820312 151.457031 328.714844 147.882812 328.714844 C 142.613281 328.71875 137.40625 331.109375 134.035156 335.636719 L 118.777344 356.144531 C 113.121094 363.742188 114.710938 374.589844 122.304688 380.246094 L 131.449219 387.054688 C 134.523438 389.34375 138.121094 390.445312 141.699219 390.445312 C 146.964844 390.445312 152.175781 388.050781 155.542969 383.523438 L 170.800781 363.019531 C 176.457031 355.417969 174.871094 344.570312 167.273438 338.914062 " fill-opacity="1" fill-rule="nonzero"/><path fill="#e4e4e4" d="M 234.917969 342.089844 C 230.820312 339.039062 226.019531 337.566406 221.253906 337.566406 C 214.230469 337.566406 207.285156 340.761719 202.792969 346.792969 L 162.21875 401.320312 C 154.675781 411.457031 156.796875 425.914062 166.921875 433.457031 C 171.019531 436.507812 175.820312 437.976562 180.585938 437.976562 C 186.921875 437.976562 193.191406 435.378906 197.65625 430.441406 C 198.328125 429.296875 199.066406 428.175781 199.875 427.089844 L 219.144531 401.195312 L 233.128906 382.40625 C 234.085938 381.121094 235.132812 379.902344 236.253906 378.75 L 239.625 374.222656 C 247.160156 364.089844 245.046875 349.628906 234.917969 342.089844 " fill-opacity="1" fill-rule="nonzero"/><path fill="#e4e4e4" d="M 120.597656 87.660156 L 22.773438 262.777344 C 19.671875 268.328125 21.660156 275.339844 27.203125 278.4375 L 60.992188 297.328125 C 66.539062 300.429688 73.550781 298.445312 76.648438 292.898438 L 174.472656 117.777344 C 177.574219 112.230469 175.589844 105.21875 170.042969 102.113281 L 136.253906 83.226562 C 130.707031 80.125 123.695312 82.109375 120.597656 87.660156 " fill-opacity="1" fill-rule="nonzero"/><g clip-path="url(#4bcb95f764)"><path fill="#e4e4e4" d="M 531.9375 125.875 L 629.765625 300.996094 C 632.863281 306.542969 639.871094 308.527344 645.417969 305.425781 L 679.207031 286.539062 C 684.753906 283.4375 686.738281 276.425781 683.636719 270.875 L 585.816406 95.753906 C 582.710938 90.207031 575.707031 88.222656 570.15625 91.320312 L 536.367188 110.214844 C 530.824219 113.316406 528.839844 120.328125 531.9375 125.875 " fill-opacity="1" fill-rule="nonzero"/></g><path fill="#e4e4e4" d="M 571.863281 363.121094 C 572.132812 355.039062 568.351562 347.351562 561.910156 342.46875 L 511.144531 303.984375 C 492.792969 291.046875 469.90625 276.226562 443.113281 259.933594 C 405.34375 236.960938 369.742188 217.082031 353.242188 208.007812 C 350.664062 206.589844 347.644531 206.214844 344.800781 206.960938 L 326.25 211.828125 C 323.519531 212.542969 321.148438 214.21875 319.558594 216.550781 L 319.539062 216.582031 C 314.394531 224.121094 308.671875 231.046875 302.527344 237.15625 C 295.316406 244.328125 287.664062 250.285156 279.789062 254.859375 C 270.332031 260.34375 260.605469 263.800781 250.863281 265.136719 C 248.707031 265.433594 246.539062 265.582031 244.417969 265.582031 C 236.777344 265.582031 229.65625 263.625 223.828125 259.914062 C 216.363281 255.160156 211.570312 248.195312 209.980469 239.773438 C 208.136719 230.035156 210.660156 218.910156 217.683594 205.761719 C 222.636719 196.503906 228.804688 188.039062 233.3125 181.859375 C 234.421875 180.339844 235.375 179.03125 236.140625 177.945312 C 239.246094 173.53125 242.863281 168.484375 246.921875 163.199219 C 247.953125 161.847656 246.859375 159.917969 245.171875 160.109375 C 236.65625 161.089844 217.382812 160.132812 187.066406 141.335938 C 184.375 139.664062 180.832031 140.582031 179.285156 143.351562 L 95.25 293.78125 C 93.488281 296.9375 93.914062 300.867188 96.316406 303.570312 L 118.597656 328.644531 C 118.90625 328.992188 119.25 329.304688 119.625 329.570312 L 121.859375 326.570312 C 124.925781 322.453125 128.976562 319.085938 133.582031 316.835938 C 138.003906 314.675781 142.949219 313.53125 147.882812 313.53125 C 151.289062 313.53125 154.652344 314.0625 157.878906 315.109375 C 161.226562 316.195312 164.359375 317.816406 167.191406 319.925781 L 176.335938 326.734375 C 179.839844 329.34375 182.730469 332.574219 184.929688 336.335938 C 185.445312 337.21875 185.917969 338.125 186.34375 339.046875 C 186.914062 340.273438 188.585938 340.445312 189.394531 339.363281 L 190.609375 337.726562 C 194.214844 332.882812 198.972656 328.925781 204.390625 326.277344 C 209.601562 323.730469 215.527344 322.382812 221.21875 322.382812 C 225.203125 322.382812 229.203125 323.007812 233.003906 324.242188 C 236.941406 325.515625 240.648438 327.421875 243.980469 329.90625 C 248.101562 332.976562 251.5 336.773438 254.089844 341.199219 C 256.574219 345.453125 258.199219 350.089844 258.914062 354.984375 C 259.410156 358.375 259.453125 361.78125 259.042969 365.144531 C 258.878906 366.519531 259.960938 367.730469 261.34375 367.683594 C 261.753906 367.667969 262.167969 367.664062 262.582031 367.664062 C 266.375 367.664062 270.222656 368.261719 273.871094 369.445312 C 277.660156 370.675781 281.191406 372.507812 284.390625 374.890625 L 286.726562 376.632812 C 298.175781 385.15625 303.21875 399.140625 300.941406 412.332031 C 300.652344 414.007812 301.964844 415.527344 303.667969 415.511719 C 303.757812 415.511719 303.851562 415.511719 303.945312 415.511719 C 307.550781 415.511719 311.109375 416.074219 314.53125 417.183594 C 318.078125 418.335938 321.394531 420.054688 324.398438 422.289062 L 330.417969 426.773438 C 345.632812 438.105469 348.785156 459.625 337.457031 474.847656 L 334.492188 478.835938 C 333.09375 480.710938 333.425781 483.40625 335.308594 484.792969 C 335.640625 485.039062 336.003906 485.230469 336.390625 485.367188 C 343.148438 487.765625 408.292969 509.902344 426.703125 478.84375 C 427.910156 476.796875 427.09375 474.152344 424.960938 473.105469 L 364.191406 443.378906 C 360.53125 441.585938 358.613281 437.40625 359.800781 433.503906 C 360.671875 430.65625 363.144531 428.082031 369.160156 427.828125 C 369.792969 427.800781 370.425781 427.941406 370.992188 428.234375 L 433.496094 460.859375 C 440.515625 464.527344 448.484375 466.058594 456.339844 465.085938 C 465.964844 463.894531 476.441406 458.933594 477.359375 443.207031 C 477.601562 439.074219 475.476562 435.164062 471.898438 433.082031 L 393.910156 387.625 C 390.859375 385.851562 389.222656 382.375 389.804688 378.894531 C 390.351562 375.644531 392.089844 372.332031 396.878906 372.152344 C 398.449219 372.09375 399.996094 372.511719 401.351562 373.300781 L 483.304688 420.953125 C 487.421875 423.34375 492.132812 424.507812 496.890625 424.289062 C 505.085938 423.90625 517.046875 421.417969 521.773438 410.738281 C 525.925781 401.351562 522.269531 390.332031 513.464844 385.050781 L 423.734375 331.1875 C 421.085938 329.597656 419.527344 326.664062 419.730469 323.582031 C 420 319.511719 422.058594 314.902344 430.394531 316.238281 C 431.410156 316.398438 432.378906 316.765625 433.257812 317.292969 L 535.1875 378.074219 C 542.761719 382.585938 552.054688 383.339844 560.160156 379.863281 C 566.191406 377.28125 571.550781 372.375 571.863281 363.121094 " fill-opacity="1" fill-rule="nonzero"/><path fill="#e4e4e4" d="M 609.121094 297.535156 L 524.050781 145.25 C 523.371094 144.035156 521.945312 143.457031 520.613281 143.851562 C 514.503906 145.667969 506.867188 147.523438 505.757812 147.660156 C 502.472656 148.066406 499.167969 148.257812 495.875 148.257812 C 484.667969 148.257812 473.476562 146.039062 462.902344 142.402344 C 438.25 133.929688 407.605469 131.488281 380.269531 131.488281 C 360.046875 131.488281 341.640625 132.824219 328.800781 134.035156 C 318.226562 135.03125 307.957031 135.800781 297.707031 138.828125 C 288.078125 141.671875 279.839844 148.242188 273.117188 155.515625 C 271.335938 157.4375 269.597656 159.402344 267.886719 161.402344 C 260.992188 169.457031 254.625 178.050781 248.554688 186.679688 C 239.667969 199.324219 211.277344 233.925781 231.976562 247.101562 C 235.65625 249.441406 240.03125 250.398438 244.421875 250.398438 C 245.890625 250.398438 247.359375 250.289062 248.804688 250.09375 C 265.371094 247.820312 280.207031 237.945312 291.824219 226.386719 C 297.457031 220.785156 302.523438 214.585938 307 208.023438 C 307.765625 206.898438 310.816406 200.175781 312.105469 199.835938 L 340.527344 192.382812 L 350.027344 189.890625 C 350.28125 189.824219 350.539062 189.792969 350.800781 189.792969 C 351.304688 189.792969 351.800781 189.917969 352.253906 190.160156 C 366.902344 198.105469 494.644531 268.1875 567.945312 331.484375 C 567.949219 331.488281 567.957031 331.496094 567.960938 331.5 C 568.972656 332.367188 570.464844 332.363281 571.488281 331.515625 L 608.949219 300.703125 C 609.605469 299.765625 609.679688 298.535156 609.121094 297.535156 " fill-opacity="1" fill-rule="nonzero"/></svg>