<svg xmlns="http://www.w3.org/2000/svg" xmlns:xlink="http://www.w3.org/1999/xlink" width="940" zoomAndPan="magnify" viewBox="0 0 705 591.000005" height="788" preserveAspectRatio="xMidYMid meet" version="1.0"><defs><clipPath id="7afca02ad8"><path d="M 30.09375 415 L 277 415 L 277 531 L 30.09375 531 Z M 30.09375 415 " clip-rule="nonzero"/></clipPath><clipPath id="67fdeead60"><path d="M 427 415 L 674.753906 415 L 674.753906 531 L 427 531 Z M 427 415 " clip-rule="nonzero"/></clipPath></defs><g clip-path="url(#7afca02ad8)"><path fill="#e4e4e4" d="M 44 515.996094 L 262.378906 515.996094 L 262.378906 473.023438 C 262.378906 449.328125 243.113281 430.050781 219.425781 430.050781 L 191.164062 430.046875 C 180.417969 438.683594 167.035156 443.410156 153.195312 443.410156 C 139.34375 443.40625 125.972656 438.683594 115.226562 430.050781 L 86.964844 430.046875 C 63.277344 430.046875 44 449.328125 44 473.023438 Z M 269.414062 530.074219 L 36.964844 530.074219 C 33.078125 530.074219 29.925781 526.921875 29.925781 523.035156 L 29.929688 473.023438 C 29.929688 441.566406 55.523438 415.976562 86.964844 415.976562 L 117.78125 415.972656 C 119.496094 415.972656 121.152344 416.601562 122.441406 417.730469 C 130.945312 425.210938 141.863281 429.332031 153.195312 429.332031 C 164.527344 429.332031 175.449219 425.210938 183.949219 417.730469 C 185.242188 416.597656 186.882812 415.976562 188.597656 415.976562 L 219.425781 415.972656 C 250.871094 415.972656 276.449219 441.566406 276.449219 473.023438 L 276.449219 523.035156 C 276.449219 526.921875 273.296875 530.074219 269.414062 530.074219 Z M 269.414062 530.074219 " fill-opacity="1" fill-rule="evenodd"/></g><path fill="#e4e4e4" d="M 153.195312 289.3125 C 127.5 289.3125 106.609375 310.21875 106.609375 335.914062 C 106.609375 361.605469 127.5 382.511719 153.195312 382.511719 C 178.878906 382.511719 199.78125 361.609375 199.78125 335.914062 C 199.78125 310.21875 178.878906 289.316406 153.195312 289.3125 Z M 153.195312 396.585938 C 119.746094 396.585938 92.535156 369.371094 92.535156 335.914062 C 92.535156 302.457031 119.742188 275.238281 153.195312 275.238281 C 186.648438 275.238281 213.855469 302.457031 213.855469 335.914062 C 213.855469 369.371094 186.648438 396.589844 153.195312 396.585938 Z M 153.195312 396.585938 " fill-opacity="1" fill-rule="evenodd"/><g clip-path="url(#67fdeead60)"><path fill="#e4e4e4" d="M 442.042969 515.996094 L 660.417969 515.996094 L 660.417969 473.023438 C 660.417969 449.328125 641.15625 430.050781 617.464844 430.050781 L 589.207031 430.046875 C 578.460938 438.683594 565.074219 443.410156 551.238281 443.410156 C 537.382812 443.40625 524.015625 438.683594 513.269531 430.050781 L 485.007812 430.046875 C 461.320312 430.046875 442.039062 449.328125 442.039062 473.023438 Z M 667.457031 530.074219 L 435.003906 530.074219 C 431.121094 530.074219 427.96875 526.921875 427.96875 523.035156 L 427.96875 473.023438 C 427.96875 441.566406 453.5625 415.976562 485.007812 415.976562 L 515.835938 415.972656 C 517.535156 415.972656 519.191406 416.601562 520.480469 417.730469 C 528.984375 425.210938 539.90625 429.332031 551.238281 429.332031 C 562.570312 429.332031 573.488281 425.210938 581.992188 417.730469 C 583.285156 416.597656 584.925781 415.976562 586.636719 415.976562 L 617.46875 415.972656 C 648.910156 415.972656 674.492188 441.566406 674.492188 473.023438 L 674.492188 523.035156 C 674.492188 526.921875 671.355469 530.074219 667.457031 530.074219 Z M 667.457031 530.074219 " fill-opacity="1" fill-rule="evenodd"/></g><path fill="#e4e4e4" d="M 551.238281 289.3125 C 525.554688 289.3125 504.652344 310.21875 504.652344 335.914062 C 504.652344 361.605469 525.554688 382.511719 551.238281 382.511719 C 576.921875 382.511719 597.824219 361.609375 597.824219 335.914062 C 597.824219 310.21875 576.921875 289.316406 551.238281 289.3125 Z M 551.238281 396.585938 C 517.785156 396.585938 490.578125 369.371094 490.578125 335.914062 C 490.578125 302.457031 517.785156 275.238281 551.238281 275.238281 C 584.691406 275.238281 611.898438 302.457031 611.898438 335.914062 C 611.898438 369.371094 584.691406 396.589844 551.238281 396.585938 Z M 551.238281 396.585938 " fill-opacity="1" fill-rule="evenodd"/><path fill="#e4e4e4" d="M 202.597656 82.964844 C 181.164062 82.964844 163.722656 100.414062 163.722656 121.855469 L 163.722656 167.785156 C 163.722656 189.226562 181.164062 206.675781 202.597656 206.675781 C 206.496094 206.671875 209.632812 209.828125 209.632812 213.714844 L 209.636719 242.761719 L 257.21875 208.03125 C 258.421875 207.148438 259.871094 206.675781 261.367188 206.675781 L 319.3125 206.671875 C 340.746094 206.671875 358.191406 189.230469 358.191406 167.785156 L 358.191406 121.855469 C 358.191406 100.410156 340.746094 82.964844 319.3125 82.964844 Z M 202.597656 263.652344 C 201.511719 263.652344 200.429688 263.398438 199.417969 262.886719 C 197.058594 261.6875 195.5625 259.261719 195.5625 256.613281 L 195.5625 220.285156 C 169.6875 216.832031 149.648438 194.605469 149.648438 167.785156 L 149.648438 121.855469 C 149.648438 92.648438 173.410156 68.890625 202.597656 68.890625 L 319.3125 68.890625 C 348.515625 68.890625 372.261719 92.652344 372.261719 121.855469 L 372.261719 167.785156 C 372.261719 196.992188 348.515625 220.753906 319.3125 220.753906 L 263.667969 220.75 L 206.746094 262.296875 C 205.53125 263.195312 204.0625 263.652344 202.597656 263.652344 Z M 202.597656 263.652344 " fill-opacity="1" fill-rule="evenodd"/><path fill="#e4e4e4" d="M 306.488281 126.625 L 215.441406 126.625 C 211.554688 126.625 208.402344 123.472656 208.402344 119.585938 C 208.402344 115.699219 211.554688 112.550781 215.4375 112.550781 L 306.488281 112.546875 C 310.371094 112.546875 313.523438 115.699219 313.523438 119.585938 C 313.523438 123.472656 310.371094 126.625 306.488281 126.625 Z M 306.488281 126.625 " fill-opacity="1" fill-rule="evenodd"/><path fill="#e4e4e4" d="M 306.488281 177.089844 L 215.441406 177.089844 C 211.554688 177.089844 208.402344 173.941406 208.402344 170.054688 C 208.402344 166.167969 211.554688 163.019531 215.4375 163.019531 L 306.488281 163.015625 C 310.371094 163.015625 313.523438 166.167969 313.523438 170.054688 C 313.523438 173.9375 310.371094 177.09375 306.488281 177.089844 Z M 306.488281 177.089844 " fill-opacity="1" fill-rule="evenodd"/><path fill="#e4e4e4" d="M 479.980469 294.507812 C 478.515625 294.507812 477.0625 294.054688 475.832031 293.160156 L 418.925781 251.605469 L 363.277344 251.605469 C 340.804688 251.605469 320.722656 237.3125 313.277344 216.035156 C 311.988281 212.363281 313.921875 208.351562 317.585938 207.066406 C 321.265625 205.78125 325.265625 207.71875 326.558594 211.386719 C 332.027344 227.027344 346.785156 237.535156 363.277344 237.535156 L 421.226562 237.535156 C 422.707031 237.535156 424.160156 238.007812 425.375 238.886719 L 472.945312 273.617188 L 472.945312 244.570312 C 472.945312 240.679688 476.09375 237.535156 479.980469 237.535156 C 501.425781 237.53125 518.871094 220.085938 518.871094 198.644531 L 518.871094 152.710938 C 518.871094 131.269531 501.425781 113.824219 479.980469 113.824219 L 362.679688 113.824219 C 358.792969 113.824219 355.640625 110.675781 355.640625 106.789062 C 355.640625 102.898438 358.792969 99.75 362.675781 99.75 L 479.980469 99.746094 C 509.183594 99.746094 532.945312 123.511719 532.945312 152.714844 L 532.945312 198.644531 C 532.945312 225.460938 512.90625 247.691406 487.015625 251.144531 L 487.015625 287.472656 C 487.015625 290.121094 485.535156 292.546875 483.175781 293.746094 C 482.164062 294.257812 481.0625 294.511719 479.980469 294.507812 Z M 479.980469 294.507812 " fill-opacity="1" fill-rule="evenodd"/></svg>