<svg xmlns="http://www.w3.org/2000/svg" xmlns:xlink="http://www.w3.org/1999/xlink" width="940" zoomAndPan="magnify" viewBox="0 0 705 591.000005" height="788" preserveAspectRatio="xMidYMid meet" version="1.0"><defs><clipPath id="b838ca65db"><path d="M 41 45.796875 L 663.941406 45.796875 L 663.941406 544.453125 L 41 544.453125 Z M 41 45.796875 " clip-rule="nonzero"/></clipPath></defs><g clip-path="url(#b838ca65db)"><path fill="#e4e4e4" d="M 636.292969 45.796875 L 250.339844 45.796875 C 235.179688 45.796875 222.773438 58.210938 222.773438 73.382812 L 222.773438 171.558594 L 211.246094 175.695312 C 210.742188 175.820312 210.242188 176.195312 209.867188 176.449219 L 111.121094 254.6875 L 45.585938 278.511719 C 42.957031 279.515625 41.703125 282.273438 42.578125 284.90625 C 43.332031 286.910156 45.210938 288.164062 47.339844 288.164062 C 47.96875 288.164062 48.46875 288.039062 49.09375 287.914062 L 84.054688 275.25 C 64.882812 296.441406 57.113281 326.910156 66.136719 356 C 67.015625 358.632812 69.769531 360.136719 72.402344 359.257812 C 75.035156 358.382812 76.539062 355.621094 75.660156 352.988281 C 63.757812 314.621094 85.183594 273.496094 123.402344 261.207031 L 316.003906 200.019531 L 316.878906 202.652344 C 326.152344 232.621094 309.488281 264.84375 279.789062 274.625 L 222.144531 293.433594 C 220.140625 294.058594 218.761719 295.8125 218.636719 297.945312 L 218.386719 303.335938 C 216.632812 333.804688 204.226562 362.894531 183.300781 385.214844 C 181.421875 387.21875 181.546875 390.355469 183.550781 392.359375 C 184.554688 393.238281 185.808594 393.738281 186.933594 393.738281 C 188.3125 393.738281 189.566406 393.238281 190.570312 392.109375 C 212.75 368.539062 226.15625 337.691406 228.285156 305.46875 C 232.421875 311.109375 238.6875 314.996094 245.703125 316.25 L 238.6875 318.757812 C 236.054688 319.761719 234.800781 322.519531 235.679688 325.152344 C 236.429688 327.160156 238.3125 328.414062 240.441406 328.414062 C 241.066406 328.414062 241.570312 328.289062 242.195312 328.164062 L 274.023438 316.628906 L 315.878906 316.628906 L 318.257812 333.054688 C 318.632812 335.5625 320.765625 337.316406 323.269531 337.316406 C 323.519531 337.316406 323.769531 337.316406 324.023438 337.316406 C 326.777344 336.941406 328.660156 334.433594 328.28125 331.675781 L 326.152344 316.628906 L 524.015625 316.628906 L 526.144531 317.128906 C 518.75 339.574219 497.949219 354.871094 473.890625 354.871094 C 469.628906 354.871094 465.371094 354.367188 461.234375 353.367188 L 376.902344 333.554688 C 375.898438 333.304688 375.023438 333.429688 374.019531 333.679688 L 250.464844 378.566406 C 247.835938 379.570312 246.582031 382.328125 247.457031 384.960938 C 248.210938 386.96875 250.089844 388.222656 252.21875 388.222656 C 252.847656 388.222656 253.347656 388.097656 253.976562 387.972656 L 322.769531 363.019531 L 328.03125 399.132812 C 328.40625 401.640625 330.539062 403.394531 333.042969 403.394531 C 333.296875 403.394531 333.546875 403.394531 333.796875 403.394531 C 336.554688 403.019531 338.433594 400.511719 338.058594 397.753906 L 334.925781 376.3125 L 373.269531 363.523438 L 492.4375 381.074219 C 489.429688 393.613281 482.160156 404.648438 471.761719 412.421875 C 459.980469 421.199219 445.445312 424.835938 430.785156 422.703125 L 379.28125 415.179688 C 378.40625 415.054688 377.652344 415.179688 376.902344 415.429688 L 45.085938 534.796875 C 42.453125 535.675781 41.074219 538.558594 42.078125 541.191406 C 42.828125 543.199219 44.710938 544.453125 46.839844 544.453125 C 47.464844 544.453125 47.96875 544.328125 48.59375 544.203125 L 378.65625 425.085938 L 428.90625 432.484375 C 446.074219 434.992188 463.367188 430.726562 477.273438 420.320312 C 491.183594 409.914062 500.332031 394.742188 502.835938 377.441406 C 503.214844 374.679688 501.332031 372.171875 498.578125 371.796875 L 373.019531 353.367188 C 372.265625 353.242188 371.390625 353.367188 370.761719 353.617188 L 333.042969 366.15625 L 332.042969 359.636719 L 375.773438 343.710938 L 458.605469 363.144531 C 463.492188 364.273438 468.628906 364.902344 473.640625 364.902344 C 503.339844 364.902344 528.777344 345.214844 536.421875 316.628906 L 636.292969 316.628906 C 651.453125 316.628906 663.859375 304.214844 663.859375 289.042969 L 663.859375 73.382812 C 663.859375 58.210938 651.453125 45.796875 636.292969 45.796875 Z M 215.503906 184.847656 L 222.773438 182.214844 L 222.773438 219.203125 L 138.191406 246.035156 Z M 323.019531 166.164062 L 312.996094 166.164062 L 312.996094 156.136719 L 323.019531 156.136719 Z M 302.96875 193.625 L 292.945312 196.761719 L 292.945312 156.136719 L 302.96875 156.136719 Z M 282.921875 166.164062 L 272.894531 166.164062 L 272.894531 156.136719 L 282.921875 156.136719 Z M 272.894531 176.195312 L 282.921875 176.195312 L 282.921875 186.226562 L 272.894531 186.226562 Z M 272.894531 196.257812 L 282.921875 196.257812 L 282.921875 200.019531 L 272.894531 203.15625 Z M 317.757812 188.984375 L 312.996094 190.492188 L 312.996094 176.195312 L 323.019531 176.195312 L 323.019531 190.363281 C 322.644531 189.863281 322.140625 189.488281 321.640625 189.238281 C 320.386719 188.734375 319.011719 188.609375 317.757812 188.984375 Z M 653.835938 289.042969 C 653.835938 298.699219 645.941406 306.597656 636.292969 306.597656 L 250.339844 306.597656 C 244.703125 306.597656 239.4375 303.839844 236.179688 299.449219 L 282.796875 284.277344 C 290.441406 281.769531 297.332031 278.007812 303.347656 273.371094 C 304.097656 275.25 305.851562 276.628906 307.984375 276.628906 C 310.738281 276.628906 312.996094 274.375 312.996094 271.613281 L 312.996094 265.34375 C 312.996094 264.96875 312.996094 264.59375 312.871094 264.21875 C 317.003906 259.453125 320.386719 254.1875 323.019531 248.542969 L 323.019531 271.488281 C 323.019531 274.246094 325.273438 276.503906 328.03125 276.503906 C 330.789062 276.503906 333.042969 274.246094 333.042969 271.488281 L 333.042969 241.398438 C 333.042969 238.636719 330.789062 236.382812 328.03125 236.382812 C 327.78125 236.382812 327.53125 236.382812 327.28125 236.507812 C 328.910156 229.988281 329.660156 223.089844 329.285156 216.195312 C 331.414062 215.566406 333.042969 213.6875 333.042969 211.429688 L 333.042969 151.246094 C 333.042969 148.488281 330.789062 146.230469 328.03125 146.230469 L 267.882812 146.230469 C 265.128906 146.230469 262.871094 148.488281 262.871094 151.246094 L 262.871094 206.539062 L 232.796875 216.070312 L 232.796875 73.382812 C 232.796875 63.726562 240.691406 55.828125 250.339844 55.828125 L 636.292969 55.828125 C 645.941406 55.828125 653.835938 63.726562 653.835938 73.382812 Z M 653.835938 289.042969 " fill-opacity="1" fill-rule="nonzero"/></g><path fill="#e4e4e4" d="M 368.128906 236.382812 C 365.375 236.382812 363.117188 238.636719 363.117188 241.398438 L 363.117188 271.488281 C 363.117188 274.246094 365.375 276.503906 368.128906 276.503906 C 370.886719 276.503906 373.144531 274.246094 373.144531 271.488281 L 373.144531 241.398438 C 373.144531 238.636719 370.886719 236.382812 368.128906 236.382812 Z M 368.128906 236.382812 " fill-opacity="1" fill-rule="nonzero"/><path fill="#e4e4e4" d="M 388.179688 236.382812 C 385.421875 236.382812 383.167969 238.636719 383.167969 241.398438 L 383.167969 271.488281 C 383.167969 274.246094 385.421875 276.503906 388.179688 276.503906 C 390.9375 276.503906 393.191406 274.246094 393.191406 271.488281 L 393.191406 241.398438 C 393.191406 238.636719 390.9375 236.382812 388.179688 236.382812 Z M 388.179688 236.382812 " fill-opacity="1" fill-rule="nonzero"/><path fill="#e4e4e4" d="M 408.230469 236.382812 C 405.472656 236.382812 403.21875 238.636719 403.21875 241.398438 L 403.21875 271.488281 C 403.21875 274.246094 405.472656 276.503906 408.230469 276.503906 C 410.984375 276.503906 413.242188 274.246094 413.242188 271.488281 L 413.242188 241.398438 C 413.242188 238.636719 410.984375 236.382812 408.230469 236.382812 Z M 408.230469 236.382812 " fill-opacity="1" fill-rule="nonzero"/><path fill="#e4e4e4" d="M 428.277344 236.382812 C 425.523438 236.382812 423.265625 238.636719 423.265625 241.398438 L 423.265625 271.488281 C 423.265625 274.246094 425.523438 276.503906 428.277344 276.503906 C 431.035156 276.503906 433.292969 274.246094 433.292969 271.488281 L 433.292969 241.398438 C 433.292969 238.636719 431.035156 236.382812 428.277344 236.382812 Z M 428.277344 236.382812 " fill-opacity="1" fill-rule="nonzero"/><path fill="#e4e4e4" d="M 448.328125 236.382812 C 445.570312 236.382812 443.316406 238.636719 443.316406 241.398438 L 443.316406 271.488281 C 443.316406 274.246094 445.570312 276.503906 448.328125 276.503906 C 451.085938 276.503906 453.339844 274.246094 453.339844 271.488281 L 453.339844 241.398438 C 453.339844 238.636719 451.085938 236.382812 448.328125 236.382812 Z M 448.328125 236.382812 " fill-opacity="1" fill-rule="nonzero"/><path fill="#e4e4e4" d="M 488.425781 236.382812 C 485.671875 236.382812 483.414062 238.636719 483.414062 241.398438 L 483.414062 271.488281 C 483.414062 274.246094 485.671875 276.503906 488.425781 276.503906 C 491.183594 276.503906 493.4375 274.246094 493.4375 271.488281 L 493.4375 241.398438 C 493.4375 238.636719 491.183594 236.382812 488.425781 236.382812 Z M 488.425781 236.382812 " fill-opacity="1" fill-rule="nonzero"/><path fill="#e4e4e4" d="M 508.476562 236.382812 C 505.71875 236.382812 503.464844 238.636719 503.464844 241.398438 L 503.464844 271.488281 C 503.464844 274.246094 505.71875 276.503906 508.476562 276.503906 C 511.234375 276.503906 513.488281 274.246094 513.488281 271.488281 L 513.488281 241.398438 C 513.488281 238.636719 511.234375 236.382812 508.476562 236.382812 Z M 508.476562 236.382812 " fill-opacity="1" fill-rule="nonzero"/><path fill="#e4e4e4" d="M 528.527344 236.382812 C 525.769531 236.382812 523.511719 238.636719 523.511719 241.398438 L 523.511719 271.488281 C 523.511719 274.246094 525.769531 276.503906 528.527344 276.503906 C 531.28125 276.503906 533.539062 274.246094 533.539062 271.488281 L 533.539062 241.398438 C 533.539062 238.636719 531.28125 236.382812 528.527344 236.382812 Z M 528.527344 236.382812 " fill-opacity="1" fill-rule="nonzero"/><path fill="#e4e4e4" d="M 548.574219 236.382812 C 545.816406 236.382812 543.5625 238.636719 543.5625 241.398438 L 543.5625 271.488281 C 543.5625 274.246094 545.816406 276.503906 548.574219 276.503906 C 551.332031 276.503906 553.585938 274.246094 553.585938 271.488281 L 553.585938 241.398438 C 553.585938 238.636719 551.332031 236.382812 548.574219 236.382812 Z M 548.574219 236.382812 " fill-opacity="1" fill-rule="nonzero"/><path fill="#e4e4e4" d="M 598.699219 75.886719 C 579.402344 75.886719 563.613281 91.6875 563.613281 110.996094 C 563.613281 130.304688 579.402344 146.105469 598.699219 146.105469 C 617.996094 146.105469 633.785156 130.304688 633.785156 110.996094 C 633.785156 91.6875 617.996094 75.886719 598.699219 75.886719 Z M 598.699219 136.074219 C 584.914062 136.074219 573.636719 124.789062 573.636719 110.996094 C 573.636719 97.203125 584.914062 85.917969 598.699219 85.917969 C 612.484375 85.917969 623.761719 97.203125 623.761719 110.996094 C 623.761719 124.789062 612.484375 136.074219 598.699219 136.074219 Z M 598.699219 136.074219 " fill-opacity="1" fill-rule="nonzero"/><path fill="#e4e4e4" d="M 368.128906 75.886719 L 267.882812 75.886719 C 265.128906 75.886719 262.871094 78.144531 262.871094 80.902344 L 262.871094 100.964844 C 262.871094 103.722656 265.128906 105.980469 267.882812 105.980469 L 368.128906 105.980469 C 370.886719 105.980469 373.144531 103.722656 373.144531 100.964844 L 373.144531 80.902344 C 373.144531 78.144531 370.886719 75.886719 368.128906 75.886719 Z M 363.117188 95.949219 L 272.894531 95.949219 L 272.894531 85.917969 L 363.117188 85.917969 Z M 363.117188 95.949219 " fill-opacity="1" fill-rule="nonzero"/><path fill="#e4e4e4" d="M 368.128906 116.011719 L 267.882812 116.011719 C 265.128906 116.011719 262.871094 118.269531 262.871094 121.027344 C 262.871094 123.785156 265.128906 126.042969 267.882812 126.042969 L 368.128906 126.042969 C 370.886719 126.042969 373.144531 123.785156 373.144531 121.027344 C 373.144531 118.269531 370.886719 116.011719 368.128906 116.011719 Z M 368.128906 116.011719 " fill-opacity="1" fill-rule="nonzero"/><path fill="#e4e4e4" d="M 610.601562 186.980469 C 608.597656 188.984375 608.597656 192.121094 610.601562 194.125 C 619.125 202.652344 623.761719 213.9375 623.761719 226.101562 C 623.761719 238.261719 619.125 249.421875 610.601562 258.074219 C 608.597656 260.078125 608.597656 263.214844 610.601562 265.21875 C 611.605469 266.222656 612.859375 266.726562 614.113281 266.726562 C 615.363281 266.726562 616.617188 266.222656 617.621094 265.21875 C 628.019531 254.8125 633.785156 240.894531 633.785156 226.226562 C 633.785156 211.554688 628.019531 197.636719 617.621094 187.230469 C 615.613281 184.972656 612.484375 184.972656 610.601562 186.980469 Z M 610.601562 186.980469 " fill-opacity="1" fill-rule="nonzero"/><path fill="#e4e4e4" d="M 603.460938 201.148438 C 601.457031 199.140625 598.324219 199.140625 596.316406 201.148438 C 594.3125 203.15625 594.3125 206.289062 596.316406 208.296875 C 601.078125 213.058594 603.710938 219.328125 603.710938 225.972656 C 603.710938 232.621094 601.078125 239.015625 596.316406 243.652344 C 594.3125 245.660156 594.3125 248.792969 596.316406 250.800781 C 597.320312 251.804688 598.574219 252.304688 599.828125 252.304688 C 601.078125 252.304688 602.457031 251.804688 603.335938 250.800781 C 609.976562 244.15625 613.609375 235.378906 613.609375 225.972656 C 613.734375 216.695312 610.101562 207.792969 603.460938 201.148438 Z M 603.460938 201.148438 " fill-opacity="1" fill-rule="nonzero"/><path fill="#e4e4e4" d="M 582.15625 215.316406 C 580.152344 217.324219 580.152344 220.457031 582.15625 222.464844 C 583.160156 223.46875 583.660156 224.71875 583.660156 225.972656 C 583.660156 227.226562 583.160156 228.609375 582.15625 229.484375 C 580.152344 231.492188 580.277344 234.625 582.15625 236.632812 C 583.160156 237.636719 584.414062 238.136719 585.667969 238.136719 C 586.917969 238.136719 588.296875 237.636719 589.175781 236.632812 C 592.058594 233.75 593.5625 229.988281 593.5625 225.972656 C 593.5625 221.960938 592.058594 218.199219 589.175781 215.316406 C 587.296875 213.4375 584.164062 213.4375 582.15625 215.316406 Z M 582.15625 215.316406 " fill-opacity="1" fill-rule="nonzero"/></svg>