<svg width="68" height="68" viewBox="0 0 68 68" fill="none" xmlns="http://www.w3.org/2000/svg">
<path d="M34 28.048C32.8228 28.048 31.672 28.3971 30.6932 29.0511C29.7144 29.7051 28.9516 30.6347 28.5011 31.7223C28.0506 32.8099 27.9327 34.0066 28.1624 35.1612C28.392 36.3158 28.9589 37.3763 29.7913 38.2087C30.6237 39.0411 31.6842 39.608 32.8388 39.8376C33.9934 40.0673 35.1901 39.9494 36.2777 39.4989C37.3653 39.0484 38.2949 38.2856 38.9489 37.3068C39.6029 36.328 39.952 35.1772 39.952 34C39.952 33.2184 39.798 32.4444 39.4989 31.7223C39.1998 31.0001 38.7614 30.344 38.2087 29.7913C37.656 29.2386 36.9999 28.8002 36.2777 28.5011C35.5556 28.202 34.7816 28.048 34 28.048ZM57.832 22.168C57.8194 20.3146 57.4781 18.4782 56.824 16.744C56.3423 15.475 55.5969 14.3226 54.6372 13.3628C53.6774 12.4031 52.525 11.6577 51.256 11.176C49.5218 10.5219 47.6854 10.1806 45.832 10.168C42.736 10 41.824 10 34 10C26.176 10 25.264 10 22.168 10.168C20.3146 10.1806 18.4782 10.5219 16.744 11.176C15.475 11.6577 14.3226 12.4031 13.3628 13.3628C12.4031 14.3226 11.6577 15.475 11.176 16.744C10.5219 18.4782 10.1806 20.3146 10.168 22.168C10 25.264 10 26.176 10 34C10 41.824 10 42.736 10.168 45.832C10.1938 47.6919 10.5347 49.534 11.176 51.28C11.6556 52.5432 12.4003 53.6889 13.36 54.64C14.3157 55.6055 15.4705 56.3509 16.744 56.824C18.4782 57.4781 20.3146 57.8194 22.168 57.832C25.264 58 26.176 58 34 58C41.824 58 42.736 58 45.832 57.832C47.6854 57.8194 49.5218 57.4781 51.256 56.824C52.5295 56.3509 53.6843 55.6055 54.64 54.64C55.5997 53.6889 56.3444 52.5432 56.824 51.28C57.4775 49.5373 57.8187 47.6931 57.832 45.832C58 42.736 58 41.824 58 34C58 26.176 58 25.264 57.832 22.168ZM51.736 41.368C51.659 42.8491 51.3429 44.3079 50.8 45.688C50.3341 46.8392 49.6414 47.8851 48.7632 48.7632C47.8851 49.6414 46.8392 50.3341 45.688 50.8C44.2948 51.3126 42.8279 51.5963 41.344 51.64H26.656C25.1722 51.5963 23.7052 51.3126 22.312 50.8C21.1218 50.3577 20.0471 49.6521 19.168 48.736C18.2984 47.875 17.6268 46.8349 17.2 45.688C16.6853 44.2963 16.4095 42.8276 16.384 41.344V26.656C16.4095 25.1724 16.6853 23.7037 17.2 22.312C17.6423 21.1218 18.3479 20.0471 19.264 19.168C20.1288 18.3031 21.1678 17.6322 22.312 17.2C23.7052 16.6874 25.1722 16.4037 26.656 16.36H41.344C42.8279 16.4037 44.2948 16.6874 45.688 17.2C46.8782 17.6423 47.9529 18.3479 48.832 19.264C49.7016 20.125 50.3732 21.1651 50.8 22.312C51.3126 23.7052 51.5963 25.1722 51.64 26.656V34C51.64 38.944 51.808 39.448 51.736 41.344V41.368ZM47.896 23.512C47.6103 22.7368 47.1597 22.0327 46.5755 21.4485C45.9913 20.8643 45.2872 20.4138 44.512 20.128C43.4475 19.759 42.3264 19.5803 41.2 19.6H26.8C25.6678 19.6111 24.5466 19.8223 23.488 20.224C22.7246 20.4968 22.0281 20.9289 21.4446 21.4917C20.8611 22.0545 20.4041 22.735 20.104 23.488C19.7555 24.5569 19.5852 25.6758 19.6 26.8V41.2C19.6238 42.3309 19.8346 43.45 20.224 44.512C20.5098 45.2872 20.9603 45.9913 21.5445 46.5755C22.1287 47.1597 22.8328 47.6103 23.608 47.896C24.632 48.2726 25.7096 48.4832 26.8 48.52H41.2C42.3322 48.5089 43.4534 48.2977 44.512 47.896C45.2872 47.6103 45.9913 47.1597 46.5755 46.5755C47.1597 45.9913 47.6103 45.2872 47.896 44.512C48.2977 43.4534 48.5089 42.3322 48.52 41.2V26.8C48.5207 25.6667 48.309 24.5433 47.896 23.488V23.512ZM34 43.168C32.7972 43.168 31.6062 42.9307 30.4952 42.4697C29.3842 42.0086 28.3751 41.3329 27.5257 40.4813C26.6763 39.6297 26.0033 38.6188 25.5451 37.5066C25.087 36.3945 24.8528 35.2028 24.856 34C24.856 32.1857 25.3943 30.4122 26.4028 28.904C27.4112 27.3959 28.8445 26.2208 30.5211 25.5276C32.1978 24.8344 34.0424 24.6543 35.8214 25.01C37.6005 25.3657 39.234 26.2412 40.5152 27.5258C41.7965 28.8103 42.6677 30.4462 43.0188 32.2262C43.3698 34.0062 43.1848 35.8503 42.4872 37.5251C41.7896 39.1999 40.6108 40.6301 39.1 41.6346C37.5892 42.6391 35.8143 43.1727 34 43.168ZM43.6 26.632C43.0695 26.5758 42.5785 26.3253 42.2216 25.9287C41.8648 25.5321 41.6674 25.0175 41.6674 24.484C41.6674 23.9505 41.8648 23.4359 42.2216 23.0393C42.5785 22.6427 43.0695 22.3922 43.6 22.336C44.1305 22.3922 44.6215 22.6427 44.9784 23.0393C45.3352 23.4359 45.5326 23.9505 45.5326 24.484C45.5326 25.0175 45.3352 25.5321 44.9784 25.9287C44.6215 26.3253 44.1305 26.5758 43.6 26.632Z" fill="white"/>
</svg>
