<svg width="68" height="68" viewBox="0 0 68 68" fill="none" xmlns="http://www.w3.org/2000/svg">
<path d="M10 13.438C10 11.539 11.578 10 13.525 10H54.475C56.422 10 58 11.539 58 13.438V54.562C58 56.461 56.422 58 54.475 58H13.525C11.578 58 10 56.461 10 54.562V13.438ZM24.829 50.182V28.507H17.626V50.182H24.829ZM21.229 25.546C23.74 25.546 25.303 23.884 25.303 21.802C25.258 19.675 23.743 18.058 21.277 18.058C18.811 18.058 17.2 19.678 17.2 21.802C17.2 23.884 18.763 25.546 21.181 25.546H21.229ZM35.953 50.182V38.077C35.953 37.429 36.001 36.781 36.193 36.319C36.712 35.026 37.897 33.685 39.889 33.685C42.496 33.685 43.537 35.671 43.537 38.587V50.182H50.74V37.75C50.74 31.09 47.188 27.994 42.448 27.994C38.626 27.994 36.913 30.094 35.953 31.573V31.648H35.905C35.9209 31.623 35.9369 31.598 35.953 31.573V28.507H28.753C28.843 30.541 28.753 50.182 28.753 50.182H35.953Z" fill="white"/>
</svg>
