<svg width="52" height="52" viewBox="0 0 52 52" fill="none" xmlns="http://www.w3.org/2000/svg">
<path id="Vector" d="M18.8827 9.5198C22.0501 3.83993 23.6326 1 26 1C28.3674 1 29.9499 3.83993 33.1173 9.5198L33.9373 10.9898C34.8373 12.6047 35.2873 13.4122 35.9873 13.9447C36.6873 14.4772 37.5622 14.6747 39.3122 15.0697L40.9022 15.4297C47.052 16.8221 50.1244 17.5171 50.8569 19.8696C51.5869 22.2195 49.4919 24.6719 45.2995 29.5743L44.2146 30.8418C43.0246 32.2343 42.4271 32.9317 42.1596 33.7917C41.8921 34.6542 41.9821 35.5842 42.1621 37.4416L42.3271 39.1341C42.9596 45.6764 43.2771 48.9464 41.3621 50.3988C39.4472 51.8538 36.5673 50.5263 30.8124 47.8764L29.3199 47.1914C27.685 46.4364 26.8675 46.0614 26 46.0614C25.1325 46.0614 24.315 46.4364 22.6776 47.1914L21.1901 47.8764C15.4327 50.5263 12.5528 51.8513 10.6404 50.4013C8.72291 48.9464 9.0404 45.6764 9.67288 39.1341L9.83788 37.4441C10.0179 35.5842 10.1079 34.6542 9.83788 33.7942C9.57289 32.9317 8.9754 32.2343 7.78543 30.8443L6.70045 29.5743C2.50805 24.6744 0.413101 22.222 1.14308 19.8696C1.87557 17.5171 4.95049 16.8196 11.1004 15.4297L12.6903 15.0697C14.4378 14.6747 15.3103 14.4772 16.0127 13.9447C16.7127 13.4122 17.1627 12.6047 18.0627 10.9898L18.8827 9.5198Z" stroke="black" stroke-width="1.5"/>
</svg>
