<svg width="249" height="460" viewBox="0 0 249 460" fill="none" xmlns="http://www.w3.org/2000/svg">
<path d="M252.276 229.38C249.52 229.508 247.247 228.483 245.334 226.577C243.32 224.564 242.453 222.144 242.536 219.286C242.609 216.683 243.57 214.54 245.371 212.728C247.378 210.706 249.803 209.848 252.662 209.927C255.269 210 257.404 210.964 259.223 212.758C261.304 214.819 262.141 217.312 262.019 220.228C261.915 222.761 260.951 224.85 259.19 226.607C257.277 228.51 254.998 229.526 252.276 229.38Z" fill="#C02828"/>
<path d="M251.774 230.067C255.013 230.073 257.331 231.012 259.23 232.919C261.234 234.928 262.098 237.376 262.007 240.21C261.925 242.782 260.979 244.959 259.175 246.759C257.17 248.765 254.715 249.626 251.883 249.535C249.31 249.456 247.132 248.507 245.328 246.704C243.324 244.697 242.463 242.247 242.554 239.416C242.633 236.844 243.588 234.676 245.38 232.864C247.284 230.936 249.629 230.079 251.774 230.067Z" fill="#C02828"/>
<path d="M261.608 199.152C261.879 201.943 260.766 204.102 258.995 205.905C256.954 207.985 254.396 208.696 251.473 208.553C249.094 208.438 247.184 207.471 245.569 205.905C243.476 203.874 242.749 201.326 242.879 198.401C242.986 196.021 243.95 194.114 245.502 192.485C247.567 190.317 250.186 189.59 253.176 189.767C254.6 189.846 255.832 190.293 257.024 190.91C258.533 191.685 259.725 192.88 260.544 194.37C261.377 195.89 261.928 197.504 261.608 199.152Z" fill="#C02828"/>
<path d="M231.752 229.012C229.036 229.2 226.803 228.088 225.075 226.367C223.198 224.494 222.252 222.074 222.365 219.249C222.465 216.768 223.439 214.67 225.036 213.019C226.472 211.533 228.659 210.113 232.318 210.283C234.73 210.389 236.802 211.335 238.39 212.907C240.318 214.822 241.285 217.297 241.158 220.176C241.051 222.654 240.084 224.777 238.432 226.379C236.641 228.118 234.362 229.282 231.752 229.012Z" fill="#C02828"/>
<path d="M261.63 260.38C261.806 263.092 260.69 265.324 258.95 267.038C257.11 268.847 254.746 269.784 251.993 269.711C249.441 269.647 247.26 268.695 245.59 267.014C243.719 265.135 242.767 262.718 242.88 259.896C242.98 257.415 243.938 255.29 245.553 253.664C247.467 251.73 249.952 250.781 252.836 250.927C255.251 251.046 257.322 251.991 258.904 253.563C260.732 255.372 261.9 257.704 261.63 260.38Z" fill="#C02828"/>
<path d="M241.155 239.197C241.173 242.548 240.084 244.71 238.177 246.552C236.258 248.407 234.028 249.279 231.351 249.182C228.72 249.091 226.654 247.963 224.899 246.09C223.132 244.199 222.292 242.01 222.387 239.398C222.487 236.771 223.609 234.704 225.486 232.952C227.375 231.183 229.571 230.344 232.178 230.444C234.734 230.538 236.756 231.612 238.509 233.405C240.27 235.214 241.252 237.306 241.155 239.197Z" fill="#C02828"/>
<path d="M231.749 189.8C234.195 189.973 236.467 190.83 238.253 192.57C240.045 194.315 241.039 196.595 241.082 199.085C241.122 201.594 240.093 203.862 238.36 205.646C236.617 207.44 234.335 208.431 231.841 208.471C229.331 208.513 227.062 207.489 225.279 205.756C223.485 204.014 222.49 201.73 222.447 199.237C222.408 196.729 223.436 194.461 225.17 192.679C226.913 190.885 229.2 190.049 231.749 189.8Z" fill="#C02828"/>
<path d="M241.143 260.152C240.626 261.62 240.744 263.153 240.029 264.466C239.199 265.995 237.991 267.245 236.589 268.175C235.71 268.756 234.642 269.194 233.483 269.334C226.904 270.13 223.354 265.871 222.797 262.028C221.848 255.47 226.216 251.97 230.058 251.383C230.858 251.262 231.768 250.614 232.625 251.326C233.578 251.155 234.463 251.493 235.29 251.83C236.117 252.165 236.994 252.523 237.544 253.323C238.661 253.466 238.752 254.624 239.388 255.245C240.008 255.841 240.093 256.896 240.516 257.613C241.039 258.501 240.175 259.574 241.143 260.152Z" fill="#C02828"/>
<path d="M261.277 179.155C261.569 183.716 257.131 188.468 251.826 188.039C249.422 187.848 247.448 187.021 245.763 185.303C243.92 183.418 243.199 181.205 243.263 178.608C243.324 176.179 244.26 174.239 245.961 172.536C247.877 170.615 250.165 169.906 252.823 170.007C255.178 170.098 257.097 170.998 258.722 172.673C260.556 174.564 261.277 176.31 261.277 179.155Z" fill="#C02828"/>
<path d="M211.491 228.662C206.721 228.702 202.56 224.612 202.59 219.593C202.617 214.825 206.651 210.547 211.822 210.654C216.482 210.748 220.707 214.704 220.628 219.83C220.558 224.551 216.555 228.811 211.491 228.662Z" fill="#C02828"/>
<path d="M243.281 280.328C243.244 275.575 247.336 271.41 252.37 271.447C257.131 271.483 261.441 275.518 261.292 280.689C261.225 283.088 260.328 285.116 258.697 286.785C256.915 288.603 254.703 289.491 252.099 289.473C247.406 289.434 243.126 285.42 243.281 280.328Z" fill="#C02828"/>
<path d="M211.074 230.778C213.738 230.873 215.88 231.697 217.589 233.408C219.39 235.208 220.3 237.437 220.239 240.009C220.187 242.438 219.29 244.56 217.562 246.242C215.789 247.963 213.608 248.86 211.098 248.805C208.671 248.747 206.538 247.89 204.847 246.157C203.116 244.384 202.207 242.213 202.255 239.705C202.304 237.282 203.168 235.156 204.871 233.442C206.626 231.675 208.838 230.891 211.074 230.778Z" fill="#C02828"/>
<path d="M240.781 178.948C240.355 181.323 240.303 183.156 237.459 185.765C235.813 187.279 233.815 188.006 231.74 187.936C229.45 187.857 227.621 187.553 225.011 184.707C223.5 183.062 222.77 181.068 222.84 178.991C222.922 176.702 223.226 174.877 226.07 172.266C227.716 170.755 229.714 170.028 231.789 170.098C234.082 170.177 235.904 170.484 238.517 173.324C240.038 174.975 240.461 176.96 240.781 178.948Z" fill="#C02828"/>
<path d="M220.607 199.246C219.986 204.528 216.771 207.656 211.524 208.155C206.24 207.538 203.113 204.321 202.611 199.079C203.231 193.798 206.447 190.67 211.694 190.171C216.978 190.788 220.108 194.005 220.607 199.246Z" fill="#C02828"/>
<path d="M231.467 271.872C233.134 271.751 234.417 271.869 235.64 272.538C237.897 273.769 239.479 275.533 240.261 277.992C240.361 278.315 240.388 278.67 240.398 279.011C240.416 279.729 240.346 280.455 240.416 281.167C240.595 283.009 239.817 284.542 238.731 285.858C237.602 287.223 236.273 288.403 234.411 288.862C233.967 288.971 233.529 289.066 233.079 289.087C232.422 289.12 231.756 289.044 231.105 289.108C229.27 289.288 227.725 288.534 226.402 287.457C225.03 286.332 223.804 285.025 223.396 283.14C223.323 282.781 223.135 282.404 223.129 282.006C223.12 281.224 223.177 280.443 223.117 279.668C222.977 277.834 223.771 276.32 224.857 275.001C225.991 273.623 227.381 272.553 229.182 272.018C230.086 271.748 230.934 271.994 231.467 271.872Z" fill="#C02828"/>
<path d="M219.983 260.368C219.986 261.718 219.84 263.004 219.171 264.217C217.936 266.458 216.157 268.045 213.702 268.826C213.379 268.929 213.02 268.938 212.674 268.945C211.956 268.963 211.229 268.896 210.517 268.963C208.677 269.133 207.15 268.346 205.836 267.26C204.464 266.132 203.207 264.825 202.882 262.934C202.824 262.605 202.642 262.292 202.623 261.964C202.584 261.189 202.672 260.404 202.596 259.632C202.423 257.792 203.204 256.266 204.269 254.937C205.419 253.493 206.852 252.317 208.731 251.87C209.118 251.778 209.516 251.706 209.915 251.693C210.633 251.663 211.357 251.733 212.071 251.672C213.912 251.523 215.408 252.356 216.732 253.432C218.119 254.557 219.284 255.935 219.661 257.771C219.837 258.622 219.88 259.501 219.983 260.368Z" fill="#C02828"/>
<path d="M260.939 158.523C261.076 162.959 256.754 167.27 252.121 167.179C247.786 167.094 243.549 163.002 243.61 158.398C243.664 154.032 247.777 149.727 252.346 149.867C254.767 149.937 256.723 150.858 258.414 152.567C260.075 154.242 260.875 156.212 260.939 158.523Z" fill="#C02828"/>
<path d="M220.248 179.037C220.026 183.856 216.455 187.583 211.63 187.608C206.861 187.632 202.955 183.88 203.016 178.906C203.077 174.154 206.782 170.393 211.676 170.429C216.534 170.466 220.056 174.257 220.248 179.037Z" fill="#C02828"/>
<path d="M191.052 231.18C196.162 231.718 199.095 234.582 199.733 239.723C199.216 244.88 196.324 247.789 191.228 248.446C186.045 247.978 183.006 244.962 182.456 239.814C183.027 234.704 185.89 231.791 191.052 231.18Z" fill="#C02828"/>
<path d="M252.31 292.334C257.45 292.927 260.337 295.833 260.918 300.954C260.386 306.089 257.353 309.123 252.16 309.6C247.047 308.956 244.163 306.031 243.64 300.896C244.27 295.736 247.211 292.881 252.31 292.334Z" fill="#C02828"/>
<path d="M191.061 228.301C185.911 227.702 183.034 224.789 182.456 219.678C182.994 214.54 186.03 211.512 191.216 211.034C196.327 211.682 199.213 214.604 199.733 219.748C199.101 224.898 196.168 227.756 191.061 228.301Z" fill="#C02828"/>
<path d="M202.632 280.513C203.006 278.09 203.621 275.91 205.425 274.205C207.089 272.63 209.157 272.012 211.271 271.909C212.652 271.845 214.185 272.237 215.445 272.998C216.881 273.864 218.036 275.029 218.827 276.57C219.49 277.859 219.84 279.288 219.795 280.611C219.746 281.994 219.466 283.505 218.642 284.764C217.72 286.175 216.57 287.29 215.022 288.069C213.775 288.695 212.418 288.701 211.14 289.096C208.783 288.646 206.511 288.054 204.832 286.12C203.393 284.463 202.976 282.45 202.632 280.513Z" fill="#C02828"/>
<path d="M240.045 158.973C240.48 160.968 239.266 162.78 237.946 164.251C236.616 165.738 234.813 166.902 232.571 166.787C232.212 166.772 231.847 166.741 231.494 166.793C229.237 167.127 227.418 165.981 225.955 164.631C224.531 163.321 223.39 161.579 223.485 159.408C223.503 158.991 223.533 158.566 223.478 158.152C223.189 155.896 224.339 154.078 225.708 152.64C227.083 151.199 228.881 150.034 231.138 150.232C231.555 150.268 231.977 150.268 232.394 150.232C234.651 150.034 236.455 151.199 237.824 152.643C239.19 154.081 240.349 155.902 240.048 158.152C240.023 158.332 240.045 158.514 240.045 158.973Z" fill="#C02828"/>
<path d="M231.618 309.242C227.737 309.734 222.84 305.213 223.484 300.686C223.068 296.946 227.469 292.018 232.184 292.696C235.743 292.34 240.747 296.585 240.044 301.522C240.333 305.043 236.02 309.829 231.618 309.242Z" fill="#C02828"/>
<path d="M190.945 207.437C187.067 207.927 182.17 203.409 182.817 198.878C182.395 195.139 186.799 190.21 191.514 190.888C195.073 190.536 200.077 194.777 199.371 199.718C199.663 203.238 195.353 208.027 190.945 207.437Z" fill="#C02828"/>
<path d="M191.095 268.592C187.043 269.145 182.155 264.527 182.818 260.003C182.404 256.348 186.745 251.359 191.545 252.043C195.149 251.709 200.041 256.023 199.372 260.723C199.743 264.414 195.296 269.133 191.095 268.592Z" fill="#C02828"/>
<path d="M211.128 166.821C210.213 166.529 208.881 166.24 207.679 165.674C206.277 165.012 205.297 163.783 204.418 162.521C204.059 162.008 203.28 159.101 203.341 158.481C203.813 153.564 206.876 150.6 211.776 150.238C216.607 150.822 219.485 153.753 219.889 158.633C219.332 163.482 216.397 166.358 211.128 166.821Z" fill="#C02828"/>
<path d="M190.967 187.31C189.869 187.021 188.579 186.896 187.514 186.343C185.911 185.51 184.655 184.157 183.733 182.594C183.101 181.527 182.888 180.204 182.897 179.034C182.909 177.86 183.085 176.538 183.709 175.464C184.655 173.835 185.987 172.47 187.627 171.594C188.676 171.038 190.039 170.709 191.204 170.828C192.378 170.946 193.671 171.019 194.763 171.703C196.369 172.71 197.705 174.039 198.596 175.656C199.14 176.641 199.399 177.958 199.299 179.086C199.195 180.265 199.074 181.56 198.429 182.643C197.464 184.269 196.108 185.595 194.495 186.501C193.516 187.051 192.22 187.045 190.967 187.31Z" fill="#C02828"/>
<path d="M260.452 138.566C260.063 139.67 260.157 141.126 259.315 142.346C258.475 143.556 257.496 144.538 256.288 145.38C255.062 146.237 253.587 146.07 252.315 146.639C251.576 146.006 250.609 146.514 249.827 146.158C248.416 145.511 247.129 144.708 246.058 143.528C245.313 142.701 244.988 141.68 244.473 140.758C244.072 140.041 244.589 139.032 244.002 138.271C244.762 137.378 244.209 136.195 244.772 135.176C245.496 133.866 246.417 132.784 247.509 131.85C248.172 131.288 249.03 130.932 249.842 130.573C250.621 130.224 251.585 130.719 252.334 130.093C253.106 130.874 254.183 130.266 255.114 130.756C256.413 131.437 257.538 132.242 258.551 133.282C259.29 134.036 259.637 134.997 260.021 135.909C260.337 136.654 260.303 137.554 260.452 138.566Z" fill="#C02828"/>
<path d="M219.165 301.084C219.427 304.429 217.103 307.834 213.325 308.716C210.633 309.336 207.931 309.014 205.775 306.849C204.74 305.812 203.974 304.709 203.6 303.252C203.001 300.914 203.274 297.533 205.297 295.551C206.383 294.484 207.566 293.718 209.02 293.246C209.744 293.009 210.408 293.14 211.095 293.061C212.443 292.897 213.757 293.131 214.919 293.79C217.523 295.268 219.189 297.387 219.165 300.543C219.165 300.723 219.165 300.902 219.165 301.084Z" fill="#C02828"/>
<path d="M199.022 280.477C199.104 282.742 198.349 284.548 196.804 286.117C195.104 287.844 193.09 288.345 190.729 288.424C187.125 288.543 182.678 284.961 183.137 280.003C183.335 277.896 184.013 276.175 185.513 274.682C187.237 272.958 189.294 272.551 191.639 272.511C195.177 272.45 199.469 276.071 199.022 280.477Z" fill="#C02828"/>
<path d="M171.45 211.754C172.779 211.818 174.68 212.451 176.207 213.968C177.829 215.582 178.522 217.559 178.504 219.839C178.473 224.284 175.082 227.577 170.498 227.586C168.35 227.586 166.482 226.862 164.955 225.363C163.325 223.761 162.637 221.776 162.653 219.498C162.683 215.05 166.075 211.751 171.45 211.754Z" fill="#C02828"/>
<path d="M252.316 313.565C254.646 313.407 256.48 314.462 257.91 315.873C259.397 317.344 260.252 319.272 260.234 321.54C260.212 323.732 259.361 325.599 257.946 327.037C256.431 328.576 254.46 329.457 252.124 329.415C248.039 329.336 244.215 325.785 244.331 321.23C244.364 319.795 244.884 318.579 245.468 317.381C246.101 316.07 246.907 315.307 248.221 314.657C249.532 314.009 250.868 313.295 252.316 313.565Z" fill="#C02828"/>
<path d="M239.683 138.147C239.695 142.3 236.081 145.951 231.716 145.939C227.53 145.93 223.74 142.303 223.819 137.867C223.865 135.678 224.71 133.814 226.146 132.385C227.682 130.862 229.663 129.998 231.996 130.068C236.035 130.187 239.826 133.671 239.683 138.147Z" fill="#C02828"/>
<path d="M178.498 239.839C178.586 244.08 174.836 247.826 170.465 247.753C168.271 247.717 166.401 246.884 164.971 245.442C163.502 243.956 162.632 242.049 162.635 239.787C162.638 235.546 166.322 231.8 170.696 231.873C172.889 231.91 174.76 232.743 176.183 234.184C177.653 235.671 178.669 237.571 178.498 239.839Z" fill="#C02828"/>
<path d="M170.668 191.247C175.042 191.506 178.382 194.756 178.477 199.207C178.565 203.412 174.693 207.209 170.404 207.045C166.121 206.878 162.638 203.579 162.711 199.027C162.774 194.713 166.148 191.414 170.668 191.247Z" fill="#C02828"/>
<path d="M231.767 329.387C227.223 328.992 224.147 326.073 223.907 321.516C223.792 319.397 224.716 317.46 226.335 315.888C227.901 314.368 229.793 313.59 231.853 313.617C234.055 313.647 236.011 314.559 237.574 316.271C238.961 317.785 239.728 319.603 239.625 321.513C239.372 326.073 236.306 328.992 231.767 329.387Z" fill="#C02828"/>
<path d="M178.498 260.304C178.115 264.834 175.198 268.099 170.638 268.145C166.102 268.19 162.994 264.977 162.723 260.419C162.604 258.382 163.456 256.47 164.983 254.904C166.553 253.289 168.481 252.356 170.604 252.462C175.164 252.693 178.097 255.77 178.498 260.304Z" fill="#C02828"/>
<path d="M191.107 150.594C193.19 151.007 195.18 151.506 196.734 153.142C198.191 154.671 198.833 156.55 198.942 158.502C199.028 160.031 198.441 161.612 197.54 162.913C196.959 163.747 196.177 164.443 195.262 165.036C193.917 165.914 192.439 166.34 190.973 166.355C189.44 166.37 187.855 165.826 186.58 164.908C185.704 164.276 184.931 163.446 184.366 162.436C183.666 161.174 183.161 159.767 183.252 158.441C183.407 156.225 184.189 154.139 186.014 152.594C187.508 151.33 189.306 150.968 191.107 150.594Z" fill="#C02828"/>
<path d="M211.503 145.562C207.731 145.991 203.49 142.215 204.053 137.679C203.724 134.264 207.168 130.074 212.169 130.372C215.332 130.561 219.728 133.583 219.165 138.426C219.472 141.871 215.831 146.049 211.503 145.562Z" fill="#C02828"/>
<path d="M198.654 301.018C199.113 304.742 195.411 309.114 190.641 308.524C187.356 308.804 183.18 305.399 183.456 300.47C183.639 297.235 186.632 293.055 191.639 293.335C194.979 293.52 199.104 296.737 198.654 301.018Z" fill="#C02828"/>
<path d="M178.136 179.083C178.388 182.91 174.434 186.72 170.422 186.632C166.735 186.55 162.936 182.968 162.963 178.955C162.987 175.127 166.726 171.311 170.732 171.402C174.425 171.485 178.431 175.069 178.136 179.083Z" fill="#C02828"/>
<path d="M170.468 288.017C166.671 288.236 162.854 284.329 162.963 280.261C163.058 276.646 166.614 272.79 170.693 272.851C174.486 272.906 178.307 276.6 178.197 280.665C178.1 284.28 174.541 288.333 170.468 288.017Z" fill="#C02828"/>
<path d="M211.317 313.918C215.53 314.006 218.879 317.272 218.794 321.631C218.718 325.733 215.518 329.044 211.183 329.014C206.967 328.986 203.621 325.675 203.706 321.312C203.782 317.211 206.976 313.948 211.317 313.918Z" fill="#C02828"/>
<path d="M259.838 117.797C259.604 122.242 256.638 125.274 252.431 125.359C248.017 125.453 244.805 122.227 244.775 117.928C244.741 113.519 247.984 110.339 252.306 110.363C256.608 110.382 259.54 113.471 259.838 117.797Z" fill="#C02828"/>
<path d="M238.962 118.038C238.785 118.676 239.306 119.561 238.603 120.26C238.615 121.601 237.575 122.276 236.781 123.088C236.02 123.872 235.272 124.544 234.074 124.793C232.294 125.167 229.645 125.261 228.23 124.31C226.116 122.89 224.364 121.142 224.574 118.272C224.644 117.299 224.543 116.359 224.866 115.356C225.471 113.48 226.843 112.428 228.297 111.397C229.045 110.868 229.921 110.619 230.861 110.668C232.075 110.728 233.301 110.497 234.484 111.011C235.062 111.257 235.64 111.452 236.081 111.917C236.495 112.355 236.909 112.784 237.353 113.188C238.478 114.216 238.95 115.511 238.962 117.001C238.968 117.302 238.962 117.6 238.962 118.038Z" fill="#C02828"/>
<path d="M252.458 334.426C253.052 334.599 253.779 334.41 254.557 334.638C255.75 334.979 256.595 335.633 257.392 336.472C258.183 337.305 258.953 338.05 259.217 339.315C259.592 341.084 259.683 343.75 258.734 345.155C257.304 347.262 255.558 349.023 252.683 348.807C251.716 348.737 250.743 348.992 249.76 348.503C249.286 348.272 248.632 348.196 248.267 347.819C247.418 346.934 246.356 346.253 245.784 345.094C245.383 344.267 245.036 343.452 245.079 342.516C245.14 341.306 244.911 340.078 245.422 338.895C245.672 338.32 245.87 337.743 246.338 337.296C246.773 336.888 247.202 336.472 247.607 336.031C248.635 334.903 249.94 334.447 251.424 334.426C251.725 334.419 252.023 334.426 252.458 334.426Z" fill="#C02828"/>
<path d="M157.625 219.848C157.445 220.438 157.634 221.165 157.412 221.943C157.065 223.135 156.414 223.98 155.574 224.777C154.741 225.567 153.993 226.337 152.73 226.604C150.96 226.975 148.292 227.066 146.887 226.118C144.779 224.689 143.014 222.943 143.23 220.073C143.303 219.103 143.048 218.134 143.535 217.148C143.769 216.674 143.845 216.02 144.222 215.659C145.104 214.807 145.786 213.746 146.948 213.178C147.772 212.773 148.587 212.427 149.524 212.472C150.738 212.53 151.967 212.299 153.153 212.816C153.725 213.062 154.303 213.26 154.747 213.728C155.155 214.163 155.574 214.591 156.012 214.999C157.141 216.023 157.6 217.328 157.625 218.815C157.628 219.113 157.625 219.414 157.625 219.848Z" fill="#C02828"/>
<path d="M157.588 239.778C157.874 241.9 156.983 243.484 155.593 244.919C154.041 246.521 152.213 247.096 149.996 247.05C148.052 247.011 146.619 246.214 145.284 244.946C143.659 243.402 143.121 241.553 143.182 239.337C143.237 237.4 144.055 235.977 145.32 234.642C146.872 233.013 148.73 232.505 150.942 232.578C152.882 232.639 154.321 233.448 155.62 234.749C157.038 236.16 157.883 237.774 157.588 239.778Z" fill="#C02828"/>
<path d="M198.267 138.052C198.544 140.114 197.638 141.692 196.25 143.127C194.702 144.735 192.865 145.295 190.647 145.246C188.707 145.2 187.277 144.398 185.945 143.13C184.317 141.582 183.794 139.731 183.855 137.517C183.903 135.574 184.734 134.161 186.002 132.826C187.551 131.193 189.418 130.704 191.627 130.771C193.571 130.831 195.006 131.652 196.302 132.951C197.714 134.364 198.532 135.997 198.267 138.052Z" fill="#C02828"/>
<path d="M177.765 158.481C177.963 160.56 177.129 162.187 175.748 163.601C174.212 165.169 172.393 165.835 170.163 165.744C168.25 165.668 166.766 164.908 165.461 163.643C163.888 162.114 163.246 160.271 163.344 158.049C163.429 156.142 164.195 154.662 165.476 153.36C167.018 151.786 168.877 151.196 171.088 151.284C172.998 151.36 174.48 152.138 175.764 153.44C177.154 154.85 177.987 156.483 177.765 158.481Z" fill="#C02828"/>
<path d="M150.528 191.965C154.482 191.849 157.74 195.339 157.664 199.31C157.585 203.092 154.391 206.489 150.23 206.397C146.64 206.315 143.072 203.275 143.191 198.924C143.291 195.263 146.4 191.755 150.528 191.965Z" fill="#C02828"/>
<path d="M150.364 267.51C146.783 267.805 143.103 264.062 143.157 260.213C143.212 256.634 146.707 252.973 150.573 253.056C154.081 253.135 157.789 256.552 157.688 260.514C157.597 263.965 154.212 267.829 150.364 267.51Z" fill="#C02828"/>
<path d="M231.716 348.813C228.126 349.111 224.452 345.368 224.497 341.525C224.546 337.937 228.05 334.28 231.904 334.356C235.436 334.432 239.126 337.87 239.029 341.805C238.94 345.274 235.549 349.123 231.716 348.813Z" fill="#C02828"/>
<path d="M191.076 314.28C195.189 314.319 198.295 317.381 198.282 321.504C198.267 325.566 195.186 328.697 191.021 328.655C186.976 328.618 183.943 325.584 183.907 321.537C183.873 317.384 186.997 314.338 191.076 314.28Z" fill="#C02828"/>
<path d="M177.777 301.036C177.695 305.071 174.662 308.205 170.468 308.154C166.467 308.099 163.313 305.046 163.395 300.811C163.468 296.846 166.464 293.782 170.601 293.785C174.674 293.791 177.762 296.883 177.777 301.036Z" fill="#C02828"/>
<path d="M211.527 110.667C215.561 110.889 218.636 113.787 218.748 117.691C218.861 121.677 215.734 124.942 211.688 124.994C207.664 125.049 204.582 121.932 204.473 118.031C204.357 114.045 207.487 110.996 211.527 110.667Z" fill="#C02828"/>
<path d="M150.348 186.23C149.348 185.729 148.082 185.777 146.954 185.166C145.865 184.576 145.055 183.691 144.392 182.788C143.656 181.779 143.276 180.371 143.306 179.161C143.352 177.644 143.757 176.084 144.757 174.765C146.184 172.88 148.219 172.263 150.373 171.822C151.538 172.193 152.758 172.323 153.889 172.874C155.005 173.421 155.793 174.339 156.453 175.245C157.196 176.255 157.573 177.662 157.539 178.872C157.497 180.387 157.089 181.946 156.088 183.272C154.665 185.157 152.624 185.762 150.348 186.23Z" fill="#C02828"/>
<path d="M218.079 341.613C218.335 343.51 217.541 345.137 216.23 346.505C214.806 347.985 213.026 348.536 210.934 348.496C209.075 348.46 207.597 347.767 206.328 346.566C204.777 345.091 204.302 343.209 204.378 341.078C204.442 339.293 205.157 337.873 206.331 336.669C207.77 335.191 209.58 334.796 211.655 334.723C214.633 334.617 218.523 337.858 218.079 341.613Z" fill="#C02828"/>
<path d="M150.534 287.266C148.456 287.561 146.859 286.7 145.493 285.402C144 283.973 143.504 282.164 143.55 280.087C143.592 278.239 144.271 276.749 145.515 275.503C146.969 274.046 148.754 273.517 150.844 273.587C152.7 273.651 154.178 274.353 155.419 275.591C156.87 277.044 157.345 278.847 157.32 280.93C157.305 282.295 156.761 283.362 156.143 284.411C155.726 285.125 155.005 285.718 154.306 286.199C153.168 286.98 151.936 287.622 150.534 287.266Z" fill="#C02828"/>
<path d="M163.739 137.964C163.225 134.824 167.322 130.613 170.665 131.172C173.783 130.679 177.999 134.772 177.418 138.138C177.868 141.242 173.826 145.425 170.403 144.842C167.389 145.289 163.215 141.297 163.739 137.964Z" fill="#C02828"/>
<path d="M252.27 90.522C255.935 90.5615 259.114 93.6262 259.108 97.3902C259.102 100.935 256.081 104.225 252.203 104.176C248.476 104.128 245.483 101.027 245.453 97.4115C245.422 93.5745 248.674 90.5615 252.27 90.522Z" fill="#C02828"/>
<path d="M191.149 124.699C187.314 124.665 184.266 121.464 184.266 117.87C184.263 114.209 187.359 111.02 191.131 111.038C194.687 111.056 197.845 113.978 197.918 117.764C197.988 121.582 194.757 124.626 191.149 124.699Z" fill="#C02828"/>
<path d="M177.418 321.516C177.035 325.553 174.571 328.29 170.489 328.229C166.422 328.168 163.736 325.404 163.821 321.339C163.906 317.357 166.531 314.73 170.577 314.714C174.61 314.699 177.105 317.469 177.418 321.516Z" fill="#C02828"/>
<path d="M150.367 151.652C152.274 152.108 154.111 152.476 155.428 153.978C156.59 155.303 157.238 156.957 157.181 158.593C157.114 160.42 156.432 162.239 154.93 163.543C153.597 164.698 151.936 165.34 150.297 165.261C148.542 165.182 146.789 164.54 145.475 163.117C144.259 161.801 143.687 160.138 143.672 158.514C143.659 156.748 144.35 155.008 145.722 153.662C147.051 152.354 148.794 152.12 150.367 151.652Z" fill="#C02828"/>
<path d="M231.737 104.222C230.125 103.763 228.388 103.51 227.062 102.203C225.69 100.856 224.999 99.1168 225.011 97.3503C225.027 95.7268 225.602 94.0606 226.815 92.7472C228.129 91.3273 229.884 90.6888 231.64 90.6037C233.276 90.5277 234.94 91.1723 236.266 92.3276C237.775 93.6319 238.469 95.4501 238.517 97.2743C238.56 98.9709 237.9 100.673 236.647 102.02C235.329 103.44 233.544 103.75 231.737 104.222Z" fill="#C02828"/>
<path d="M136.672 239.65C136.511 240.508 136.517 241.28 136.219 241.915C135.769 242.867 135.434 243.895 134.616 244.67C133.852 245.387 132.854 245.634 131.994 246.154C131.364 246.534 130.476 246.029 129.87 246.646C129.289 245.992 128.407 246.521 127.759 246.12C126.908 245.591 125.898 245.354 125.149 244.615C124.477 243.949 124.325 242.998 123.762 242.323C123.151 241.578 123.802 240.559 123.072 239.909C123.659 239.282 123.23 238.434 123.519 237.765C123.875 236.956 124.301 236.166 124.784 235.424C125.368 234.518 126.485 234.311 127.27 233.679C128.064 233.028 129.14 233.721 129.855 232.979C130.47 233.591 131.327 233.128 131.991 233.454C132.833 233.873 133.685 234.311 134.455 234.849C135.376 235.494 135.577 236.649 136.152 237.537C136.629 238.276 135.918 239.231 136.672 239.65Z" fill="#C02828"/>
<path d="M252.081 368.809C250.314 368.56 248.422 368.064 247.15 366.492C246.119 365.212 245.809 363.583 245.441 362.008C245.995 360.804 245.995 359.417 246.831 358.268C247.172 357.8 247.503 357.292 247.944 356.97C248.653 356.45 249.453 355.994 250.281 355.714C250.959 355.483 251.777 355.751 252.437 355.289C252.985 356.109 253.995 355.301 254.685 355.973C255.254 356.529 256.145 356.742 256.848 357.186C257.183 357.396 257.459 357.745 257.666 358.089C258.068 358.755 258.521 359.427 258.722 360.156C258.898 360.798 258.667 361.54 259.117 362.148C258.5 362.744 258.956 363.598 258.6 364.264C258.211 364.997 257.882 365.766 257.444 366.468C257.198 366.863 256.833 367.234 256.434 367.478C255.729 367.906 254.986 368.317 254.205 368.572C253.581 368.773 252.872 368.73 252.081 368.809Z" fill="#C02828"/>
<path d="M136.623 219.708C136.532 220.289 136.538 221.052 136.277 221.715C135.936 222.585 135.407 223.393 134.908 224.193C134.357 225.062 133.247 225.154 132.535 225.795C131.772 226.482 130.67 225.762 129.953 226.501C129.341 225.883 128.453 226.394 127.829 226.011C126.968 225.491 125.962 225.257 125.21 224.524C124.453 223.785 124.203 222.779 123.665 221.937C123.196 221.201 123.814 220.268 123.072 219.666C123.574 218.611 123.516 217.389 124.124 216.337C124.714 215.315 125.441 214.518 126.457 213.919C127.495 213.317 128.724 213.357 129.776 212.834C131.346 213.211 132.982 213.491 134.266 214.524C135.848 215.798 136.34 217.686 136.623 219.708Z" fill="#C02828"/>
<path d="M190.985 348.041C189.132 348.545 187.612 347.502 186.416 346.368C185.041 345.064 184.494 343.276 184.545 341.218C184.594 339.461 185.278 338.038 186.343 336.943C187.663 335.581 189.437 335.019 191.493 335.076C193.257 335.119 194.678 335.806 195.776 336.867C197.136 338.187 197.799 339.959 197.622 342.021C197.534 343.082 197.34 344.039 196.847 344.945C196.284 345.979 195.435 346.73 194.352 347.384C193.327 348.001 192.247 348.272 190.985 348.041Z" fill="#C02828"/>
<path d="M143.994 300.896C143.513 299.16 144.459 297.661 145.512 296.466C146.43 295.426 147.699 294.465 149.323 294.493C149.798 294.499 150.281 294.508 150.756 294.493C153.238 294.392 154.917 295.7 156.167 297.661C156.718 298.524 156.916 299.503 156.943 300.583C156.992 302.337 156.645 303.851 155.474 305.201C154.409 306.435 153.162 307.268 151.529 307.436C151.051 307.484 150.567 307.427 150.093 307.448C147.608 307.545 145.935 306.232 144.678 304.277C144.046 303.295 143.757 302.185 143.994 300.896Z" fill="#C02828"/>
<path d="M238.244 362.169C238.649 365.373 235.123 368.736 231.67 368.691C228.461 368.642 225.115 365.434 225.197 361.986C225.267 358.815 228.428 355.465 231.947 355.562C235.007 355.641 238.664 358.742 238.244 362.169Z" fill="#C02828"/>
<path d="M136.386 260.349C136.8 263.56 133.283 266.92 129.831 266.883C126.625 266.85 123.269 263.642 123.342 260.197C123.406 256.987 126.603 253.664 130.074 253.752C133.183 253.834 136.803 256.956 136.386 260.349Z" fill="#C02828"/>
<path d="M136.386 199.222C136.785 202.426 133.25 205.789 129.8 205.728C126.591 205.671 123.257 202.466 123.342 199.012C123.418 195.874 126.542 192.5 130.105 192.6C133.128 192.685 136.812 195.759 136.386 199.222Z" fill="#C02828"/>
<path d="M205.13 97.2685C205.331 93.4315 208.056 90.829 211.743 90.908C215.5 90.9962 218.158 93.7538 218.055 97.533C217.954 101.093 215.469 103.79 211.563 103.799C208.014 103.808 205.236 101.242 205.13 97.2685Z" fill="#C02828"/>
<path d="M123.406 179.134C123.786 177.125 124.41 175.41 125.961 174.124C127.145 173.142 128.571 172.573 129.971 172.619C131.86 172.68 133.548 173.567 134.835 175.103C135.829 176.285 136.365 177.718 136.313 179.122C136.252 180.873 135.461 182.464 134.056 183.728C132.851 184.82 131.413 185.34 129.931 185.419C128.897 185.471 127.774 185.051 126.777 184.446C125.843 183.88 125.128 183.139 124.529 182.302C123.844 181.336 123.747 180.119 123.406 179.134Z" fill="#C02828"/>
<path d="M150.254 131.665C152.496 131.792 154.145 132.671 155.483 134.222C156.469 135.365 156.374 136.839 156.904 138.119C156.362 139.217 156.548 140.594 155.678 141.549C154.784 142.522 153.889 143.513 152.563 143.972C151.815 144.237 150.951 143.942 150.266 144.483C149.393 143.814 148.21 144.173 147.264 143.458C146.555 142.92 145.944 142.312 145.342 141.695C144.928 141.275 144.712 140.655 144.435 140.111C144.1 139.445 144.578 138.588 143.945 137.986C144.465 136.931 144.301 135.635 145.037 134.681C145.746 133.759 146.613 133.008 147.586 132.333C148.505 131.695 149.649 132.218 150.254 131.665Z" fill="#C02828"/>
<path d="M170.58 124.331C169.503 123.838 168.213 123.99 167.255 123.245C166.339 122.534 165.545 121.71 164.916 120.698C164.344 119.779 164.679 118.676 164.101 117.803C164.618 116.693 164.45 115.313 165.296 114.364C166.096 113.467 166.954 112.643 168.082 112.051C168.949 111.592 169.965 112.127 170.683 111.385C171.337 112.096 172.305 111.595 173.102 112.054C173.978 112.558 174.744 113.133 175.377 113.872C175.842 114.419 176.156 115.094 176.533 115.72C176.922 116.368 176.423 117.241 177.059 117.827C176.405 118.773 176.813 120.01 176.028 121.008C175.374 121.844 174.674 122.589 173.874 123.248C172.928 124.033 171.629 123.841 170.58 124.331Z" fill="#C02828"/>
<path d="M217.708 362.12C217.249 363.215 217.355 364.489 216.637 365.456C215.904 366.438 215.056 367.362 213.918 367.852C213.057 368.222 212.032 368.682 211.195 368.52C210.03 368.295 208.689 368.256 207.74 367.395C206.852 366.59 206.015 365.745 205.434 364.604C204.993 363.741 205.486 362.731 204.771 362.008C205.291 360.956 205.115 359.636 205.884 358.715C206.511 357.961 207.372 357.408 208.087 356.721C208.978 355.866 210.268 356.249 211.229 355.65C212.284 356.17 213.589 355.942 214.542 356.733C215.339 357.399 216.044 358.137 216.698 358.974C217.474 359.968 217.075 361.205 217.708 362.12Z" fill="#C02828"/>
<path d="M129.846 286.889C129.119 286.259 127.981 286.746 127.063 286.126C126.074 285.466 125.235 284.694 124.52 283.781C123.765 282.818 123.957 281.522 123.428 280.47C124.07 279.573 123.686 278.403 124.389 277.448C125.089 276.503 125.889 275.77 126.774 275.025C127.696 274.244 128.9 274.672 129.767 273.988C130.573 274.207 131.376 274.441 132.185 274.639C133.521 274.967 134.318 276.007 135.169 276.934C136.036 277.88 136.088 279.221 136.31 280.382C136.468 281.218 135.988 282.228 135.647 283.106C135.215 284.219 134.293 285.01 133.402 285.749C132.432 286.551 131.102 286.509 129.846 286.889Z" fill="#C02828"/>
<path d="M156.542 321.392C156.843 324.766 153.591 327.606 150.507 327.649C147.188 327.697 144.189 324.669 144.246 321.379C144.301 318.263 147.167 315.244 150.522 315.302C153.698 315.356 156.767 318.242 156.542 321.392Z" fill="#C02828"/>
<path d="M176.697 341.57C176.989 344.884 173.771 347.767 170.629 347.794C167.371 347.822 164.323 344.842 164.402 341.488C164.472 338.43 167.295 335.374 170.711 335.447C173.832 335.514 176.934 338.366 176.697 341.57Z" fill="#C02828"/>
<path d="M191.116 103.474C187.703 103.483 184.986 100.756 184.974 97.3778C184.965 93.9665 187.691 91.2545 191.073 91.2393C194.486 91.2302 197.199 93.9574 197.215 97.3353C197.224 100.747 194.495 103.462 191.116 103.474Z" fill="#C02828"/>
<path d="M258.399 77.2413C258.636 80.157 255.305 83.4194 252.203 83.3768C249.273 83.3403 246.031 80.1753 246.11 77.0893C246.186 74.1401 249.334 71.051 252.267 71.045C255.254 71.0328 258.648 74.2009 258.399 77.2413Z" fill="#C02828"/>
<path d="M129.983 164.629C126.561 164.543 123.939 161.947 123.79 158.542C123.781 158.247 124.34 155.793 124.517 155.611C125.326 154.769 126.059 153.793 127.014 153.163C127.775 152.671 128.769 152.391 129.746 152.4C133.201 152.437 135.918 154.987 135.997 158.393C136.073 161.838 133.402 164.431 129.983 164.629Z" fill="#C02828"/>
<path d="M231.828 83.3464C230.055 82.9481 228.415 82.5559 227.22 81.1482C226.222 79.9685 225.678 78.5335 225.72 77.1227C225.772 75.4353 226.462 73.83 227.862 72.6412C229.042 71.6378 230.493 71.0875 231.895 71.1757C233.486 71.276 235.077 71.8537 236.251 73.2036C237.276 74.3833 237.821 75.8123 237.802 77.2109C237.775 78.8071 237.17 80.382 235.868 81.6012C234.672 82.7262 233.161 82.8964 231.828 83.3464Z" fill="#C02828"/>
<path d="M129.855 307.114C128.441 306.639 126.871 306.448 125.663 305.223C124.468 304.003 123.884 302.489 123.872 300.954C123.863 299.555 124.392 298.12 125.432 296.953C126.622 295.618 128.191 295.019 129.791 294.931C131.203 294.852 132.645 295.405 133.825 296.408C135.224 297.597 135.908 299.212 135.951 300.896C135.988 302.304 135.437 303.733 134.442 304.915C133.247 306.326 131.598 306.691 129.855 307.114Z" fill="#C02828"/>
<path d="M197.269 362.09C196.789 363.781 196.466 365.447 195.055 366.648C193.875 367.654 192.43 368.18 191.033 368.156C189.357 368.131 187.733 367.45 186.541 366.046C185.537 364.869 184.998 363.431 185.053 362.02C185.111 360.479 185.704 358.968 186.936 357.785C188.119 356.66 189.586 356.152 191.067 356.085C192.104 356.034 193.23 356.453 194.237 357.049C195.027 357.517 195.627 358.129 196.113 358.825C196.792 359.801 196.895 361.017 197.269 362.09Z" fill="#C02828"/>
<path d="M258.037 382.36C258.345 385.367 255.531 388.122 252.233 388.097C249.234 388.076 246.363 385.586 246.454 382.087C246.527 379.113 249.073 376.377 252.419 376.444C255.452 376.501 258.408 379.092 258.037 382.36Z" fill="#C02828"/>
<path d="M109.885 213.91C112.133 213.752 113.928 214.941 115.044 216.908C115.784 218.206 115.747 219.799 115.44 221.171C115.145 222.469 114.418 223.633 113.113 224.506C111.063 225.871 107.543 225.795 105.657 223.986C104.672 223.04 103.923 221.845 104.018 220.389C104.075 219.48 103.607 218.492 104.355 217.668C104.72 215.418 107.373 213.752 109.35 213.91C109.526 213.925 109.709 213.91 109.885 213.91Z" fill="#C02828"/>
<path d="M115.513 239.918C115.686 242.052 114.539 243.871 112.541 245.102C112.173 245.33 111.72 245.543 111.306 245.546C109.974 245.561 108.632 245.722 107.327 245.224C105.593 244.561 103.999 242.515 104.011 240.69C104.018 239.663 103.908 238.65 104.316 237.598C105.067 235.649 106.828 234.147 109.012 234.087C109.91 234.059 110.792 233.971 111.75 234.363C114.226 235.367 115.501 236.881 115.513 239.383C115.513 239.562 115.513 239.742 115.513 239.918Z" fill="#C02828"/>
<path d="M211.615 71.4554C214.672 71.3125 217.401 74.137 217.401 77.2139C217.398 80.2695 214.687 82.9998 211.609 82.9967C208.549 82.9967 205.82 80.2847 205.82 77.2078C205.823 74.1522 208.531 71.3125 211.615 71.4554Z" fill="#C02828"/>
<path d="M156.18 117.858C156.323 120.935 153.485 123.647 150.427 123.647C147.349 123.647 144.636 120.92 144.636 117.864C144.636 114.787 147.361 112.072 150.424 112.072C153.5 112.072 156.323 114.803 156.18 117.858Z" fill="#C02828"/>
<path d="M109.572 204.917C106.649 204.959 103.871 202.22 103.969 198.982C104.054 196.06 106.691 193.281 109.934 193.382C112.854 193.47 115.634 196.1 115.54 199.344C115.452 202.266 112.812 205.13 109.572 204.917Z" fill="#C02828"/>
<path d="M109.751 254.564C112.826 254.424 115.543 257.251 115.543 260.319C115.543 263.39 112.817 266.102 109.754 266.102C106.682 266.102 103.965 263.384 103.962 260.322C103.962 257.245 106.688 254.424 109.751 254.564Z" fill="#C02828"/>
<path d="M231.743 388.025C228.747 388.159 225.967 385.392 225.973 382.248C225.982 379.256 228.643 376.477 231.786 376.483C234.782 376.486 237.562 379.147 237.553 382.291C237.547 385.282 234.885 388.168 231.743 388.025Z" fill="#C02828"/>
<path d="M176.414 97.2409C176.149 98.7763 175.751 100.184 174.72 101.291C173.631 102.461 172.18 103.005 170.631 103.082C169.117 103.154 167.754 102.492 166.644 101.491C165.46 100.421 164.925 98.9557 164.849 97.4112C164.779 95.894 165.442 94.5349 166.443 93.4222C167.51 92.2394 168.98 91.7043 170.528 91.6314C172.043 91.5584 173.39 92.2334 174.516 93.2215C175.724 94.2856 176.052 95.7967 176.414 97.2409Z" fill="#C02828"/>
<path d="M130.174 132.251C131.659 132.61 133.146 133.042 134.19 134.224C135.014 135.158 135.82 137.523 135.653 138.268C135.33 139.761 134.88 141.242 133.691 142.284C132.757 143.108 130.397 143.914 129.648 143.75C128.155 143.425 126.67 142.978 125.627 141.789C124.802 140.852 123.996 138.493 124.161 137.745C124.489 136.252 124.936 134.772 126.123 133.729C127.06 132.908 129.411 132.154 130.174 132.251Z" fill="#C02828"/>
<path d="M103.935 179.031C104.197 178.176 104.37 177.286 104.735 176.48C105.191 175.464 106.049 174.507 107.007 174.066C107.859 173.674 108.814 173.522 109.727 173.263L112.3 173.981C113.28 174.525 114.262 175.315 114.706 176.273C115.096 177.124 115.254 178.079 115.512 178.991L114.795 181.563C114.25 182.542 113.456 183.528 112.498 183.968C111.649 184.358 110.691 184.513 109.782 184.774L107.208 184.054C106.226 183.509 105.249 182.716 104.796 181.761C104.397 180.916 104.218 179.961 103.935 179.031Z" fill="#C02828"/>
<path d="M144.599 341.643C144.858 340.804 145.068 339.929 145.396 339.105C145.837 338.028 146.683 337.223 147.668 336.697C148.481 336.256 149.457 335.937 150.37 335.918C151.221 335.906 152.128 336.177 152.946 336.578C153.989 337.092 154.823 337.879 155.349 338.865C155.79 339.676 156.11 340.652 156.128 341.564C156.14 342.413 155.869 343.322 155.468 344.14C154.954 345.182 154.166 346.016 153.183 346.542C152.368 346.982 151.389 347.302 150.476 347.32C149.624 347.332 148.721 347.061 147.903 346.66C146.856 346.146 146.032 345.353 145.496 344.377C145.049 343.562 144.897 342.589 144.599 341.643Z" fill="#C02828"/>
<path d="M175.979 362.038C176.521 364.723 173.287 367.888 170.525 367.578C169.01 367.408 167.754 367.046 166.683 365.976C165.609 364.902 165.144 363.662 165.144 362.117C165.144 360.57 165.616 359.335 166.695 358.262C167.815 357.146 169.117 356.678 170.72 356.693C172.21 356.702 173.381 357.213 174.404 358.21C175.477 359.262 176.137 360.485 175.979 362.038Z" fill="#C02828"/>
<path d="M129.928 316.098C131.495 315.91 132.721 316.527 133.791 317.606C134.905 318.734 135.361 320.041 135.34 321.641C135.324 323.124 134.82 324.292 133.807 325.32C132.696 326.451 131.391 326.916 129.788 326.907C128.298 326.898 127.127 326.393 126.098 325.399C124.958 324.304 124.456 323.015 124.471 321.397C124.489 319.844 125 318.619 126.077 317.567C127.154 316.518 128.383 315.879 129.928 316.098Z" fill="#C02828"/>
<path d="M211.259 376.881C212.899 376.708 214.109 377.383 215.168 378.447C216.239 379.521 216.695 380.77 216.683 382.318C216.674 383.862 216.181 385.091 215.107 386.158C213.982 387.274 212.668 387.717 211.068 387.699C209.577 387.684 208.415 387.173 207.39 386.158C206.264 385.036 205.802 383.738 205.817 382.135C205.826 380.645 206.331 379.475 207.335 378.447C208.433 377.325 209.717 376.663 211.259 376.881Z" fill="#C02828"/>
<path d="M115.142 280.38C115.665 283.107 112.422 286.251 109.639 285.922C108.121 285.74 106.877 285.338 105.824 284.274C104.76 283.198 104.306 281.945 104.319 280.401C104.328 278.85 104.842 277.631 105.91 276.564C107.032 275.439 108.349 275.004 109.949 275.031C111.437 275.059 112.599 275.57 113.624 276.588C114.704 277.658 115.321 278.884 115.142 280.38Z" fill="#C02828"/>
<path d="M196.491 77.2168C196.616 78.7462 195.885 80.0475 194.924 81.0173C193.966 81.9872 192.667 82.6409 191.131 82.6257C188.189 82.5923 185.628 80.1782 185.701 77.1165C185.771 74.1704 188.123 71.8597 191.146 71.7989C192.679 71.7684 193.978 72.4343 194.93 73.4133C195.882 74.3893 196.631 75.6814 196.491 77.2168Z" fill="#C02828"/>
<path d="M115.151 158.484C114.77 161.582 113.043 163.777 109.779 163.817C106.685 163.853 104.486 161.798 104.446 158.538C104.41 155.443 106.466 153.245 109.727 153.209C112.824 153.166 114.71 155.227 115.151 158.484Z" fill="#C02828"/>
<path d="M252.206 51.6684C255.078 51.2306 257.359 54.1554 257.411 56.5817C257.475 59.4731 254.907 62.0514 252.258 61.7899C250.816 61.65 249.557 61.3977 248.532 60.3366C247.497 59.2755 247.318 57.9894 247.193 56.5604C246.977 54.0642 249.59 51.2549 252.206 51.6684Z" fill="#C02828"/>
<path d="M109.754 306.007C107.169 306.436 104.373 303.763 104.665 300.832C104.799 299.434 105.121 298.242 106.086 297.272C107.111 296.25 108.37 295.886 109.842 295.895C111.257 295.91 112.443 296.308 113.42 297.272C114.445 298.291 114.719 299.555 114.846 301.006C115.078 303.578 112.483 306.43 109.754 306.007Z" fill="#C02828"/>
<path d="M191.022 387.304C188.549 387.724 185.735 385.078 186.012 382.233C186.142 380.858 186.374 379.642 187.347 378.639C188.424 377.529 189.735 377.198 191.259 377.198C192.685 377.204 193.851 377.626 194.815 378.624C195.825 379.67 196.065 380.944 196.184 382.388C196.391 384.844 193.887 387.745 191.022 387.304Z" fill="#C02828"/>
<path d="M150.504 92.3185C152.77 91.9749 155.562 94.8846 155.544 97.3929C155.523 99.7249 152.888 102.565 150.251 102.467C147.967 102.382 145.235 99.737 145.308 97.2287C145.372 94.9332 148.031 91.9171 150.504 92.3185Z" fill="#C02828"/>
<path d="M231.676 61.7413C229.404 62.0818 226.621 59.166 226.645 56.6608C226.67 54.347 229.286 51.4921 231.944 51.5924C234.207 51.6806 236.957 54.3105 236.884 56.8432C236.811 59.1417 234.143 62.1487 231.676 61.7413Z" fill="#C02828"/>
<path d="M134.947 117.94C135.294 120.202 132.386 122.996 129.873 122.978C127.531 122.96 124.696 120.321 124.793 117.691C124.882 115.401 127.531 112.677 130.035 112.744C132.328 112.811 135.346 115.465 134.947 117.94Z" fill="#C02828"/>
<path d="M94.2773 239.887C93.9974 242.76 92.1845 244.803 89.2064 244.803C86.2528 244.803 84.1082 242.551 84.2482 239.65C84.3881 236.728 86.3927 234.743 89.3555 234.831C92.2848 234.916 94.0856 236.923 94.2773 239.887Z" fill="#C02828"/>
<path d="M252.328 407.811C249.295 407.595 247.354 405.726 247.293 402.865C247.233 399.915 249.201 397.915 252.148 397.787C255.017 397.659 257.289 399.794 257.274 402.773C257.262 405.704 255.217 407.562 252.328 407.811Z" fill="#C02828"/>
<path d="M94.277 219.632C94.0702 222.609 92.1964 224.606 89.3187 224.652C86.3559 224.694 84.3726 222.724 84.2479 219.79C84.1293 216.935 86.2525 214.661 89.2488 214.676C92.1629 214.692 94.0367 216.729 94.277 219.632Z" fill="#C02828"/>
<path d="M129.91 346.654C129.225 346.499 128.465 346.441 127.817 346.146C126.725 345.654 126.071 344.994 125.444 343.775C125.125 343.146 124.869 342.379 124.909 341.692C124.982 340.4 125.42 339.166 126.335 338.178C127.266 337.18 128.535 336.703 129.794 336.639C131.075 336.575 132.334 337.089 133.317 338.016C134.354 338.995 134.88 340.3 134.892 341.638C134.901 342.911 134.375 344.155 133.417 345.125C132.733 345.818 130.853 346.639 129.91 346.654Z" fill="#C02828"/>
<path d="M155.465 362.193C155.282 362.886 155.212 363.647 154.89 364.276C154.275 365.489 153.631 366.137 152.52 366.647C151.872 366.945 151.1 367.18 150.409 367.119C149.056 366.997 147.754 366.556 146.795 365.501C145.895 364.51 145.463 363.267 145.424 361.968C145.405 361.284 145.737 360.564 146.005 359.898C146.461 358.791 147.449 358.131 148.405 357.554C148.992 357.195 149.819 357.098 150.531 357.125C151.234 357.149 151.982 357.362 152.609 357.687C153.694 358.259 154.668 359.232 154.984 360.059C155.243 360.731 155.313 361.473 155.465 362.193Z" fill="#C02828"/>
<path d="M89.267 194.154C90.3225 194.576 91.591 194.677 92.5705 195.482C93.7021 196.41 93.699 197.881 94.277 199.076C93.8207 200.198 93.7477 201.475 92.9507 202.463C92.0351 203.594 90.5598 203.612 89.3735 204.199C88.1841 203.749 86.8457 203.688 85.8358 202.782C84.7559 201.813 84.7346 200.371 84.1992 199.158C84.7285 198.009 84.7468 196.644 85.708 195.665C86.6753 194.683 88.0259 194.622 89.267 194.154Z" fill="#C02828"/>
<path d="M175.602 77.2016C175.097 78.3964 175.067 79.7525 174.093 80.7284C173.114 81.7074 171.742 81.7013 170.595 82.2456C169.372 81.7439 167.952 81.677 166.972 80.619C166.045 79.6248 166.023 78.2687 165.54 77.0921C166.133 75.9063 166.127 74.4287 167.264 73.5105C168.25 72.72 169.524 72.6227 170.653 72.1758C171.858 72.7261 173.321 72.7413 174.245 73.8693C175.048 74.8453 175.176 76.107 175.602 77.2016Z" fill="#C02828"/>
<path d="M216.245 56.8402C216.564 58.2783 215.761 59.16 214.91 60.0995C213.951 61.1636 212.841 61.4038 211.475 61.4221C210.116 61.4464 209.182 60.9235 208.245 60.0387C207.217 59.0719 206.906 57.9864 206.891 56.6152C206.873 55.2744 207.357 54.3258 208.239 53.3681C209.255 52.2644 210.414 52.012 211.834 51.9877C213.206 51.9695 214.113 52.5472 215.04 53.438C216.062 54.42 216.497 55.5085 216.245 56.8402Z" fill="#C02828"/>
<path d="M231.716 398.128C233.131 397.851 234.14 398.481 235.132 399.439C236.148 400.418 236.464 401.494 236.486 402.865C236.501 404.206 236.029 405.157 235.132 406.106C234.168 407.134 233.094 407.465 231.722 407.493C230.311 407.514 229.31 407.012 228.33 406.045C227.317 405.051 227.071 403.953 227.044 402.597C227.013 401.226 227.561 400.302 228.464 399.384C229.389 398.438 230.375 397.87 231.716 398.128Z" fill="#C02828"/>
<path d="M114.402 137.958C114.679 139.372 114.046 140.381 113.091 141.372C112.112 142.385 111.035 142.704 109.663 142.722C108.318 142.741 107.366 142.272 106.417 141.372C105.392 140.409 105.061 139.335 105.036 137.964C105.009 136.553 105.514 135.553 106.478 134.574C107.476 133.562 108.574 133.315 109.931 133.285C111.303 133.261 112.227 133.808 113.149 134.711C114.092 135.632 114.658 136.617 114.402 137.958Z" fill="#C02828"/>
<path d="M93.885 260.237C94.1618 261.636 93.593 262.681 92.5983 263.648C91.6736 264.554 90.7306 265.059 89.3709 265.038C88.0051 265.013 86.9252 264.737 85.9275 263.721C84.954 262.727 84.5251 261.705 84.5191 260.319C84.516 258.924 84.9601 257.905 85.9275 256.914C86.9252 255.895 88.0081 255.622 89.3739 255.597C90.7336 255.576 91.6827 256.078 92.6014 256.99C93.5261 257.911 94.1497 258.875 93.885 260.237Z" fill="#C02828"/>
<path d="M109.678 326.15C107.515 326.42 105 323.876 105.009 321.443C105.021 319.275 107.333 316.636 109.918 316.737C112.011 316.822 114.563 319.075 114.493 321.595C114.43 323.818 112.063 326.472 109.678 326.15Z" fill="#C02828"/>
<path d="M170.656 377.59C172.816 377.32 175.335 379.871 175.322 382.3C175.313 384.468 172.998 387.11 170.413 387.006C168.323 386.924 165.768 384.665 165.841 382.148C165.905 379.931 168.265 377.274 170.656 377.59Z" fill="#C02828"/>
<path d="M89.2366 183.691C86.2403 183.372 84.6707 182.022 84.6251 179.061C84.5734 176.048 86.3833 174.324 89.3248 174.406C92.1903 174.488 93.8572 175.932 93.8451 179.061C93.8299 182.025 92.2329 183.372 89.2366 183.691Z" fill="#C02828"/>
<path d="M211.201 398.098C213.76 398.198 215.843 400.022 215.892 402.686C215.947 405.419 213.924 407.298 211.381 407.42C208.78 407.544 206.578 405.389 206.593 402.777C206.608 400.186 208.616 398.253 211.201 398.098Z" fill="#C02828"/>
<path d="M89.2519 275.789C91.8375 275.916 93.8573 277.85 93.8938 280.431C93.9303 283.022 91.7645 285.22 89.1333 285.11C86.502 285.004 84.5583 283.043 84.5917 280.407C84.6252 277.789 86.6572 275.907 89.2519 275.789Z" fill="#C02828"/>
<path d="M195.414 56.7917C195.609 59.0173 193.415 61.1669 190.915 61.0726C188.856 60.9905 186.681 59.1085 186.723 56.6154C186.766 54.3959 188.774 52.2433 191.274 52.3406C193.333 52.4166 195.673 54.3047 195.414 56.7917Z" fill="#C02828"/>
<path d="M134.226 97.3534C134.479 99.5942 132.276 101.768 129.822 101.726C127.571 101.683 125.536 99.6277 125.536 97.3595C125.533 95.1187 127.543 92.9449 129.995 92.9874C132.246 93.03 134.473 95.0853 134.226 97.3534Z" fill="#C02828"/>
<path d="M93.5563 158.572C93.5928 160.694 91.4665 162.844 89.2216 162.841C87.0102 162.841 84.7804 160.624 84.9112 158.362C85.0481 156.103 87.1197 154.124 89.3433 154.188C91.5213 154.251 93.6415 156.334 93.5563 158.572Z" fill="#C02828"/>
<path d="M150.497 81.5284C148.456 81.5314 146.275 79.765 146.126 77.3296C145.998 75.2135 147.906 73.1338 150.26 72.9028C152.316 72.7052 154.735 74.952 154.741 77.1806C154.753 79.2146 152.8 81.4068 150.497 81.5284Z" fill="#C02828"/>
<path d="M191.076 398.38C192.068 398.827 193.154 398.891 193.987 399.7C194.857 400.548 195.158 401.618 195.396 402.719C195.508 403.227 194.69 405.021 194.316 405.495C193.519 406.513 192.339 406.945 191.195 407.024C190.106 407.103 189.008 406.617 188.144 405.778C187.277 404.932 186.787 403.853 186.836 402.746C186.878 401.658 187.301 400.576 188.177 399.721C189.011 398.915 190.091 398.827 191.076 398.38Z" fill="#C02828"/>
<path d="M89.1701 305.356C88.1298 304.9 86.9921 304.766 86.1647 303.857C85.3921 303.015 84.9479 301.984 84.9753 300.954C85.0057 299.786 85.4529 298.628 86.4506 297.813C87.3145 297.111 88.3336 296.588 89.383 296.706C90.5389 296.831 91.707 297.244 92.4949 298.278C92.8751 298.774 93.6751 300.561 93.5382 301.066C93.231 302.203 92.9694 303.383 91.9625 304.192C91.1382 304.855 90.1252 304.976 89.1701 305.356Z" fill="#C02828"/>
<path d="M109.718 122.249C108.644 121.835 107.525 121.656 106.691 120.762C105.916 119.926 105.474 118.895 105.493 117.864C105.511 116.691 105.958 115.532 106.959 114.717C107.817 114.015 108.839 113.495 109.882 113.599C111.038 113.714 112.206 114.131 113 115.158C113.402 115.681 114.189 117.405 114.053 117.946C113.767 119.093 113.472 120.248 112.489 121.075C111.677 121.759 110.649 121.847 109.718 122.249Z" fill="#C02828"/>
<path d="M129.946 366.511C129.012 366.11 127.987 366.018 127.172 365.337C126.193 364.513 125.898 363.355 125.609 362.209C125.472 361.668 126.26 359.944 126.664 359.421C127.455 358.393 128.623 357.98 129.779 357.861C130.825 357.755 131.847 358.275 132.705 358.977C133.703 359.795 134.15 360.953 134.171 362.124C134.187 363.157 133.746 364.185 132.97 365.024C132.139 365.918 131.017 366.097 129.946 366.511Z" fill="#C02828"/>
<path d="M252.385 32.6021C254.055 32.3072 255.132 33.3865 256.087 34.8064C256.203 34.9797 256.224 35.2351 256.23 35.4601C256.252 36.0529 256.179 36.658 256.252 37.2448C256.382 38.3028 255.649 38.9413 255.099 39.6284C254.77 40.0359 254.198 40.4098 253.69 40.4767C252.696 40.6105 251.637 40.6652 250.67 40.4585C250.068 40.3308 249.404 39.7653 249.085 39.218C248.711 38.5734 247.956 37.9866 248.303 37.0319C248.404 36.7674 248.376 36.4269 248.312 36.1441C248.051 35.0131 248.763 34.2044 249.414 33.5781C250.013 33.0034 250.779 32.2798 251.85 32.596C252.011 32.6446 252.206 32.6021 252.385 32.6021Z" fill="#C02828"/>
<path d="M109.961 337.661C110.974 337.499 111.78 338.074 112.574 338.834C113.435 339.661 113.767 340.591 113.73 341.777C113.66 343.954 111.981 345.541 109.687 345.593C108.547 345.62 107.725 345.176 106.932 344.407C106.074 343.571 105.739 342.644 105.776 341.458C105.849 339.281 107.528 337.654 109.961 337.661Z" fill="#C02828"/>
<path d="M150.221 386.225C149.208 386.386 148.396 385.82 147.608 385.057C146.744 384.23 146.403 383.303 146.449 382.114C146.522 379.934 148.195 378.347 150.488 378.292C151.629 378.268 152.454 378.709 153.244 379.478C154.096 380.311 154.443 381.236 154.4 382.424C154.327 384.604 152.654 386.231 150.221 386.225Z" fill="#C02828"/>
<path d="M235.725 36.7826C235.889 37.8042 235.296 38.6007 234.539 39.3912C233.711 40.2608 232.765 40.5679 231.588 40.5314C229.425 40.4645 227.84 38.768 227.789 36.4755C227.761 35.3262 228.227 34.5205 228.987 33.727C229.821 32.8605 230.764 32.5503 231.941 32.5868C234.104 32.6568 235.731 34.3563 235.725 36.7826Z" fill="#C02828"/>
<path d="M170.665 60.7349C169.692 60.367 168.666 60.2575 167.869 59.5704C167.045 58.862 166.811 57.807 166.674 56.8553C166.531 55.8672 167.018 54.876 167.657 54.0673C168.368 53.1673 169.485 53.0062 170.513 52.766C171.051 52.6444 172.84 53.4349 173.29 53.8362C174.102 54.5598 174.346 55.6027 174.486 56.5574C174.629 57.5425 174.133 58.5336 173.503 59.3454C172.791 60.2515 171.629 60.2819 170.665 60.7349Z" fill="#C02828"/>
<path d="M252.218 426.948C251.232 426.519 250.083 426.467 249.365 425.568C248.723 424.762 248.251 423.765 248.376 422.783C248.504 421.831 248.759 420.791 249.559 420.058C249.979 419.672 251.819 418.86 252.33 418.982C253.359 419.222 254.472 419.383 255.193 420.274C255.838 421.074 256.312 422.074 256.185 423.056C256.057 424.008 255.807 425.057 254.998 425.777C254.207 426.477 253.17 426.562 252.218 426.948Z" fill="#C02828"/>
<path d="M67.3287 243.408C66.6747 242.614 66.0815 241.897 65.4823 241.173C65.8382 240.556 64.9165 240.17 65.2663 239.407C65.6222 238.638 65.6952 237.759 66.4648 237.206C66.8876 236.901 67.2983 236.245 67.6664 236.281C68.3173 236.345 68.731 235.719 69.4428 235.992C70.9577 236.57 70.9851 236.497 72.4786 237.99C72.7128 238.756 73.0079 239.294 73.0079 239.826C73.0049 240.361 72.7068 240.894 72.4665 241.651C70.2246 243.949 70.9759 243.451 67.3287 243.408Z" fill="#C02828"/>
<path d="M65.6864 221.484C65.4491 220.708 65.1571 220.173 65.1632 219.638C65.1632 219.106 65.4613 218.574 65.6986 217.832C65.9084 217.625 66.4043 217.306 66.6476 216.85C67.1921 215.825 68.3602 216.285 69.069 215.71C69.7777 216.279 70.9367 215.829 71.4964 216.829C71.7519 217.282 72.2934 217.565 72.6006 217.999C72.8957 218.407 72.5823 218.966 72.9382 219.486C73.1603 219.808 72.9322 220.623 72.6523 221.055C72.0348 222.016 71.4295 223.159 70.1123 223.217C69.6195 223.241 69.3792 223.788 68.7009 223.496C67.2225 222.858 67.1708 222.973 65.6864 221.484Z" fill="#C02828"/>
<path d="M208.01 36.5121C208.013 34.2804 209.391 32.9548 211.703 32.9639C213.915 32.97 215.217 34.3625 215.207 36.7006C215.198 38.8288 213.814 40.1575 211.603 40.1575C209.346 40.1575 208.004 38.8015 208.01 36.5121Z" fill="#C02828"/>
<path d="M69.0901 202.761C66.8178 202.761 65.4794 201.414 65.4824 199.125C65.4855 196.887 66.8604 195.558 69.1631 195.564C71.3076 195.571 72.6795 196.951 72.6826 199.113C72.6856 201.402 71.3502 202.761 69.0901 202.761Z" fill="#C02828"/>
<path d="M235.363 422.995C235.36 425.212 233.973 426.492 231.649 426.531C230.651 426.549 229.884 426.239 229.173 425.564C228.342 424.78 228.123 423.852 228.154 422.755C228.208 420.657 229.586 419.319 231.792 419.322C234.04 419.325 235.369 420.693 235.363 422.995Z" fill="#C02828"/>
<path d="M85.6385 137.982C85.6506 135.669 87.0834 134.389 89.4652 134.41C91.5306 134.425 92.8447 135.863 92.8386 138.098C92.8325 140.311 91.4394 141.579 89.1032 141.622C88.1024 141.64 87.345 141.309 86.6301 140.64C85.7967 139.855 85.5198 138.922 85.6385 137.982Z" fill="#C02828"/>
<path d="M69.127 256.719C71.3628 256.725 72.689 258.1 72.683 260.404C72.6769 262.621 71.2837 263.889 68.9506 263.934C67.9528 263.949 67.1832 263.636 66.4836 262.952C65.7262 262.213 65.4402 261.374 65.4676 260.319C65.5224 258.057 66.8365 256.716 69.127 256.719Z" fill="#C02828"/>
<path d="M89.2549 317.876C91.15 317.883 92.8747 319.394 92.8322 321.534C92.7896 323.541 91.2047 325.167 89.1332 325.055C87.0069 324.933 85.7202 323.559 85.6533 321.504C85.5864 319.439 87.2716 317.876 89.2549 317.876Z" fill="#C02828"/>
<path d="M166.981 402.753C166.994 400.84 168.515 399.134 170.647 399.183C172.664 399.229 174.279 400.819 174.16 402.883C174.036 405.021 172.648 406.298 170.601 406.358C168.578 406.419 166.981 404.774 166.981 402.753Z" fill="#C02828"/>
<path d="M72.7137 178.991C72.1965 179.843 72.227 180.892 71.4178 181.561C70.6939 182.153 69.7813 182.245 68.9782 182.613C68.1995 182.074 67.0466 182.156 66.5021 181.266C66.0763 180.563 65.4861 179.724 65.5683 179.013C65.6717 178.149 65.9485 177.149 66.7546 176.477C67.4695 175.875 68.3851 175.79 69.1881 175.419C69.9668 175.957 71.1167 175.881 71.6642 176.766C72.0962 177.465 72.376 178.259 72.7137 178.991Z" fill="#C02828"/>
<path d="M133.533 77.1867C133.049 78.0563 133.046 79.0961 132.234 79.7589C131.513 80.3518 130.603 80.443 129.797 80.8109C129.012 80.2758 127.954 80.2788 127.297 79.4731C126.746 78.7951 126.728 77.9103 126.308 77.1867C126.764 76.3658 126.774 75.329 127.583 74.6632C128.307 74.0734 129.216 73.9821 130.022 73.6143C130.804 74.1463 131.945 74.0855 132.492 74.9672C132.924 75.6665 133.201 76.4631 133.533 77.1867Z" fill="#C02828"/>
<path d="M109.83 100.595C107.549 100.601 106.515 99.6005 106.515 97.3871C106.512 95.1645 107.555 94.1187 109.769 94.1187C111.914 94.1187 112.982 95.1554 112.994 97.2351C113.003 99.5458 112.02 100.586 109.83 100.595Z" fill="#C02828"/>
<path d="M211.25 426.157C209.045 426.157 208.007 425.108 208.01 422.874C208.013 420.669 209.051 419.672 211.338 419.684C213.461 419.687 214.483 420.727 214.489 422.874C214.493 425.108 213.458 426.157 211.25 426.157Z" fill="#C02828"/>
<path d="M194.334 36.6277C194.313 38.3638 192.773 39.8262 190.982 39.7988C189.275 39.7715 187.818 38.1935 187.855 36.4027C187.885 34.7913 189.446 33.3167 191.116 33.3228C192.871 33.3289 194.352 34.8491 194.334 36.6277Z" fill="#C02828"/>
<path d="M71.9652 280.413C71.9773 282.185 70.4929 283.699 68.7316 283.699C67.0677 283.702 65.5133 282.222 65.4829 280.604C65.4525 278.807 66.9004 277.248 68.6282 277.226C70.4077 277.199 71.9469 278.671 71.9652 280.413Z" fill="#C02828"/>
<path d="M153.661 56.7549C153.621 58.2022 151.726 60.0173 150.333 59.9413C148.888 59.8713 147.09 57.9407 147.185 56.5695C147.279 55.1952 149.086 53.4683 150.427 53.4683C151.866 53.4713 153.707 55.3381 153.661 56.7549Z" fill="#C02828"/>
<path d="M129.986 385.507C128.584 385.571 126.701 383.759 126.67 382.302C126.64 380.974 128.349 379.15 129.74 379.031C131.096 378.912 133.058 380.706 133.15 382.144C133.238 383.528 131.44 385.443 129.986 385.507Z" fill="#C02828"/>
<path d="M112.994 362.115C113 363.568 111.159 365.395 109.718 365.362C108.364 365.331 106.588 363.592 106.515 362.221C106.438 360.834 108.251 358.934 109.696 358.886C111.108 358.84 112.988 360.676 112.994 362.115Z" fill="#C02828"/>
<path d="M92.1112 116.742C92.1112 117.429 92.1112 118.268 92.1112 119.089C91.5546 119.633 91.0009 120.178 90.4382 120.728C89.629 120.728 88.7956 120.728 87.9682 120.728C87.448 120.208 86.94 119.703 86.3955 119.156C86.3955 118.366 86.3955 117.539 86.3955 116.769C86.9522 116.216 87.4997 115.675 88.172 115.003C88.7682 115.003 89.6017 115.003 90.5173 115.003C90.9918 115.52 91.515 116.091 92.1112 116.742Z" fill="#C02828"/>
<path d="M69.0385 155.635C70.7694 155.617 71.9648 156.793 71.9648 158.511C71.9648 160.162 70.815 161.363 69.218 161.39C67.4385 161.421 66.2248 160.296 66.2065 158.602C66.1792 156.833 67.3107 155.647 69.0385 155.635Z" fill="#C02828"/>
<path d="M191.082 420.04C192.804 420.034 193.984 421.223 193.975 422.953C193.963 424.601 192.819 425.774 191.198 425.796C189.427 425.823 188.235 424.695 188.214 422.977C188.195 421.247 189.366 420.046 191.082 420.04Z" fill="#C02828"/>
<path d="M71.6025 300.881C71.6603 302.103 70.0207 303.815 68.7614 303.845C67.6237 303.876 65.9477 302.322 65.8442 301.142C65.7347 299.935 67.3226 298.175 68.5941 298.09C69.8139 298.008 71.5417 299.613 71.6025 300.881Z" fill="#C02828"/>
<path d="M92.1174 341.531C92.1752 342.753 90.5417 344.462 89.2823 344.495C88.1477 344.526 86.4655 342.975 86.3621 341.795C86.2496 340.591 87.8374 338.825 89.1059 338.743C90.3257 338.661 92.0535 340.26 92.1174 341.531Z" fill="#C02828"/>
<path d="M150.379 405.653C149.12 405.617 147.48 403.902 147.547 402.686C147.611 401.412 149.339 399.815 150.558 399.898C151.745 399.977 153.287 401.615 153.308 402.777C153.33 404.039 151.447 405.781 150.379 405.653Z" fill="#C02828"/>
<path d="M173.458 36.588C173.433 37.8254 172.071 39.1297 170.866 39.078C169.619 39.0233 168.281 37.643 168.436 36.4451C168.603 35.165 169.561 34.1739 170.924 34.0462C171.894 33.961 173.455 35.1863 173.458 36.588Z" fill="#C02828"/>
<mask id="mask0_28_29" style="mask-type:luminance" maskUnits="userSpaceOnUse" x="228" y="13" width="7" height="6">
<path d="M228.945 13.3198H234.396V18.68H228.945V13.3198Z" fill="white"/>
</mask>
<g mask="url(#mask0_28_29)">
<path d="M234.283 16.0561C233.775 16.5456 234.058 17.3756 233.416 17.8712C232.884 18.2816 232.206 18.1631 231.719 18.5735C231.196 18.1327 230.311 18.3576 229.952 17.6492C229.678 17.105 229.279 16.5182 229.301 15.9679C229.322 15.4145 229.69 14.7669 230.101 14.3626C230.514 13.9551 231.211 13.5325 231.71 13.6085C232.245 13.6967 232.884 13.8305 233.413 14.2409C234.058 14.7365 233.775 15.5635 234.283 16.0561Z" fill="#C02828"/>
</g>
<path d="M107.601 78.0255C107.601 77.5269 107.601 76.934 107.601 76.2955C108.011 75.9185 108.446 75.5142 108.942 75.0581C109.435 75.0581 110.031 75.0581 110.67 75.0581C111.047 75.4686 111.449 75.9064 111.905 76.3959C111.905 76.8945 111.905 77.4874 111.905 78.1259C111.497 78.5029 111.059 78.9072 110.566 79.3603C110.071 79.3603 109.477 79.3603 108.836 79.3603C108.458 78.9529 108.057 78.515 107.601 78.0255Z" fill="#C02828"/>
<path d="M66.9248 138.703C66.9248 138.265 66.9248 137.727 66.9248 137.137C67.3385 136.772 67.7796 136.383 68.3575 135.875C68.7195 135.875 69.3096 135.875 69.9789 135.875C70.3165 136.259 70.7089 136.706 71.2169 137.283C71.2169 137.645 71.2169 138.232 71.2169 138.901C70.8306 139.241 70.3865 139.63 69.8085 140.138C69.4465 140.138 68.8564 140.138 68.1872 140.138C67.8495 139.752 67.4602 139.311 66.9248 138.703Z" fill="#C02828"/>
<mask id="mask1_28_29" style="mask-type:luminance" maskUnits="userSpaceOnUse" x="46" y="217" width="6" height="5">
<path d="M46.4072 217.157H51.3959V221.827H46.4072V217.157Z" fill="white"/>
</mask>
<g mask="url(#mask1_28_29)">
<path d="M50.7265 219.669C50.7143 220.788 49.7349 221.818 48.5668 221.821C47.4474 221.821 46.4162 220.833 46.4131 219.666C46.407 218.55 47.4017 217.516 48.5698 217.513C49.6892 217.513 50.7083 218.501 50.7265 219.669Z" fill="#C02828"/>
</g>
<mask id="mask2_28_29" style="mask-type:luminance" maskUnits="userSpaceOnUse" x="46" y="237" width="6" height="6">
<path d="M46.4072 237.394H51.3959V242.064H46.4072V237.394Z" fill="white"/>
</mask>
<g mask="url(#mask2_28_29)">
<path d="M48.5698 237.652C49.6406 237.665 50.7174 238.601 50.7235 239.814C50.7326 240.884 49.7775 241.961 48.5668 241.967C47.4961 241.976 46.4192 241.021 46.4132 239.811C46.404 238.741 47.3561 237.677 48.5698 237.652Z" fill="#C02828"/>
</g>
<path d="M170.577 425.078C169.461 425.066 168.426 424.087 168.423 422.916C168.423 421.8 169.412 420.767 170.58 420.764C171.699 420.764 172.734 421.752 172.737 422.922C172.737 424.038 171.742 425.06 170.577 425.078Z" fill="#C02828"/>
<mask id="mask3_28_29" style="mask-type:luminance" maskUnits="userSpaceOnUse" x="208" y="13" width="7" height="6">
<path d="M208.698 13.3198H214.149V18.68H208.698V13.3198Z" fill="white"/>
</mask>
<g mask="url(#mask3_28_29)">
<path d="M213.769 16.0684C213.395 17.0748 212.759 17.8318 211.676 18.2028C210.572 17.9565 209.887 17.1782 209.449 16.1292C209.753 14.9982 210.505 14.2928 211.582 13.8945C212.695 14.232 213.404 14.9769 213.769 16.0684Z" fill="#C02828"/>
</g>
<mask id="mask4_28_29" style="mask-type:luminance" maskUnits="userSpaceOnUse" x="46" y="196" width="6" height="6">
<path d="M46.4072 196.92H51.3959V201.59H46.4072V196.92Z" fill="white"/>
</mask>
<g mask="url(#mask4_28_29)">
<path d="M48.5974 197.002C49.6134 197.37 50.3373 198.042 50.7206 199.082C50.4073 200.164 49.7411 200.949 48.5 201.286C47.4871 201.022 46.8118 200.244 46.4072 199.176C46.7692 198.082 47.4841 197.34 48.5974 197.002Z" fill="#C02828"/>
</g>
<path d="M66.5625 321.097C67.3199 319.731 67.3199 319.731 68.6036 318.953C69.7656 319.212 70.4439 319.993 70.882 321.036C70.5778 322.17 69.8295 322.875 68.7527 323.27C67.6363 322.933 66.9245 322.191 66.5625 321.097Z" fill="#C02828"/>
<path d="M89.255 99.5303C88.09 99.132 87.4542 98.375 87.0801 97.3686C87.4421 96.2771 88.1539 95.5352 89.2672 95.1978C90.2862 95.5626 91.0072 96.2345 91.3935 97.2743C91.1227 98.3963 90.3592 99.0955 89.255 99.5303Z" fill="#C02828"/>
<path d="M127.747 56.6914C128.127 55.688 128.757 54.9279 129.843 54.5601C130.95 54.8033 131.632 55.5847 132.067 56.6306C131.762 57.7646 131.014 58.467 129.937 58.8653C128.827 58.5278 128.112 57.7859 127.747 56.6914Z" fill="#C02828"/>
<mask id="mask5_28_29" style="mask-type:luminance" maskUnits="userSpaceOnUse" x="228" y="440" width="7" height="6">
<path d="M228.945 440.542H234.396V445.735H228.945V440.542Z" fill="white"/>
</mask>
<g mask="url(#mask5_28_29)">
<path d="M231.759 445.604C230.372 444.822 230.372 444.822 229.605 443.515C230.305 442.068 230.305 442.068 231.719 441.268C232.708 441.551 233.407 442.168 233.785 443.12C233.858 443.299 233.854 443.548 233.785 443.728C233.456 444.637 232.762 445.202 231.759 445.604Z" fill="#C02828"/>
</g>
<path d="M49.5369 258.58C49.7529 258.805 50.0358 259.106 50.3522 259.437C50.3522 259.981 50.3522 260.568 50.3522 261.27C50.0967 261.465 49.7681 261.714 49.2784 262.085C48.889 262.085 48.2533 262.085 47.6388 262.085C47.365 261.812 47.1095 261.559 46.8145 261.261C46.8145 260.674 46.8145 260.036 46.8145 259.373C47.0396 259.145 47.292 258.893 47.6084 258.58C48.1742 258.58 48.813 258.58 49.5369 258.58Z" fill="#C02828"/>
<path d="M110.479 384.054C110.01 384.054 109.42 384.054 108.842 384.054C108.58 383.795 108.325 383.543 108.015 383.227C108.015 382.658 108.015 382.02 108.015 381.302C108.246 381.086 108.547 380.804 108.891 380.484C109.417 380.484 110.004 380.484 110.695 380.484C110.907 380.74 111.169 381.056 111.546 381.509C111.473 382.266 111.92 383.348 110.479 384.054Z" fill="#C02828"/>
<mask id="mask6_28_29" style="mask-type:luminance" maskUnits="userSpaceOnUse" x="46" y="176" width="5" height="6">
<path d="M46.4072 176.684H50.6172V181.354H46.4072V176.684Z" fill="white"/>
</mask>
<g mask="url(#mask6_28_29)">
<path d="M50.3096 178.42C50.7416 179.633 49.7378 180.104 49.1629 180.755C47.9522 181.186 47.4837 180.186 46.8267 179.614C46.3947 178.398 47.3986 177.93 47.9674 177.276C49.1841 176.845 49.6526 177.848 50.3096 178.42Z" fill="#C02828"/>
</g>
<path d="M131.814 402.32C131.695 402.767 131.689 403.214 131.473 403.512C131.169 403.923 130.758 404.315 130.305 404.549C129.779 404.826 128.462 404.053 128.158 403.342C128.051 403.09 128.005 402.691 128.133 402.482C128.453 401.94 128.894 401.466 129.201 401.074C130.524 400.603 130.993 401.609 131.814 402.32Z" fill="#C02828"/>
<path d="M88.6435 363.854C88.1021 363.242 87.0739 362.795 87.5089 361.531C88.1203 360.989 88.5644 359.959 89.8329 360.397C90.3713 361.008 91.4025 361.452 90.9675 362.719C90.3561 363.258 89.9089 364.288 88.6435 363.854Z" fill="#C02828"/>
<path d="M50.0086 280.553C49.9964 281.793 49.8626 281.912 48.5211 281.899C47.2435 281.893 47.1005 281.732 47.1279 280.285C47.1492 279.169 47.353 279.005 48.7006 279.023C49.9052 279.041 50.0208 279.181 50.0086 280.553Z" fill="#C02828"/>
<path d="M151.866 36.6185C151.851 37.9562 151.805 38.0049 150.409 38.0018C149.095 37.9958 148.961 37.8498 148.985 36.4117C149.001 35.2381 149.162 35.1043 150.528 35.1226C151.766 35.1347 151.875 35.2594 151.866 36.6185Z" fill="#C02828"/>
<path d="M211.235 441.985C212.631 441.982 212.68 442.025 212.689 443.363C212.701 444.728 212.592 444.85 211.353 444.862C209.912 444.88 209.805 444.777 209.811 443.393C209.814 442.131 209.96 441.989 211.235 441.985Z" fill="#C02828"/>
<path d="M192.533 16.0531C192.533 16.8041 191.885 17.476 191.143 17.4943C190.279 17.5156 189.616 16.8284 189.655 15.968C189.689 15.2231 190.37 14.5998 191.134 14.6181C191.879 14.6302 192.533 15.3022 192.533 16.0531Z" fill="#C02828"/>
<path d="M67.6914 118.448C67.9439 117.974 68.2359 117.609 68.3424 117.198C68.5158 116.557 68.9082 116.341 69.4922 116.435C69.8998 116.499 70.4808 117.265 70.5234 117.688C70.5782 118.244 70.1584 119.129 69.6473 119.248C69.1758 119.354 68.607 119.5 68.2055 118.971C68.0625 118.785 67.877 118.633 67.6914 118.448Z" fill="#C02828"/>
</svg>
