<svg width="172" height="242" viewBox="0 0 172 242" fill="none" xmlns="http://www.w3.org/2000/svg">
<path d="M26.384 120.674C24.8964 120.757 23.7034 120.175 22.6722 119.127C21.5753 118.011 21.2166 116.682 21.2855 115.157C21.3496 113.775 21.942 112.699 22.9156 111.763C24.0173 110.704 25.3304 110.376 26.8195 110.443C28.2031 110.504 29.2823 111.098 30.2191 112.07C31.2791 113.172 31.6074 114.482 31.5401 115.97C31.4793 117.315 30.9204 118.379 29.9773 119.298C28.9717 120.279 27.7915 120.763 26.384 120.674Z" fill="#C02828"/>
<path d="M15.801 120.674C14.3502 120.741 13.1541 120.202 12.1469 119.199C11.0868 118.14 10.6305 116.867 10.6737 115.363C10.7121 113.994 11.2181 112.867 12.1661 111.913C13.2229 110.85 14.4992 110.399 16.0044 110.44C17.3767 110.479 18.5008 110.986 19.4583 111.929C20.5536 113.014 20.994 114.325 20.9299 115.859C20.8755 117.192 20.3679 118.291 19.4407 119.215C18.4335 120.216 17.2342 120.751 15.801 120.674Z" fill="#C02828"/>
<path d="M26.3778 131.272C23.7677 131.451 21.1432 128.974 21.2617 125.938C21.353 123.535 23.5547 120.903 26.6388 121.018C29.0439 121.106 31.6764 123.308 31.5644 126.387C31.4747 128.849 29.2169 131.461 26.3778 131.272Z" fill="#C02828"/>
<path d="M15.5366 121.035C17.242 121.038 18.4622 121.533 19.4614 122.536C20.5166 123.593 20.9714 124.88 20.9234 126.371C20.8801 127.724 20.3821 128.87 19.4326 129.816C18.3773 130.872 17.0851 131.325 15.5943 131.277C14.2396 131.235 13.0931 130.736 12.1435 129.788C11.0883 128.732 10.6351 127.443 10.6831 125.954C10.7248 124.6 11.2276 123.46 12.1707 122.507C13.1731 121.493 14.4077 121.042 15.5366 121.035Z" fill="#C02828"/>
<path d="M42.2463 115.589C42.155 116.507 41.9468 117.384 41.5033 118.203C41.1974 118.767 40.7555 119.214 40.2719 119.565C39.7386 119.956 39.0917 120.205 38.4656 120.444C38.0541 120.602 37.5481 120.376 37.1414 120.674C36.7955 120.234 36.2783 120.573 35.8379 120.394C35.3255 120.184 34.8435 119.903 34.3183 119.722C34.2094 119.684 34.1245 119.573 34.0381 119.489C33.7226 119.178 33.3687 118.897 33.1109 118.545C32.8755 118.22 32.7394 117.82 32.5649 117.451C32.4672 117.24 32.3487 117.029 32.3055 116.803C32.2254 116.392 32.3983 115.939 32.0957 115.565C32.504 115.178 32.2158 114.644 32.3935 114.177C32.6033 113.628 32.8355 113.083 33.1237 112.59C33.3863 112.144 33.8107 111.745 34.2494 111.459C34.7554 111.131 35.3543 110.942 35.9196 110.707C36.3375 110.533 36.8451 110.789 37.2358 110.455C37.7947 110.79 38.4816 110.57 39.0485 110.872C39.4632 111.091 39.9148 111.266 40.2783 111.552C40.6882 111.878 41.0837 112.265 41.3639 112.705C41.6906 113.214 41.934 113.793 42.1214 114.37C42.2479 114.757 42.2126 115.196 42.2463 115.589Z" fill="#C02828"/>
<path d="M26.4572 99.7534C27.49 99.7854 28.5084 100.07 29.3459 100.657C30.0761 101.171 30.6317 101.897 31.008 102.784C31.2979 103.464 31.2066 104.195 31.5285 104.838C31.0993 105.19 31.4324 105.704 31.2482 106.14C31.0321 106.651 30.8255 107.169 30.5629 107.652C30.3771 107.996 30.0249 108.252 29.7446 108.543C29.6133 108.68 29.4964 108.848 29.3363 108.931C28.9232 109.146 28.4924 109.328 28.0601 109.504C27.8455 109.59 27.6117 109.67 27.3827 109.688C27.0208 109.715 26.6526 109.67 26.3275 109.886C25.7286 109.528 24.9648 109.779 24.3771 109.328C24.0328 109.066 23.5781 108.943 23.2354 108.679C22.8671 108.394 22.5052 108.058 22.2618 107.668C21.9416 107.153 21.6822 106.58 21.506 106C21.3875 105.609 21.5733 105.144 21.2979 104.76C21.6726 104.386 21.3619 103.874 21.5653 103.453C21.8215 102.932 21.9608 102.346 22.2634 101.855C22.5052 101.465 22.8991 101.159 23.253 100.847C23.4484 100.675 23.6902 100.544 23.9288 100.428C24.3467 100.224 24.7646 99.9933 25.2082 99.8718C25.6053 99.763 26.0377 99.7886 26.4572 99.7534Z" fill="#C02828"/>
<path d="M20.7136 104.771C20.8561 106.24 20.27 107.375 19.3381 108.324C18.2636 109.418 16.9169 109.792 15.3781 109.717C14.1259 109.656 13.1203 109.148 12.27 108.324C11.1683 107.255 10.7856 105.915 10.8544 104.376C10.9105 103.124 11.4181 102.121 12.2347 101.264C13.322 100.123 14.7007 99.7409 16.2748 99.8336C17.0242 99.8752 17.6727 100.11 18.3004 100.435C19.0947 100.843 19.7224 101.472 20.1531 102.255C20.5919 103.055 20.8817 103.904 20.7136 104.771Z" fill="#C02828"/>
<path d="M42.1281 126.19C42.2947 127.577 41.7022 128.711 40.7846 129.671C39.723 130.781 38.3875 131.176 36.8391 131.106C35.5532 131.048 34.5204 130.532 33.6509 129.681C32.5524 128.606 32.1841 127.259 32.2658 125.719C32.3331 124.471 32.8471 123.466 33.6749 122.62C34.7478 121.526 36.0913 121.147 37.6333 121.221C38.8839 121.282 39.8991 121.782 40.7382 122.614C41.7086 123.574 42.2818 124.752 42.1281 126.19Z" fill="#C02828"/>
<path d="M26.353 141.87C23.807 142.048 21.2577 139.626 21.4595 136.721C21.5492 135.419 21.9911 134.321 22.8606 133.433C23.8646 132.409 25.136 131.969 26.6156 132.008C27.9639 132.041 29.0832 132.545 29.9815 133.45C30.9919 134.469 31.3762 135.749 31.3634 137.22C31.3458 139.577 29.088 142.094 26.353 141.87Z" fill="#C02828"/>
<path d="M4.99708 120.48C3.56713 120.579 2.39179 119.994 1.48226 119.088C0.494268 118.103 -0.00373159 116.83 0.0555159 115.344C0.108359 114.039 0.62077 112.935 1.46144 112.067C2.21725 111.284 3.36858 110.537 5.29492 110.627C6.56474 110.683 7.65522 111.18 8.49109 112.007C9.5063 113.015 10.0155 114.317 9.94826 115.832C9.89221 117.135 9.383 118.252 8.5135 119.095C7.57035 120.01 6.37099 120.622 4.99708 120.48Z" fill="#C02828"/>
<path d="M20.7246 136.983C20.8175 138.409 20.2298 139.583 19.3139 140.485C18.3451 141.437 17.1009 141.93 15.6518 141.891C14.3083 141.858 13.1602 141.357 12.2811 140.473C11.2963 139.484 10.7951 138.213 10.8543 136.728C10.9072 135.423 11.4116 134.305 12.2618 133.449C13.2691 132.432 14.5773 131.933 16.0953 132.01C17.3667 132.072 18.4572 132.569 19.2899 133.396C20.2523 134.348 20.8672 135.575 20.7246 136.983Z" fill="#C02828"/>
<path d="M9.94717 125.839C9.95677 127.601 9.38352 128.739 8.37951 129.708C7.3691 130.684 6.19536 131.143 4.78622 131.092C3.40111 131.044 2.31384 130.45 1.3899 129.465C0.459551 128.47 0.0175964 127.318 0.0672364 125.944C0.120079 124.562 0.710953 123.475 1.69895 122.553C2.69334 121.622 3.84947 121.181 5.22177 121.234C6.56685 121.283 7.63171 121.848 8.55405 122.792C9.48119 123.743 9.99841 124.844 9.94717 125.839Z" fill="#C02828"/>
<path d="M42.1371 105.187C42.0603 106.152 41.6167 107.321 40.6383 108.261C39.6696 109.192 38.5214 109.706 37.1684 109.695C35.8153 109.682 34.6672 109.16 33.724 108.197C32.7856 107.236 32.278 106.084 32.2892 104.733C32.3021 103.381 32.8257 102.234 33.7864 101.292C34.7488 100.355 35.9017 99.8463 37.2564 99.8591C38.6079 99.8719 39.7512 100.4 40.7008 101.353C41.6199 102.274 42.1388 103.527 42.1371 105.187Z" fill="#C02828"/>
<path d="M42.1392 136.909C42.0111 139.767 40.0479 141.819 37.2537 141.839C34.3922 141.858 32.3377 139.782 32.3185 136.99C32.2993 134.132 34.3777 132.08 37.172 132.061C40.0319 132.041 41.9678 134.119 42.1392 136.909Z" fill="#C02828"/>
<path d="M4.99594 99.8511C6.28338 99.9422 7.47954 100.393 8.41949 101.308C9.36265 102.226 9.88627 103.426 9.90869 104.736C9.9295 106.056 9.38827 107.249 8.47554 108.188C7.558 109.131 6.35704 109.653 5.04398 109.674C3.72292 109.696 2.52836 109.157 1.59001 108.245C0.64525 107.329 0.12163 106.128 0.0992123 104.816C0.0783957 103.496 0.61963 102.303 1.53236 101.366C2.4499 100.422 3.65407 99.9822 4.99594 99.8511Z" fill="#C02828"/>
<path d="M9.94046 136.863C9.66825 137.635 9.7307 138.441 9.35439 139.132C8.91724 139.937 8.28153 140.594 7.54334 141.084C7.08057 141.389 6.51852 141.62 5.90843 141.693C2.44485 142.112 0.576147 139.871 0.283113 137.849C-0.216488 134.399 2.08296 132.558 4.10538 132.25C4.52652 132.186 5.0053 131.845 5.45687 132.219C5.95807 132.13 6.42404 132.307 6.85959 132.485C7.29514 132.661 7.75631 132.849 8.04614 133.27C8.63382 133.345 8.68186 133.955 9.01652 134.281C9.34319 134.594 9.38802 135.15 9.6106 135.527C9.88602 135.994 9.43126 136.559 9.94046 136.863Z" fill="#C02828"/>
<path d="M26.4235 89.4482C27.3314 89.4482 27.8919 89.5298 28.345 89.7713C29.6357 90.4591 30.6092 91.4316 31.0576 92.8616C31.1088 93.0296 31.1393 93.2119 31.1441 93.3894C31.1585 93.7653 31.12 94.1476 31.1553 94.5203C31.245 95.48 30.867 96.3006 30.2938 96.9899C29.6196 97.8041 28.8478 98.5527 27.7493 98.8038C27.5764 98.8438 27.4019 98.8966 27.2257 98.9046C26.8494 98.9206 26.4683 98.8774 26.0936 98.9174C25.1328 99.0133 24.305 98.6358 23.6164 98.0696C22.803 97.401 22.036 96.6397 21.799 95.5328C21.7621 95.3584 21.6901 95.1889 21.6821 95.0161C21.6645 94.6387 21.7125 94.2564 21.6693 93.8837C21.5556 92.9192 21.9431 92.0906 22.5035 91.4028C23.1681 90.5903 23.9399 89.8721 25.032 89.557C25.5428 89.4099 26.0168 89.5554 26.4235 89.4482Z" fill="#C02828"/>
<path d="M47.8991 121.43C49.0745 121.43 49.0745 121.43 49.8191 121.809C51.1033 122.462 52.0272 123.514 52.4612 124.84C52.5252 125.035 52.5701 125.256 52.5524 125.459C52.4852 126.189 52.6725 126.915 52.3971 127.657C52.1841 128.23 51.9055 128.735 51.518 129.177C51.1145 129.637 50.6821 130.08 50.1345 130.384C49.6381 130.658 49.1369 130.906 48.5508 130.896C48.2034 130.886 47.8527 130.863 47.5116 130.899C46.546 131.01 45.7198 130.616 45.0312 130.056C44.2178 129.391 43.4379 128.639 43.2137 127.52C43.1769 127.348 43.1001 127.179 43.0921 127.006C43.0728 126.598 43.1193 126.186 43.0792 125.781C42.9864 124.813 43.4091 124.02 43.9728 123.322C44.3491 122.855 44.7942 122.428 45.3306 122.084C45.9616 121.678 46.5861 121.411 47.3323 121.43C47.5212 121.433 47.7086 121.43 47.8991 121.43Z" fill="#C02828"/>
<path d="M43.0854 115.352C43.0678 114.858 43.0549 114.226 43.3944 113.642C44.1086 112.42 44.9781 111.395 46.416 110.974C46.6162 110.917 46.8052 110.838 47.0149 110.834C47.4265 110.829 47.8364 110.858 48.2447 110.827C49.2823 110.75 50.0958 111.242 50.834 111.87C51.2984 112.265 51.7371 112.702 52.0446 113.249C52.3216 113.743 52.5714 114.242 52.5602 114.829C52.5538 115.176 52.5265 115.527 52.5666 115.867C52.6739 116.83 52.2928 117.659 51.7275 118.347C51.0582 119.158 50.3008 119.917 49.1927 120.186C49.0245 120.226 48.8516 120.288 48.6755 120.293C48.2655 120.303 47.8524 120.264 47.4473 120.301C46.4801 120.394 45.6827 119.981 44.9861 119.417C44.5201 119.039 44.0926 118.593 43.7451 118.06C43.3144 117.401 43.0565 116.745 43.0854 115.968C43.0902 115.811 43.0854 115.655 43.0854 115.352Z" fill="#C02828"/>
<path d="M20.5395 94.2514C20.6933 96.6507 18.357 99.1507 15.5643 98.9252C14.2993 98.8244 13.2601 98.3893 12.373 97.4856C11.4026 96.4939 11.0231 95.3295 11.0567 93.9635C11.0888 92.6855 11.582 91.665 12.4771 90.7693C13.4859 89.7584 14.69 89.3857 16.0896 89.4385C17.329 89.4864 18.3394 89.9599 19.1945 90.8412C20.16 91.8361 20.5395 92.7542 20.5395 94.2514Z" fill="#C02828"/>
<path d="M31.1508 147.619C31.1684 150.119 29.0147 152.31 26.3662 152.291C23.8586 152.272 21.5895 150.151 21.668 147.43C21.7048 146.167 22.1772 145.098 23.0355 144.223C23.9722 143.265 25.1364 142.798 26.5071 142.808C28.9779 142.827 31.2309 144.942 31.1508 147.619Z" fill="#C02828"/>
<path d="M11.0656 147.477C11.0464 144.977 13.2001 142.786 15.8503 142.805C18.3563 142.824 20.6253 144.947 20.5468 147.667C20.5116 148.929 20.0392 149.996 19.1809 150.874C18.2426 151.831 17.0785 152.298 15.7078 152.288C13.237 152.268 10.984 150.156 11.0656 147.477Z" fill="#C02828"/>
<path d="M52.5839 104.853C52.4926 106.093 52.0907 107.232 51.1828 108.126C50.2524 109.039 49.1091 109.508 47.7929 109.508C46.5054 109.508 45.3909 109.037 44.4878 108.148C43.5318 107.206 43.0579 106.029 43.0883 104.676C43.1171 103.399 43.5863 102.279 44.4974 101.397C45.431 100.49 46.5791 100.019 47.8986 100.048C49.1748 100.077 50.2957 100.531 51.1924 101.436C52.1147 102.367 52.5407 103.524 52.5839 104.853Z" fill="#C02828"/>
<path d="M41.9754 94.237C41.8857 95.491 41.4838 96.6283 40.5759 97.524C39.6471 98.4389 38.5038 98.9108 37.186 98.9076C35.9033 98.9044 34.784 98.4405 33.8809 97.5528C32.9249 96.6123 32.451 95.4366 32.4766 94.0818C32.5006 92.8006 32.9746 91.6874 33.8841 90.8012C34.816 89.8943 35.9642 89.4368 37.2852 89.4464C38.4157 89.4528 39.7832 90.0063 40.5807 90.8316C41.4934 91.7737 41.921 92.9238 41.9754 94.237Z" fill="#C02828"/>
<path d="M47.7771 141.68C45.0517 141.455 43.2327 139.678 43.103 136.926C43.0421 135.624 43.6266 134.444 44.5281 133.579C45.4264 132.718 46.5986 132.129 47.9148 132.232C50.5778 132.437 52.5458 134.204 52.5137 137.019C52.4865 139.69 50.5826 141.504 47.7771 141.68Z" fill="#C02828"/>
<path d="M9.74953 94.1425C9.52535 95.3917 9.49813 96.3562 8.00093 97.7286C7.13463 98.5252 6.08259 98.9074 4.99051 98.8707C3.78474 98.8291 2.82237 98.6691 1.44847 97.172C0.652629 96.3066 0.268321 95.2574 0.305151 94.1649C0.348386 92.9605 0.508514 92.0007 2.00572 90.6268C2.87201 89.8318 3.92406 89.4495 5.01613 89.4863C6.2235 89.5279 7.18267 89.6894 8.55818 91.1834C9.35882 92.0519 9.5814 93.0964 9.74953 94.1425Z" fill="#C02828"/>
<path d="M37.2484 152.469C34.5054 152.202 32.7984 150.568 32.4766 147.773C32.7408 145.033 34.3789 143.327 37.1763 143.004C39.9177 143.272 41.6263 144.906 41.9482 147.702C41.6824 150.442 40.0458 152.147 37.2484 152.469Z" fill="#C02828"/>
<path d="M4.84634 143.028C5.72384 142.965 6.39958 143.027 7.0433 143.379C8.23145 144.027 9.06412 144.954 9.47565 146.248C9.5285 146.418 9.54291 146.605 9.54771 146.784C9.55732 147.162 9.52049 147.544 9.55732 147.918C9.6518 148.888 9.24187 149.694 8.67021 150.386C8.07613 151.104 7.37637 151.725 6.39638 151.967C6.16259 152.024 5.93201 152.074 5.69502 152.085C5.34914 152.103 4.99846 152.063 4.65578 152.096C3.69021 152.191 2.87676 151.794 2.1802 151.228C1.45802 150.636 0.812699 149.948 0.598127 148.956C0.559696 148.768 0.460416 148.569 0.457213 148.36C0.452409 147.949 0.482834 147.538 0.450808 147.13C0.377149 146.165 0.795085 145.369 1.36674 144.674C1.96402 143.95 2.69581 143.387 3.64377 143.105C4.11935 142.963 4.56611 143.092 4.84634 143.028Z" fill="#C02828"/>
<path d="M47.8936 89.6369C50.2763 89.5777 52.4108 91.7099 52.39 94.2243C52.3676 96.6236 50.2875 98.7973 47.703 98.7397C45.3859 98.6869 43.2082 96.6635 43.2546 94.0835C43.2979 91.7195 45.3651 89.5121 47.8936 89.6369Z" fill="#C02828"/>
<path d="M63.1691 115.595C63.2524 117.996 61.0954 120.176 58.5206 120.125C56.1683 120.079 54.0177 118.028 54.0562 115.485C54.093 113.108 56.1571 110.974 58.6759 111.003C61.0794 111.027 63.2732 113.1 63.1691 115.595Z" fill="#C02828"/>
<path d="M20.3611 83.3969C20.4332 85.7306 18.1578 87.9987 15.719 87.9507C13.4372 87.9059 11.2066 85.753 11.2386 83.3313C11.2674 81.0344 13.4324 78.7695 15.8375 78.8431C17.1121 78.8798 18.1418 79.3645 19.0321 80.2634C19.9064 81.1448 20.3275 82.1812 20.3611 83.3969Z" fill="#C02828"/>
<path d="M26.1649 87.9366C24.0432 87.9782 21.8238 85.7485 21.8478 83.3428C21.8687 81.0603 24.0384 78.7298 26.5316 78.8418C27.7742 78.8962 28.7734 79.3808 29.6349 80.2589C30.5252 81.1643 30.9848 82.2135 30.964 83.4868C30.9432 84.7632 30.4067 85.7805 29.5004 86.6602C28.6101 87.5223 27.5772 87.9638 26.1649 87.9366Z" fill="#C02828"/>
<path d="M63.1682 126.205C63.2322 128.514 60.9952 130.77 58.6029 130.715C57.3203 130.685 56.2938 130.197 55.4051 129.301C54.51 128.398 54.0729 127.345 54.0664 126.074C54.0552 123.801 56.2554 121.568 58.6862 121.603C60.9888 121.637 63.269 123.801 63.1682 126.205Z" fill="#C02828"/>
<path d="M47.7783 152.278C45.2338 152.142 43.2883 150.247 43.2979 147.717C43.3059 145.18 45.3187 143.169 47.9128 143.219C50.3612 143.267 52.3756 145.175 52.3451 147.804C52.3147 150.276 50.3836 152.19 47.7783 152.278Z" fill="#C02828"/>
<path d="M26.4179 162.895C25.3915 162.724 24.3602 162.527 23.5036 161.781C22.4627 160.878 21.9647 159.723 21.8863 158.397C21.8558 157.877 21.9855 157.317 22.1729 156.826C22.3602 156.341 22.5652 155.849 22.9463 155.443C23.494 154.86 24.0944 154.382 24.8582 154.118L26.3282 153.793C27.4411 153.893 28.4756 154.165 29.3563 154.923C30.4099 155.826 30.9191 157.002 30.9287 158.322C30.9351 159.419 30.5684 160.455 29.7854 161.332C28.8791 162.344 27.7229 162.711 26.4179 162.895Z" fill="#C02828"/>
<path d="M41.7581 83.4212C41.4347 86.1355 39.8942 87.6391 37.2073 87.9334C34.4883 87.6407 32.9094 86.0332 32.666 83.314C33.0119 80.6428 34.5427 79.1169 37.2649 78.8481C39.9679 79.1856 41.4795 80.7244 41.7581 83.4212Z" fill="#C02828"/>
<path d="M15.8185 153.793C18.5247 154.105 20.0443 155.634 20.3502 158.328C20.07 161.03 18.4735 162.626 15.7401 162.877C13.0483 162.538 11.5303 160.999 11.2549 158.298C11.5863 155.583 13.1348 154.081 15.8185 153.793Z" fill="#C02828"/>
<path d="M58.6052 109.319C55.8943 109.005 54.3778 107.471 54.0752 104.782C54.3586 102.079 55.9551 100.485 58.6869 100.233C61.3771 100.576 62.8951 102.111 63.1689 104.818C62.8374 107.529 61.2922 109.034 58.6052 109.319Z" fill="#C02828"/>
<path d="M63.1657 136.939C62.9383 138.136 62.6805 139.276 61.7661 140.165C60.879 141.031 59.7709 141.387 58.6244 141.45C57.8974 141.488 57.0888 141.277 56.4258 140.885C55.6668 140.437 55.0471 139.825 54.6356 139.012C54.2897 138.337 54.0928 137.584 54.1232 136.886C54.1552 136.157 54.2881 135.36 54.7205 134.7C55.2057 133.961 55.8093 133.371 56.6228 132.956C57.2809 132.622 57.9935 132.62 58.6644 132.408C59.8718 132.638 61.0343 132.929 61.9263 133.894C62.7429 134.775 62.9559 135.863 63.1657 136.939Z" fill="#C02828"/>
<path d="M9.36238 83.6336C9.59136 84.6829 8.95245 85.6362 8.25749 86.4103C7.55773 87.1925 6.60816 87.8051 5.42802 87.7443C5.23907 87.7363 5.04691 87.7203 4.86116 87.7475C3.67301 87.9235 2.71544 87.3205 1.94522 86.6103C1.19582 85.9209 0.595338 85.0044 0.644977 83.8623C0.654585 83.6432 0.670598 83.4192 0.641775 83.2017C0.489652 82.0149 1.09494 81.0584 1.81552 80.3018C2.5393 79.5436 3.48566 78.931 4.67381 79.035C4.89319 79.0542 5.11577 79.0542 5.33514 79.035C6.5233 78.931 7.47286 79.5436 8.19344 80.3034C8.91241 81.06 9.5225 82.0181 9.36398 83.2017C9.35117 83.2961 9.36238 83.3921 9.36238 83.6336Z" fill="#C02828"/>
<path d="M4.92644 162.688C2.8832 162.947 0.305127 160.569 0.6446 158.187C0.425224 156.22 2.74228 153.627 5.22428 153.983C7.09778 153.796 9.7319 156.029 9.362 158.627C9.51412 160.479 7.2435 162.997 4.92644 162.688Z" fill="#C02828"/>
<path d="M37.1561 162.688C35.092 162.953 32.4948 160.578 32.855 158.113C32.6677 156.219 34.9447 153.633 37.4107 153.983C39.3018 153.78 41.9407 156.037 41.5708 158.604C41.7358 160.477 39.4539 162.99 37.1561 162.688Z" fill="#C02828"/>
<path d="M63.0342 93.7858C62.9446 95.3965 62.5378 96.441 61.6811 97.2615C60.8052 98.0981 59.766 98.5811 58.5186 98.5331C57.3609 98.4883 56.3537 98.0725 55.553 97.2487C54.7059 96.3818 54.2432 95.3421 54.2592 94.0993C54.2752 92.8868 54.7604 91.8808 55.6011 91.0634C56.4417 90.2477 57.4714 89.835 58.6755 89.8094C59.5995 89.7886 60.3601 90.1805 61.0951 90.6043C61.5354 90.8539 61.9502 91.2633 62.2 91.7C62.6355 92.4646 63.1175 93.2531 63.0342 93.7858Z" fill="#C02828"/>
<path d="M52.1804 83.984C52.1468 84.627 51.7224 85.6635 50.8689 86.4841C50.0219 87.2998 49.0051 87.7557 47.7977 87.7477C46.5903 87.7413 45.5735 87.2758 44.744 86.4489C43.8825 85.5947 43.431 84.5359 43.4614 83.2962C43.4918 82.1334 43.929 81.1353 44.744 80.3307C45.6039 79.483 46.6496 79.0207 47.8938 79.0319C49.1075 79.0431 50.0923 79.5518 50.9394 80.3611C51.7032 81.0921 52.1804 82.3285 52.1804 83.984Z" fill="#C02828"/>
<path d="M62.997 147.99C62.8433 148.471 62.6912 149.17 62.3933 149.801C62.0459 150.541 61.3989 151.056 60.7344 151.519C60.4638 151.707 58.9362 152.117 58.6063 152.086C56.0186 151.837 54.4205 150.229 54.2876 147.649C54.2524 146.962 54.4894 146.234 54.8481 145.626C55.2564 144.932 55.8233 144.332 56.5583 143.961C57.2196 143.627 57.9498 143.335 58.6832 143.404C61.2436 143.644 62.752 145.22 62.997 147.99Z" fill="#C02828"/>
<path d="M47.8058 153.983C48.1389 153.982 49.6649 154.366 49.9339 154.553C50.6017 155.017 51.215 155.545 51.6041 156.268C51.9452 156.895 52.2014 157.605 52.1565 158.296C51.9884 160.855 50.4431 162.427 47.8827 162.667C47.1525 162.736 46.4191 162.445 45.7578 162.111C45.0228 161.739 44.504 161.116 44.0364 160.452C43.8474 160.185 43.4375 158.66 43.4695 158.328C43.7193 155.772 45.247 154.246 47.8058 153.983Z" fill="#C02828"/>
<path d="M69.3302 111.198C69.8618 111.483 70.5664 111.358 71.138 111.702C71.9931 112.216 72.6945 112.924 73.1701 113.772C73.4599 114.289 73.588 114.976 73.5544 115.573C73.5191 116.198 73.4375 116.883 73.106 117.449C72.608 118.305 71.9034 119.021 71.042 119.481C70.4927 119.775 69.7657 119.946 69.1556 119.871C68.5407 119.796 67.8618 119.783 67.2837 119.402C66.4751 118.873 65.7753 118.219 65.327 117.39C65.0291 116.841 64.861 116.126 64.9154 115.511C64.9731 114.893 65.0259 114.212 65.3798 113.641C65.9002 112.793 66.6032 112.088 67.4551 111.619C67.9755 111.333 68.656 111.337 69.3302 111.198Z" fill="#C02828"/>
<path d="M69.2583 130.437C68.3776 130.381 67.5418 130.217 66.8788 129.735C66.3184 129.327 65.8284 128.795 65.4521 128.174C65.0678 127.542 65.1655 126.794 64.874 126.147C65.2775 125.674 64.9285 125.042 65.2599 124.51C65.6683 123.855 66.0942 123.232 66.6947 122.758C67.0774 122.453 67.529 122.193 67.9917 122.034C68.4065 121.89 68.9061 122.086 69.3176 121.81C69.7211 122.235 70.3312 121.803 70.7748 122.179C71.1078 122.457 71.5562 122.6 71.8909 122.878C72.2447 123.171 72.5538 123.531 72.8228 123.905C73.0582 124.233 73.284 124.602 73.3801 124.988C73.4793 125.388 73.3384 125.839 73.5898 126.224C73.2519 126.851 73.3849 127.605 72.9685 128.236C72.6194 128.763 72.1903 129.199 71.7323 129.598C71.3897 129.897 70.9429 130.116 70.5057 130.26C70.091 130.399 69.6314 130.389 69.2583 130.437Z" fill="#C02828"/>
<path d="M26.4992 77.0805C25.5657 77.0069 24.7298 76.8486 24.0701 76.3639C23.5657 75.9944 23.1333 75.5018 22.7522 74.9564C22.2782 74.275 22.3599 73.4816 22.0557 72.7842C22.464 72.3747 22.1678 71.8133 22.3983 71.3223C22.7618 70.5513 23.2406 69.9163 23.8699 69.3933C24.2494 69.0813 24.7058 68.8318 25.1686 68.6671C25.5817 68.5183 26.0845 68.7263 26.4928 68.4399C26.8499 68.9022 27.4424 68.4064 27.8619 68.8014C28.1694 69.0893 28.6658 69.1709 28.9988 69.4396C29.3815 69.7451 29.7098 70.1322 30.0028 70.5289C30.2414 70.8536 30.464 71.2263 30.5601 71.6118C30.661 72.0117 30.5153 72.4643 30.7699 72.8482C30.3583 73.2049 30.749 73.7375 30.4752 74.1438C30.2334 74.5037 30.1213 74.9596 29.8523 75.2923C29.5257 75.7017 29.1221 76.06 28.7026 76.3783C28.3823 76.6215 28.006 76.8342 27.6201 76.9366C27.2214 77.0437 26.7618 76.855 26.4992 77.0805Z" fill="#C02828"/>
<path d="M20.1051 72.8978C19.9001 73.4784 19.9497 74.2446 19.5062 74.886C19.0642 75.5226 18.5486 76.0392 17.9129 76.4823C17.2676 76.9334 16.491 76.8454 15.8216 77.1445C15.4325 76.8118 14.9233 77.0789 14.5118 76.8918C13.7688 76.5511 13.0914 76.1288 12.5278 75.5082C12.1355 75.0731 11.9641 74.5357 11.6935 74.051C11.4821 73.6735 11.7544 73.1425 11.4453 72.7426C11.8456 72.2724 11.5542 71.6502 11.8504 71.1143C12.2315 70.4249 12.7167 69.8555 13.2916 69.3645C13.6407 69.0685 14.0922 68.8814 14.5198 68.6927C14.9297 68.5087 15.4373 68.7694 15.8312 68.4399C16.238 68.851 16.8048 68.5311 17.2948 68.7886C17.9786 69.1469 18.571 69.5708 19.1043 70.1178C19.4934 70.5145 19.6759 71.02 19.8777 71.4998C20.0442 71.8917 20.0266 72.3651 20.1051 72.8978Z" fill="#C02828"/>
<path d="M37.2646 68.6302C39.191 68.3566 41.6425 70.5288 41.4119 72.9888C41.3047 74.1133 40.9316 75.017 40.1725 75.7896C39.2982 76.6805 38.2286 77.0116 36.9716 76.9764C35.8667 76.946 35.0052 76.5014 34.2462 75.7832C33.3062 74.8955 33.0404 73.7886 33.0132 72.5042C32.9764 70.7639 34.9844 68.3407 37.2646 68.6302Z" fill="#C02828"/>
<path d="M69.377 108.941C67.4362 109.216 64.9911 107.03 65.22 104.589C65.3273 103.464 65.7004 102.558 66.4562 101.787C67.3289 100.899 68.3954 100.553 69.654 100.592C70.7589 100.625 71.622 101.065 72.3826 101.782C73.3225 102.665 73.5868 103.775 73.6188 105.056C73.6636 106.819 71.6364 109.226 69.377 108.941Z" fill="#C02828"/>
<path d="M69.2392 132.775C71.6651 132.787 73.4057 134.551 73.3977 137.009C73.3961 138.134 73.0166 139.122 72.2191 139.917C71.3721 140.763 70.3248 141.144 69.1239 141.114C66.858 141.058 65.0454 139.401 65.0646 136.891C65.0726 135.765 65.4521 134.78 66.2432 133.98C67.0646 133.153 68.0862 132.79 69.2392 132.775Z" fill="#C02828"/>
<path d="M30.5778 169.609C30.5377 170.294 30.2127 171.3 29.4008 172.093C28.5457 172.931 27.5049 173.317 26.3039 173.286C24.0365 173.23 22.2255 171.572 22.2463 169.062C22.2543 167.938 22.629 166.949 23.4264 166.153C24.2735 165.308 25.3207 164.927 26.5217 164.958C28.7891 165.017 30.597 166.676 30.5778 169.609Z" fill="#C02828"/>
<path d="M15.8219 164.963C17.0485 164.879 18.0141 165.434 18.7667 166.177C19.5497 166.951 19.9997 167.965 19.9901 169.158C19.9788 170.311 19.5305 171.293 18.7859 172.05C17.9884 172.859 16.9508 173.323 15.721 173.301C13.5705 173.259 11.5577 171.391 11.6185 168.995C11.6361 168.24 11.91 167.6 12.2174 166.97C12.5505 166.281 12.9748 165.879 13.6666 165.537C14.3567 165.196 15.0597 164.82 15.8219 164.963Z" fill="#C02828"/>
<path d="M9.17166 72.6773C9.17806 74.8622 7.27573 76.7832 4.97789 76.7768C2.77452 76.772 0.779319 74.8638 0.820953 72.5301C0.844972 71.3785 1.29013 70.398 2.04594 69.6462C2.85459 68.8448 3.89702 68.3906 5.12521 68.4274C7.25172 68.4897 9.24692 70.3228 9.17166 72.6773Z" fill="#C02828"/>
<path d="M41.38 169.139C41.3944 171.326 39.4168 173.287 37.2199 173.291C35.0133 173.298 33.0053 171.313 33.0405 169.061C33.0741 166.909 35.0101 164.934 37.2519 164.956C39.4488 164.977 41.3832 166.924 41.38 169.139Z" fill="#C02828"/>
<path d="M58.5829 87.5544C56.3843 87.548 54.458 85.5886 54.4531 83.3749C54.4451 81.1915 56.4339 79.1745 58.711 79.2225C60.8407 79.2689 62.8279 81.1963 62.7942 83.4548C62.7622 85.603 60.8263 87.5928 58.5829 87.5544Z" fill="#C02828"/>
<path d="M5.00513 173.286C2.61281 173.078 0.993909 171.543 0.867407 169.145C0.806558 168.03 1.29335 167.011 2.14523 166.184C2.96989 165.385 3.96589 164.975 5.04996 164.99C6.2093 165.006 7.23892 165.485 8.06198 166.386C8.79217 167.183 9.19569 168.139 9.14125 169.144C9.00834 171.543 7.39425 173.078 5.00513 173.286Z" fill="#C02828"/>
<path d="M73.5914 94.165C73.3977 95.1103 73.2055 96.0572 72.5426 96.8442C71.7308 97.8055 70.6339 98.1606 69.4649 98.3205C69.0438 98.3781 68.565 98.247 68.1519 98.0934C67.6891 97.9191 67.2504 97.6535 66.8468 97.3656C66.2688 96.9514 65.9453 96.3292 65.6219 95.7053C65.3785 95.2383 65.5098 94.6992 65.252 94.2498C65.4249 93.5076 65.5114 92.7526 65.9213 92.0632C66.2319 91.5418 66.6291 91.1115 67.0982 90.7884C67.7804 90.3198 68.6082 90.0335 69.4201 90.0511C70.1951 90.0655 71.0134 90.259 71.6555 90.7804C72.0782 91.1211 72.4818 91.5002 72.8228 91.9241C73.3352 92.5639 73.4057 93.3844 73.5914 94.165Z" fill="#C02828"/>
<path d="M51.9756 72.8628C51.7962 73.7345 51.6041 74.6799 50.938 75.4652C50.1229 76.4249 49.026 76.8376 47.8587 76.916C47.1605 76.964 46.4175 76.7 45.753 76.329C45.2214 76.033 44.7858 75.6268 44.4543 75.1661C43.9708 74.4959 43.6841 73.6626 43.6905 72.8564C43.7001 72.0838 43.9243 71.3065 44.3855 70.5995C44.7009 70.118 45.066 69.7102 45.5064 69.4031C46.1885 68.928 47.0116 68.7185 47.8315 68.6513C48.2318 68.6177 48.6545 68.7888 49.0661 68.8624C49.4776 68.9376 49.8827 69.1935 50.2318 69.4494C50.5841 69.707 50.9075 70.0301 51.1653 70.3804C51.4215 70.7307 51.6281 71.1353 51.7658 71.5464C51.8939 71.9367 51.9019 72.367 51.9756 72.8628Z" fill="#C02828"/>
<path d="M62.792 158.347C62.5742 159.483 62.2812 160.554 61.3765 161.373C60.5822 162.093 59.6134 162.41 58.619 162.461C57.8152 162.503 56.9793 162.196 56.2972 161.724C55.828 161.401 55.4309 160.974 55.1202 160.449C54.7119 159.763 54.6254 159.008 54.4541 158.266C54.7119 157.814 54.5774 157.275 54.8208 156.808C55.1459 156.183 55.4693 155.564 56.049 155.148C56.4525 154.859 56.8913 154.595 57.3508 154.422C57.764 154.265 58.2443 154.136 58.6671 154.195C59.8328 154.355 60.9313 154.708 61.7432 155.671C62.4061 156.455 62.5982 157.402 62.792 158.347Z" fill="#C02828"/>
<path d="M73.2103 147.787C73.4409 149.777 71.4425 152.007 69.0646 151.712C67.2551 151.887 65.0566 150.066 65.2119 147.45C65.3112 145.77 66.9093 143.47 69.4457 143.763C71.2647 143.6 73.4649 145.516 73.2103 147.787Z" fill="#C02828"/>
<path d="M51.7865 169.136C51.9947 170.287 51.2389 171.092 50.7313 171.989C49.7865 172.635 48.8466 173.175 47.6024 173.13C46.5215 173.093 45.7801 172.484 44.9378 172.013C44.3166 171.058 43.7401 170.131 43.8105 168.88C43.8682 167.808 44.4511 167.056 44.9459 166.225C45.9082 165.615 46.8354 165.036 48.0908 165.115C49.1604 165.182 49.9066 165.778 50.7409 166.266C51.2629 167.159 51.9771 167.981 51.7865 169.136Z" fill="#C02828"/>
<path d="M19.7822 61.9714C19.6589 64.3099 18.0977 65.9046 15.8831 65.9494C13.5596 65.999 11.8687 64.3019 11.8527 62.0402C11.8351 59.7209 13.542 58.0478 15.8175 58.0606C18.0817 58.0702 19.6253 59.6953 19.7822 61.9714Z" fill="#C02828"/>
<path d="M84.0093 126.149C83.878 128.439 82.3504 130.071 80.0894 130.107C77.7499 130.144 76.0845 128.42 76.0781 126.176C76.0733 123.905 77.7451 122.195 80.0653 122.217C82.3456 122.239 83.87 123.887 84.0093 126.149Z" fill="#C02828"/>
<path d="M22.4336 61.9605C22.4416 59.8124 24.3039 57.9505 26.5057 58.0497C28.7026 58.1489 30.3183 59.694 30.3792 62.0517C30.4336 64.1982 28.5217 66.0601 26.3199 65.9609C24.1246 65.8617 22.5521 64.315 22.4336 61.9605Z" fill="#C02828"/>
<path d="M84.0096 115.613C84.0032 117.758 82.1393 119.62 79.9359 119.519C77.7437 119.418 76.1232 117.876 76.0656 115.515C76.0111 113.372 77.9231 111.509 80.1248 111.609C82.3186 111.71 83.8943 113.254 84.0096 115.613Z" fill="#C02828"/>
<path d="M73.3997 83.3937C73.1707 85.7082 71.6863 87.3557 69.3725 87.3125C67.0602 87.2709 65.4973 85.689 65.4941 83.3873C65.4909 81.0728 67.1547 79.4269 69.4717 79.4701C71.7824 79.5101 73.1627 81.0936 73.3997 83.3937Z" fill="#C02828"/>
<path d="M62.6 72.813C62.3502 75.1451 60.8642 76.7638 58.5535 76.7158C56.2621 76.6678 54.6816 75.0795 54.6944 72.7714C54.7072 70.4393 56.379 68.8222 58.688 68.8702C60.9795 68.9182 62.3774 70.5049 62.6 72.813Z" fill="#C02828"/>
<path d="M41.2117 61.9667C41.0083 62.7025 40.9731 63.4255 40.576 64.0381C40.1645 64.6731 39.6104 65.1386 38.9379 65.5096C38.3646 65.8248 37.7241 65.9431 37.1476 65.9335C36.5039 65.9255 35.801 65.764 35.2133 65.3977C34.5696 64.9946 34.1036 64.4524 33.7241 63.7694C33.4006 63.1888 33.303 62.5585 33.2805 61.9843C33.2549 61.3141 33.4519 60.5847 33.8474 59.9737C34.2605 59.3371 34.813 58.8717 35.4871 58.5006C36.0604 58.1855 36.6993 58.0671 37.2789 58.0767C37.9227 58.0847 38.624 58.2463 39.2117 58.6141C39.857 59.0156 40.3102 59.5675 40.7041 60.2393C41.0468 60.8215 40.8754 61.4773 41.2117 61.9667Z" fill="#C02828"/>
<path d="M84.1179 104.678C83.7144 105.353 83.8585 106.04 83.4614 106.627C82.9025 107.457 82.7328 107.746 82.0218 108.183C81.4262 108.549 80.72 108.693 80.0827 108.703C79.4774 108.712 78.8257 108.554 78.2188 108.218C77.5639 107.852 77.0578 107.391 76.6623 106.795C76.2604 106.192 76.0779 105.457 76.0971 104.782C76.1131 104.173 76.2332 103.512 76.6047 102.929C77.1443 102.084 77.3285 101.806 78.0394 101.371C78.6351 101.004 79.3285 100.95 79.985 100.832C80.3965 100.755 80.8945 100.876 81.2932 101.051C81.8281 101.284 82.3629 101.591 82.7888 101.983C83.1892 102.356 83.4246 102.893 83.6936 103.389C83.9386 103.842 83.5751 104.394 84.1179 104.678Z" fill="#C02828"/>
<path d="M79.9468 140.733C79.6346 140.647 79.2519 140.761 78.8419 140.618C77.5689 140.182 76.6786 139.364 76.3728 138.089C76.0541 136.767 76.0413 135.428 77.1958 134.383C77.6858 133.94 78.0941 133.448 78.8291 133.297C80.0061 133.056 81.7739 133.054 82.6226 134.129C83.0325 134.647 83.6314 135.025 83.6858 135.77C83.6922 135.847 83.8171 135.924 83.8139 135.994C83.7643 136.789 83.9773 137.602 83.6314 138.369C83.5225 138.606 83.4536 138.881 83.2871 139.072C82.9412 139.476 82.5441 139.841 82.1614 140.212C81.9933 140.374 81.0293 140.727 80.7747 140.733C80.5217 140.74 80.2703 140.733 79.9468 140.733Z" fill="#C02828"/>
<path d="M8.79206 62.0981C8.69919 62.434 8.97301 62.8995 8.60311 63.2674C8.60952 63.9728 8.06188 64.3279 7.64394 64.7549C7.24362 65.1676 6.8497 65.5211 6.2188 65.6523C5.28204 65.849 3.88733 65.8986 3.14273 65.3979C2.02983 64.651 1.10749 63.7312 1.21798 62.2213C1.25481 61.7095 1.20197 61.2152 1.37171 60.6874C1.69036 59.7005 2.41254 59.147 3.17796 58.6048C3.57187 58.3265 4.03304 58.1953 4.52784 58.2209C5.16675 58.2529 5.81207 58.1313 6.43497 58.4017C6.73921 58.5312 7.04346 58.6336 7.27565 58.8783C7.49342 59.1086 7.71119 59.3342 7.94498 59.5469C8.53746 60.0875 8.78566 60.7689 8.79206 61.5527C8.79527 61.7111 8.79206 61.8678 8.79206 62.0981Z" fill="#C02828"/>
<path d="M15.8973 175.937C16.2096 176.028 16.5923 175.929 17.0022 176.049C17.6299 176.228 18.0751 176.572 18.4946 177.013C18.9109 177.452 19.3161 177.844 19.4554 178.509C19.6523 179.44 19.7004 180.843 19.2008 181.582C18.4482 182.69 17.529 183.616 16.0158 183.503C15.5066 183.466 14.9942 183.6 14.477 183.343C14.2272 183.221 13.8829 183.181 13.6908 182.983C13.244 182.517 12.6852 182.159 12.3841 181.55C12.1727 181.115 11.9902 180.686 12.0126 180.193C12.0446 179.557 11.9245 178.91 12.1936 178.288C12.3249 177.986 12.4289 177.682 12.6755 177.447C12.9045 177.233 13.1303 177.013 13.3433 176.782C13.8845 176.188 14.5715 175.948 15.3529 175.937C15.5114 175.934 15.6683 175.937 15.8973 175.937Z" fill="#C02828"/>
<path d="M26.3148 183.506C26.0042 183.413 25.6214 183.51 25.2099 183.392C24.5806 183.213 24.1403 182.867 23.7191 182.424C23.3028 181.989 22.8977 181.596 22.7567 180.93C22.563 180.006 22.5166 178.589 23.0162 177.858C23.772 176.754 24.6879 175.82 26.2027 175.938C26.7135 175.978 27.2243 175.842 27.7415 176.098C27.9914 176.221 28.3356 176.261 28.5262 176.461C28.9729 176.927 29.5286 177.287 29.8312 177.895C30.0474 178.33 30.2251 178.76 30.2027 179.251C30.1723 179.889 30.2892 180.534 30.0218 181.158C29.8921 181.46 29.7832 181.762 29.5382 181.996C29.3108 182.212 29.0834 182.431 28.8705 182.663C28.3292 183.256 27.6391 183.486 26.8592 183.504C26.7023 183.509 26.5438 183.506 26.3148 183.506Z" fill="#C02828"/>
<path d="M65.4551 158.328C65.311 157.238 65.7786 156.405 66.5088 155.648C67.327 154.806 68.2878 154.503 69.4567 154.527C70.4784 154.548 71.2326 154.967 71.9371 155.632C72.7922 156.447 73.074 157.418 73.0436 158.584C73.0164 159.604 72.5856 160.353 71.9195 161.053C71.1029 161.911 70.1245 162.179 68.9587 162.141C67.9387 162.109 67.1829 161.683 66.496 161.002C65.7482 160.258 65.3142 159.404 65.4551 158.328Z" fill="#C02828"/>
<path d="M62.4068 169.125C62.5125 170.247 62.0401 171.092 61.3131 171.826C60.5285 172.62 59.5933 172.96 58.458 172.928C57.4172 172.898 56.6069 172.501 55.896 171.797C55.0697 170.978 54.7671 169.998 54.8167 168.84C54.8599 167.837 55.2875 167.069 55.9616 166.385C56.7543 165.579 57.707 165.294 58.8343 165.318C59.8447 165.342 60.6262 165.751 61.3099 166.421C62.0737 167.17 62.5397 168.055 62.4068 169.125Z" fill="#C02828"/>
<path d="M41.0024 179.758C41.0857 181.785 39.2939 183.56 37.1529 183.527C35.0873 183.495 33.3595 181.745 33.4011 179.637C33.4444 177.669 35.1065 175.865 37.3195 175.916C39.217 175.961 41.1017 177.556 41.0024 179.758Z" fill="#C02828"/>
<path d="M4.97781 183.506C3.08829 183.662 1.15394 181.693 1.17796 179.672C1.20358 177.784 3.04826 175.86 5.07709 175.9C6.93618 175.94 8.87854 177.749 8.8273 179.819C8.78086 181.644 6.99543 183.669 4.97781 183.506Z" fill="#C02828"/>
<path d="M44.0312 61.9556C44.0841 59.8443 45.6742 58.1904 47.8952 58.2272C49.9864 58.2608 51.6534 59.8555 51.6037 62.1012C51.5589 64.1742 49.988 65.7929 47.7959 65.7833C45.6662 65.7769 44.0361 64.155 44.0312 61.9556Z" fill="#C02828"/>
<path d="M79.9834 97.964C77.8665 97.9128 76.2124 96.3229 76.2476 94.1075C76.2812 92.017 77.8793 90.3535 80.1243 90.3999C82.2012 90.4447 83.8217 92.0138 83.8137 94.2019C83.8073 96.3309 82.1836 97.9592 79.9834 97.964Z" fill="#C02828"/>
<path d="M80.0362 143.952C82.1707 144.062 83.8153 145.644 83.796 147.766C83.7784 149.892 82.1083 151.535 79.977 151.498C77.9193 151.461 76.2908 149.927 76.2668 147.754C76.246 145.625 77.9081 144.056 80.0362 143.952Z" fill="#C02828"/>
<path d="M51.6213 179.662C51.3972 180.868 51.0657 181.93 50.0777 182.689C49.3827 183.22 48.5613 183.306 47.767 183.506C46.6766 183.258 45.6373 182.96 44.8799 182.014C44.3243 181.319 44.2843 180.489 44.0312 179.713C44.2522 178.576 44.5773 177.511 45.5669 176.754C46.2602 176.223 47.0817 176.135 47.8759 175.937C48.9664 176.185 50.004 176.486 50.7647 177.428C51.3267 178.122 51.3283 178.965 51.6213 179.662Z" fill="#C02828"/>
<path d="M69.4043 76.3893C68.996 76.2886 68.5941 76.4085 68.1473 76.2294C66.7398 75.6712 65.8031 74.5115 65.8319 73.0368C65.8415 72.5297 65.7646 72.0307 65.9808 71.4964C66.2818 70.7606 66.7286 70.22 67.3467 69.7578C67.9376 69.3163 68.5749 69.1211 69.2939 69.2011C69.7438 69.2523 70.1778 69.1819 70.6533 69.3371C71.4316 69.5898 71.976 70.0697 72.442 70.6631C72.8743 71.2149 73.1209 71.8675 73.02 72.5953C72.9544 73.0735 73.0489 73.5358 72.8679 74.0428C72.5989 74.809 72.1329 75.3481 71.5341 75.8167C70.9128 76.3014 70.1938 76.4821 69.4043 76.3893Z" fill="#C02828"/>
<path d="M76.4306 83.3748C76.3025 81.4698 78.0703 79.7471 80.0719 79.7663C81.9486 79.7839 83.694 81.4282 83.6604 83.4548C83.6284 85.3358 81.9775 87.0617 79.9438 87.0153C78.0944 86.9721 76.2993 85.3614 76.4306 83.3748Z" fill="#C02828"/>
<path d="M62.2204 62.0292C62.3469 63.9342 60.5727 65.6553 58.5743 65.6313C56.6944 65.6073 54.9554 63.9614 54.9938 61.9332C55.029 60.0666 56.6655 58.3343 58.7168 58.3823C60.5502 58.4255 62.3565 60.0282 62.2204 62.0292Z" fill="#C02828"/>
<path d="M69.201 172.719C67.2939 172.84 65.5741 171.065 65.6029 169.067C65.6317 167.189 67.281 165.457 69.3115 165.5C71.1674 165.537 72.9112 167.159 72.8583 169.226C72.8135 171.043 71.217 172.856 69.201 172.719Z" fill="#C02828"/>
<path d="M90.8306 119.159C89.146 119.434 86.9539 117.283 87.2309 115.542C86.9603 113.888 89.1172 111.675 90.877 111.969C92.5183 111.711 94.7345 113.861 94.4303 115.633C94.6689 117.276 92.5231 119.434 90.8306 119.159Z" fill="#C02828"/>
<path d="M94.4305 126.197C94.6963 127.841 92.5377 130.06 90.7731 129.757C89.1318 130.004 86.9236 127.865 87.2311 126.08C86.9989 124.477 89.095 122.262 90.9365 122.568C92.5009 122.334 94.7155 124.433 94.4305 126.197Z" fill="#C02828"/>
<path d="M83.631 158.378C83.5766 160.329 81.924 161.967 79.9673 161.925C77.9913 161.882 76.3804 160.188 76.438 158.248C76.4941 156.357 78.0665 154.748 80.0489 154.745C81.9128 154.744 83.6198 156.333 83.631 158.378Z" fill="#C02828"/>
<path d="M62.2207 179.761C62.0045 181.896 60.7043 183.312 58.5586 183.275C56.4304 183.238 55.0101 181.778 55.0629 179.635C55.1174 177.555 56.4977 176.159 58.637 176.167C60.7587 176.172 62.0622 177.615 62.2207 179.761Z" fill="#C02828"/>
<path d="M94.4304 104.787C94.2431 106.908 92.9348 108.359 90.7955 108.332C88.661 108.303 87.2342 106.867 87.2743 104.718C87.3111 102.609 88.693 101.239 90.8179 101.222C92.9428 101.204 94.2623 102.665 94.4304 104.787Z" fill="#C02828"/>
<path d="M90.8313 140.565C89.9137 140.317 88.977 140.16 88.274 139.42C87.6031 138.715 87.254 137.817 87.2764 136.928C87.2988 135.97 87.6495 135.007 88.4453 134.316C89.1451 133.713 90.0114 133.364 90.8761 133.398C91.7664 133.431 92.6663 133.748 93.3549 134.445C94.0386 135.141 94.3733 136.037 94.3861 136.926C94.3973 137.817 94.0595 138.713 93.3885 139.42C92.6855 140.159 91.7472 140.317 90.8313 140.565Z" fill="#C02828"/>
<path d="M26.4356 194.038C25.3691 193.89 24.3763 193.632 23.7054 192.799C23.1594 192.124 23.012 191.263 22.8135 190.438C23.0889 189.857 23.0457 189.165 23.4604 188.632C23.6429 188.394 23.7726 188.091 24.0048 187.923C24.402 187.632 24.8583 187.413 25.2971 187.181C25.6429 186.996 26.0929 187.218 26.4132 186.913C26.7302 187.303 27.2218 186.978 27.6093 187.226C28.0497 187.509 28.5813 187.639 28.972 188.037C29.3563 188.432 29.4812 188.962 29.755 189.414C29.9552 189.745 29.6878 190.211 30.0129 190.532C29.6237 190.908 30.0032 191.487 29.6398 191.889C29.3035 192.263 29.2554 192.848 28.7975 193.136C28.3747 193.402 27.9504 193.677 27.4924 193.858C27.1434 193.995 26.7414 193.99 26.4356 194.038Z" fill="#C02828"/>
<path d="M15.6987 194.026C14.7684 193.894 13.7724 193.634 13.103 192.807C12.5602 192.133 12.3969 191.276 12.2031 190.448C12.4946 189.814 12.4946 189.085 12.9349 188.48C13.1143 188.234 13.2888 187.967 13.521 187.797C13.8941 187.524 14.3152 187.284 14.7508 187.137C15.1079 187.015 15.5386 187.156 15.8861 186.913C16.1743 187.344 16.7059 186.919 17.0694 187.272C17.3689 187.565 17.838 187.677 18.2079 187.911C18.3841 188.021 18.5298 188.205 18.6387 188.386C18.8501 188.736 19.0887 189.09 19.1943 189.473C19.2872 189.811 19.1655 190.201 19.4025 190.521C19.0774 190.835 19.3176 191.284 19.1303 191.634C18.9253 192.02 18.7524 192.425 18.5218 192.794C18.3921 193.002 18.1999 193.197 17.9902 193.325C17.6187 193.551 17.228 193.767 16.8164 193.901C16.4882 194.006 16.1151 193.984 15.6987 194.026Z" fill="#C02828"/>
<path d="M94.2418 94.208C94.4532 95.8955 92.5909 97.6629 90.775 97.6325C89.0841 97.6021 87.3291 95.9178 87.3739 94.0992C87.4139 92.4469 89.06 90.673 90.9351 90.7242C92.5252 90.7706 94.466 92.3877 94.2418 94.208Z" fill="#C02828"/>
<path d="M40.6225 190.572C40.8067 192.265 38.954 194.011 37.1237 193.96C35.5032 193.919 33.6986 192.3 33.7562 190.397C33.8043 188.824 35.4007 186.985 37.3495 187.057C38.9348 187.114 40.8659 188.752 40.6225 190.572Z" fill="#C02828"/>
<path d="M8.41459 190.532C8.62756 192.218 6.77167 193.987 4.95421 193.963C3.26486 193.938 1.50344 192.25 1.54668 190.437C1.58351 188.768 3.24724 187.006 5.09993 187.057C6.71082 187.098 8.63557 188.73 8.41459 190.532Z" fill="#C02828"/>
<path d="M69.4217 65.4119C67.4938 65.3447 66.0222 64.014 66.0254 61.9826C66.0286 60.1127 67.3769 58.5852 69.4682 58.6172C71.5018 58.6476 72.802 60.0935 72.8148 61.981C72.8277 64.0156 71.3465 65.3447 69.4217 65.4119Z" fill="#C02828"/>
<path d="M83.4411 72.8082C83.3706 74.6829 82.0752 76.2008 79.9919 76.1832C78.0111 76.164 76.5924 74.7117 76.6388 72.7299C76.6836 70.7193 78.1104 69.4109 80.0239 69.4029C81.9839 69.3933 83.377 70.8089 83.4411 72.8082Z" fill="#C02828"/>
<path d="M90.8244 144.331C92.7827 144.396 94.2287 145.754 94.2271 147.754C94.2239 149.63 92.874 151.151 90.7907 151.127C88.7987 151.101 87.4553 149.699 87.4377 147.768C87.42 145.705 88.9284 144.399 90.8244 144.331Z" fill="#C02828"/>
<path d="M47.7739 187.103C49.7851 187.236 51.1831 188.456 51.1959 190.486C51.2087 192.503 49.8908 193.821 47.9148 193.877C45.8668 193.938 44.4881 192.569 44.4481 190.577C44.4096 188.535 45.7739 187.3 47.7739 187.103Z" fill="#C02828"/>
<path d="M83.4538 169.16C83.2104 169.854 83.1191 170.642 82.5394 171.277C81.8477 172.032 80.9894 172.48 80.0286 172.49C79.2952 172.496 78.5458 172.207 77.9261 171.676C77.1463 171.01 76.7027 170.147 76.6579 169.192C76.6243 168.451 76.9157 167.701 77.4281 167.072C78.0991 166.25 78.991 165.793 79.987 165.756C80.7268 165.727 81.4778 166.02 82.1007 166.54C82.9093 167.216 83.2472 168.115 83.4538 169.16Z" fill="#C02828"/>
<path d="M69.3031 183.066C68.1566 182.978 67.2839 182.532 66.5729 181.721C66.0461 181.118 66.1037 180.34 65.8203 179.67C66.1005 179.09 66.0093 178.365 66.4624 177.866C66.9076 177.378 67.3287 176.831 68.0333 176.658C68.4592 176.554 68.922 176.263 69.2967 176.353C69.8796 176.492 70.5569 176.5 71.0357 176.909C71.4712 177.284 71.8812 177.693 72.1982 178.208C72.4977 178.693 72.3167 179.275 72.6418 179.725C72.368 180.278 72.464 180.959 72.0701 181.465C71.6938 181.946 71.2503 182.353 70.7315 182.7C70.2479 183.024 69.649 182.773 69.3031 183.066Z" fill="#C02828"/>
<path d="M94.0507 83.3891C94.2589 85.0686 92.4927 86.6553 90.8322 86.6553C89.1828 86.6521 87.5159 85.0958 87.5655 83.2963C87.6072 81.7752 89.0964 80.0829 90.9234 80.1309C92.4799 80.1709 94.2573 81.7 94.0507 83.3891Z" fill="#C02828"/>
<path d="M90.8296 155.118C92.6182 155.116 94.0513 156.551 94.0513 158.334C94.0529 160.123 92.6166 161.553 90.8328 161.553C89.0425 161.554 87.6094 160.119 87.6094 158.337C87.6094 156.549 89.0441 155.118 90.8296 155.118Z" fill="#C02828"/>
<path d="M104.661 115.605C104.772 117.145 103.002 118.849 101.377 118.807C99.8254 118.769 98.1392 117.107 98.1937 115.477C98.2417 113.981 99.8478 112.315 101.457 112.319C102.991 112.323 104.807 113.972 104.661 115.605Z" fill="#C02828"/>
<path d="M104.661 126.211C104.762 127.758 102.993 129.452 101.369 129.405C99.8367 129.364 98.1362 127.716 98.1938 126.065C98.2451 124.589 99.8399 122.91 101.464 122.916C102.999 122.924 104.812 124.581 104.661 126.211Z" fill="#C02828"/>
<path d="M61.8429 190.486C61.7917 192.282 60.413 193.715 58.6212 193.711C56.8357 193.706 55.4618 192.343 55.417 190.577C55.3738 188.767 56.7765 187.34 58.5747 187.306C60.3794 187.274 61.7565 188.69 61.8429 190.486Z" fill="#C02828"/>
<path d="M104.661 104.8C104.414 106.639 103.349 107.791 101.393 107.994C99.4551 107.714 98.3406 106.58 98.2478 104.704C98.2077 103.871 98.6241 103.087 99.2742 102.497C99.8875 101.94 100.618 101.513 101.438 101.58C103.301 101.735 104.451 102.882 104.661 104.8Z" fill="#C02828"/>
<path d="M104.701 136.889C104.446 137.648 104.36 138.414 103.823 139.033C103.184 139.765 102.326 140.108 101.448 140.124C100.713 140.136 99.9561 139.85 99.338 139.313C98.6238 138.698 98.3083 137.865 98.2619 137.025C98.2203 136.291 98.4973 135.525 99.0257 134.901C99.6518 134.164 100.497 133.854 101.388 133.764C101.886 133.713 102.425 133.929 102.91 134.159C103.396 134.391 103.822 134.738 104.07 135.181C104.368 135.706 104.502 136.325 104.701 136.889Z" fill="#C02828"/>
<path d="M29.4234 201.14C29.5563 201.833 29.3514 202.418 28.887 202.976C28.3281 203.65 27.7213 204.163 26.7941 204.134C26.6356 204.131 26.4755 204.114 26.3201 204.138C25.0439 204.344 23.9678 203.287 23.4682 202.228C23.4074 202.098 23.3914 201.938 23.385 201.793C23.3722 201.478 23.4234 201.156 23.3754 200.851C23.1928 199.721 24.2993 198.565 25.3497 198.136C25.7533 197.97 26.2737 198.082 26.7413 198.08C27.6428 198.077 28.2881 198.53 28.8966 199.274C29.3674 199.849 29.5243 200.432 29.4234 201.14Z" fill="#C02828"/>
<path d="M80.0095 58.9421C80.7605 58.8205 81.3818 59.1004 81.9454 59.5467C82.6035 60.0665 83.0983 60.6823 83.0647 61.5877C83.0551 61.8052 83.0327 62.0307 83.0679 62.2451C83.2617 63.3807 82.1472 64.526 81.1079 64.9722C80.7877 65.1082 80.3681 64.9834 80.0031 65.0394C78.7989 65.2217 77.7805 64.4028 77.1912 63.3343C77.0759 63.1264 76.9462 62.9296 76.991 62.6577C77.0327 62.413 77.0327 62.1523 76.9942 61.906C76.7941 60.6247 77.8541 59.5339 78.9206 59.0684C79.2392 58.9309 79.6444 58.9804 80.0095 58.9421Z" fill="#C02828"/>
<path d="M18.8342 201.155C18.9959 202.737 17.5147 204.186 15.7789 204.173C14.2 204.162 12.6884 202.852 12.7365 201.011C12.7749 199.447 14.1152 198.007 15.8766 198.042C17.4731 198.073 19.0295 199.435 18.8342 201.155Z" fill="#C02828"/>
<path d="M93.8616 72.8754C93.9785 73.6992 93.5366 74.3566 92.9297 74.9612C92.3436 75.5434 91.6855 75.8377 90.8288 75.8409C89.9273 75.8473 89.2659 75.4986 88.6575 74.8924C88.041 74.2766 87.7751 73.5776 87.7783 72.6963C87.7832 71.8277 88.1563 71.2071 88.7295 70.6233C89.3396 70.0027 90.0426 69.7404 90.9265 69.7452C91.796 69.75 92.4269 70.1115 92.9985 70.6969C93.6487 71.3623 93.8616 71.8597 93.8616 72.8754Z" fill="#C02828"/>
<path d="M40.2445 201.092C40.3182 202.753 38.7969 204.148 37.2245 204.151C35.5623 204.154 34.1692 202.689 34.166 201.121C34.1612 199.461 35.628 198.066 37.1989 198.063C38.861 198.06 40.315 199.525 40.2445 201.092Z" fill="#C02828"/>
<path d="M104.472 94.1647C104.547 95.825 103.024 97.2182 101.454 97.223C99.7915 97.2262 98.3968 95.7611 98.3936 94.1919C98.3888 92.53 99.8571 91.1385 101.426 91.1353C103.089 91.1305 104.541 92.5956 104.472 94.1647Z" fill="#C02828"/>
<path d="M98.4094 147.641C98.3885 146.104 99.8281 144.644 101.535 144.695C103.074 144.742 104.536 146.127 104.486 147.832C104.44 149.369 103.051 150.829 101.345 150.78C99.8073 150.733 98.2957 149.345 98.4094 147.641Z" fill="#C02828"/>
<path d="M83.0613 179.748C83.1286 181.295 81.6874 182.776 80.0029 182.763C78.456 182.755 76.9732 181.377 76.9844 179.692C76.9924 178.147 78.3744 176.666 80.0589 176.677C81.6057 176.687 83.1446 178.066 83.0613 179.748Z" fill="#C02828"/>
<path d="M4.99272 204.135C3.41546 204.205 1.95188 202.75 1.95508 201.096C1.95989 199.522 3.36101 198.06 5.01514 198.063C6.59241 198.065 8.05598 199.464 8.05118 201.118C8.04797 202.692 6.64685 204.21 4.99272 204.135Z" fill="#C02828"/>
<path d="M69.2314 193.536C67.6894 193.536 66.2002 192.049 66.2002 190.507C66.2002 188.966 67.6894 187.48 69.233 187.48C70.7751 187.48 72.2643 188.97 72.2643 190.508C72.2643 192.05 70.7751 193.536 69.2314 193.536Z" fill="#C02828"/>
<path d="M90.7912 172.152C89.2171 172.132 87.7808 170.657 87.8 169.083C87.8176 167.512 89.2956 166.074 90.8729 166.095C92.4437 166.114 93.8817 167.589 93.8625 169.163C93.8432 170.735 92.3653 172.17 90.7912 172.152Z" fill="#C02828"/>
<path d="M50.8529 201.065C50.7553 201.876 50.5087 202.649 49.937 203.23C49.3846 203.786 48.6303 204.092 47.8617 204.109C47.0531 204.127 46.2797 203.791 45.6984 203.218C45.1395 202.668 44.8321 201.913 44.8161 201.145C44.7985 200.339 45.1363 199.565 45.708 198.984C46.2572 198.428 47.0147 198.122 47.7833 198.105C48.5903 198.086 49.3333 198.453 49.9546 198.986C50.3405 199.319 50.8305 200.53 50.8529 201.065Z" fill="#C02828"/>
<path d="M101.396 80.5578C102.827 80.2827 104.488 81.983 104.313 83.453C104.219 84.2511 104.006 84.9053 103.444 85.4588C102.877 86.017 102.217 86.2537 101.405 86.2489C100.589 86.2441 99.9465 85.9722 99.386 85.4108C98.7936 84.8206 98.5678 84.1264 98.5806 83.285C98.5918 82.5045 98.8608 81.8934 99.4004 81.3544C99.9625 80.7882 100.608 80.4587 101.396 80.5578Z" fill="#C02828"/>
<path d="M101.42 155.498C102.241 155.414 102.914 155.823 103.434 156.311C103.956 156.805 104.293 157.498 104.291 158.301C104.285 159.881 102.986 161.175 101.405 161.183C100.602 161.185 99.9115 160.847 99.4135 160.329C98.9187 159.812 98.5824 159.128 98.584 158.323C98.5856 157.519 98.9219 156.834 99.4295 156.327C99.9387 155.823 100.618 155.423 101.42 155.498Z" fill="#C02828"/>
<path d="M93.6718 62.0325C93.4236 63.7792 92.4052 64.8317 90.8023 64.7965C89.0537 64.7581 88.0033 63.5776 88.0369 61.9781C88.0737 60.2299 89.2571 59.1806 90.8584 59.2142C92.6086 59.2526 93.4797 60.4298 93.6718 62.0325Z" fill="#C02828"/>
<path d="M58.5955 203.957C58.0991 203.708 57.4538 203.775 56.927 203.326C56.2352 202.732 55.8301 201.993 55.8157 201.145C55.8077 200.565 55.9726 199.941 56.405 199.418C56.9862 198.713 57.7356 198.319 58.5827 198.305C59.164 198.294 59.7885 198.46 60.3137 198.89C61.0183 199.471 61.4122 200.221 61.4266 201.069C61.4378 201.649 61.2697 202.272 60.8405 202.796C60.2593 203.503 59.5067 203.788 58.5955 203.957Z" fill="#C02828"/>
<path d="M112.293 128.977C111.484 128.777 110.725 128.615 110.18 127.99C109.713 127.456 109.646 126.763 109.397 126.143C109.671 125.434 109.761 124.642 110.406 124.103C110.952 123.647 111.636 123.571 112.259 123.324C112.97 123.598 113.761 123.687 114.301 124.332C114.757 124.876 114.835 125.562 115.082 126.183C114.807 126.891 114.717 127.681 114.072 128.222C113.529 128.678 112.84 128.751 112.293 128.977Z" fill="#C02828"/>
<path d="M115.071 115.558C114.827 116.249 114.728 116.991 114.158 117.547C113.61 118.078 112.88 118.127 112.24 118.402C111.564 118.129 110.811 118.055 110.256 117.479C109.726 116.931 109.674 116.205 109.397 115.563C109.671 114.888 109.747 114.138 110.323 113.581C110.871 113.052 111.598 113.001 112.24 112.726C112.917 112.999 113.671 113.069 114.224 113.649C114.746 114.197 114.826 114.914 115.071 115.558Z" fill="#C02828"/>
<path d="M90.805 182.344C90.0219 182.591 89.423 182.116 88.9427 181.665C88.403 181.159 88.1388 180.467 88.1436 179.633C88.1468 178.853 88.4559 178.248 88.9315 177.786C89.4359 177.298 90.0892 177.023 90.8946 177.036C91.668 177.045 92.2829 177.339 92.7505 177.81C93.2437 178.306 93.5319 178.952 93.5207 179.761C93.5095 180.534 93.2245 181.153 92.7601 181.623C92.2701 182.117 91.636 182.578 90.805 182.344Z" fill="#C02828"/>
<path d="M112.196 102.153C113.025 101.922 113.665 102.375 114.159 102.866C114.628 103.33 114.924 103.943 114.931 104.72C114.939 105.526 114.653 106.172 114.171 106.679C113.685 107.193 113.03 107.461 112.224 107.461C111.454 107.46 110.83 107.188 110.352 106.724C109.818 106.207 109.549 105.523 109.552 104.69C109.555 103.909 109.861 103.298 110.343 102.845C110.822 102.396 111.414 101.911 112.196 102.153Z" fill="#C02828"/>
<path d="M112.257 134.3C113.497 134.11 114.933 135.674 114.935 136.942C114.935 138.251 113.484 139.676 112.176 139.642C110.968 139.609 109.522 138.214 109.543 136.909C109.564 135.722 110.936 134.107 112.257 134.3Z" fill="#C02828"/>
<path d="M82.6838 190.529C82.8728 191.753 81.3179 193.2 80.0337 193.199C78.7366 193.197 77.2987 191.761 77.3387 190.438C77.3739 189.229 78.7751 187.791 80.0769 187.816C81.2683 187.839 82.8808 189.214 82.6838 190.529Z" fill="#C02828"/>
<path d="M104.102 72.8064C104.301 74.0141 102.622 75.4488 101.503 75.484C100.246 75.5256 98.7425 73.9965 98.7441 72.784C98.7457 71.5924 100.246 70.0089 101.428 70.1192C102.166 70.188 102.757 70.4263 103.268 70.9286C103.782 71.4308 104.12 72.0115 104.102 72.8064Z" fill="#C02828"/>
<path d="M15.8286 214.545C14.2321 214.431 13.2105 213.447 13.1785 211.942C13.1464 210.391 14.1825 209.338 15.7341 209.271C17.2441 209.204 18.4403 210.327 18.4323 211.894C18.4259 213.436 17.3498 214.413 15.8286 214.545Z" fill="#C02828"/>
<path d="M26.3182 214.545C24.8018 214.351 23.7401 213.399 23.7898 211.824C23.8378 210.275 24.9091 209.244 26.4607 209.273C28.0059 209.298 29.1156 210.426 29.0388 212.011C28.9667 213.524 27.8746 214.489 26.3182 214.545Z" fill="#C02828"/>
<path d="M101.47 166.473C102.136 166.621 102.807 166.762 103.299 167.292C103.779 167.808 104.072 168.456 104.066 169.129C104.056 169.835 103.774 170.518 103.223 171.03C102.701 171.514 102.043 171.722 101.363 171.751C101.002 171.767 100.618 171.596 100.275 171.444C99.9694 171.306 99.0727 170.395 99.0215 170.198C98.9222 169.827 98.7957 169.445 98.8085 169.07C98.8181 168.701 98.9302 168.307 99.1032 167.978C99.3962 167.41 99.9038 166.903 100.349 166.729C100.701 166.588 101.095 166.554 101.47 166.473Z" fill="#C02828"/>
<path d="M114.906 94.1714C114.797 94.5841 114.761 94.9808 114.589 95.3135C114.263 95.9533 113.922 96.2972 113.342 96.5595C113.001 96.7146 112.591 96.841 112.229 96.8074C111.52 96.7418 110.829 96.5099 110.33 95.9533C109.861 95.4302 109.622 94.7808 109.608 94.0946C109.6 93.7331 109.769 93.3525 109.918 93.0086C110.163 92.4327 110.668 92.0648 111.179 91.7705C111.491 91.5882 111.936 91.5002 112.296 91.5498C112.966 91.6442 113.624 91.8473 114.12 92.3672C114.615 92.8838 114.74 93.5556 114.906 94.1714Z" fill="#C02828"/>
<path d="M37.1819 214.522C36.6422 214.306 35.9745 214.253 35.4589 213.829C34.8632 213.341 34.8648 212.567 34.5605 211.942C34.7991 211.35 34.8392 210.677 35.2587 210.158C35.7407 209.562 36.5157 209.554 37.1418 209.245C37.7679 209.482 38.4725 209.512 39.0041 209.989C39.571 210.501 39.5838 211.257 39.8656 211.896C39.587 212.5 39.5806 213.223 39.0698 213.733C38.5606 214.24 37.864 214.314 37.1819 214.522Z" fill="#C02828"/>
<path d="M4.97779 209.45C5.72238 209.304 6.25401 209.636 6.77603 210.139C7.31086 210.654 7.47739 211.221 7.4886 211.942C7.49661 212.647 7.24841 213.148 6.77603 213.647C6.26842 214.188 5.70317 214.362 4.98099 214.377C4.23799 214.388 3.71117 214.124 3.19556 213.615C2.66233 213.092 2.53262 212.515 2.51821 211.801C2.5022 211.08 2.79043 210.594 3.26601 210.111C3.7528 209.613 4.27162 209.314 4.97779 209.45Z" fill="#C02828"/>
<path d="M69.2522 198.663C70.0032 198.506 70.514 198.882 71.0345 199.38C71.5757 199.899 71.7022 200.478 71.7166 201.193C71.731 201.912 71.4396 202.395 70.9768 202.889C70.466 203.436 69.8895 203.578 69.169 203.589C68.4564 203.601 67.9616 203.334 67.4652 202.867C66.9256 202.358 66.7606 201.785 66.7494 201.069C66.7382 200.363 66.9704 199.85 67.4556 199.36C67.9648 198.842 68.506 198.521 69.2522 198.663Z" fill="#C02828"/>
<path d="M112.196 150.198C111.539 150.329 110.991 150.018 110.482 149.502C110.002 149.012 109.744 148.513 109.755 147.8C109.765 147.08 109.925 146.517 110.453 145.992C110.974 145.474 111.52 145.266 112.247 145.255C112.987 145.247 113.517 145.495 114.037 146.004C114.574 146.527 114.713 147.099 114.726 147.814C114.74 148.531 114.479 149.038 113.984 149.507C113.267 150.183 113.281 150.198 112.196 150.198Z" fill="#C02828"/>
<path d="M50.2844 211.894C50.1179 213.47 49.4069 214.295 47.8456 214.32C46.2572 214.346 45.3508 213.396 45.3941 211.849C45.4341 210.341 46.1963 209.466 47.8456 209.471C49.4053 209.479 50.1179 210.318 50.2844 211.894Z" fill="#C02828"/>
<path d="M112.181 80.8716C112.833 81.1211 113.433 81.2363 113.907 81.7193C114.378 82.1976 114.652 82.7654 114.676 83.3748C114.702 84.0354 114.356 84.6144 113.859 85.1023C113.382 85.571 112.794 85.8445 112.188 85.8205C111.507 85.7901 110.889 85.4494 110.41 84.8912C110.024 84.4385 109.79 83.8963 109.81 83.362C109.832 82.7158 110.149 82.1336 110.649 81.6409C111.113 81.1835 111.717 81.1691 112.181 80.8716Z" fill="#C02828"/>
<path d="M112.277 156.076C112.926 155.97 113.43 156.212 113.912 156.671C114.436 157.168 114.537 157.736 114.527 158.41C114.519 159.021 114.381 159.513 113.943 159.974C113.446 160.49 112.89 160.618 112.213 160.622C111.56 160.626 111.049 160.468 110.567 160.001C110.048 159.499 109.944 158.934 109.954 158.261C109.962 157.651 110.096 157.157 110.538 156.698C111.033 156.186 111.585 155.988 112.277 156.076Z" fill="#C02828"/>
<path d="M101.473 59.7451C102.118 59.6395 102.623 59.8763 103.108 60.3337C103.638 60.8328 103.718 61.4022 103.729 62.0724C103.742 62.7346 103.543 63.2336 103.079 63.7039C102.6 64.1885 102.057 64.2829 101.42 64.2909C100.771 64.2989 100.257 64.1454 99.7723 63.6783C99.247 63.1745 99.1622 62.6082 99.151 61.938C99.1382 61.2774 99.3367 60.7768 99.8011 60.3065C100.281 59.8235 100.818 59.6667 101.473 59.7451Z" fill="#C02828"/>
<path d="M90.872 192.78C89.559 192.914 88.571 191.681 88.531 190.598C88.4797 189.286 89.6182 188.231 90.7888 188.21C92.0826 188.187 93.1347 189.333 93.1315 190.513C93.1299 191.705 92.0586 192.89 90.872 192.78Z" fill="#C02828"/>
<path d="M101.417 177.452C102.605 177.41 103.694 178.544 103.718 179.675C103.745 180.848 102.692 181.932 101.511 181.998C100.338 182.062 99.156 180.904 99.1592 179.72C99.1608 178.555 100.291 177.426 101.417 177.452Z" fill="#C02828"/>
<path d="M60.8946 211.902C60.9282 213.054 59.7753 214.167 58.6368 214.173C57.4294 214.181 56.2973 212.991 56.3421 211.84C56.3853 210.698 57.4726 209.602 58.6528 209.616C59.7705 209.631 60.9314 210.723 60.8946 211.902Z" fill="#C02828"/>
<path d="M82.306 201.085C82.3124 202.164 81.2908 203.327 80.077 203.372C78.9977 203.41 77.8752 202.449 77.7632 201.176C77.6671 200.078 78.8841 198.829 80.0322 198.834C81.1098 198.839 82.2788 199.925 82.306 201.085Z" fill="#C02828"/>
<path d="M122.83 113.257C123.321 113.468 123.861 113.514 124.29 113.873C124.809 114.308 124.961 114.917 125.115 115.519C125.185 115.803 124.772 116.71 124.558 116.985C124.143 117.526 123.526 117.745 122.919 117.806C122.369 117.862 121.829 117.588 121.377 117.219C120.854 116.789 120.617 116.179 120.606 115.563C120.599 115.019 120.83 114.479 121.24 114.037C121.677 113.567 122.266 113.473 122.83 113.257Z" fill="#C02828"/>
<path d="M122.905 124.081C123.784 123.924 124.352 124.492 124.855 125.24C124.916 125.33 124.927 125.466 124.932 125.583C124.94 125.895 124.903 126.213 124.942 126.522C125.009 127.08 124.623 127.417 124.336 127.776C124.162 127.99 123.859 128.19 123.593 128.224C123.068 128.292 122.512 128.321 122.002 128.212C121.685 128.145 121.337 127.851 121.169 127.561C120.97 127.224 120.573 126.914 120.757 126.41C120.809 126.272 120.796 126.093 120.761 125.943C120.623 125.351 120.999 124.922 121.342 124.596C121.657 124.292 122.061 123.91 122.623 124.076C122.711 124.103 122.81 124.081 122.905 124.081Z" fill="#C02828"/>
<path d="M124.933 136.832C124.937 138.11 124.08 139.004 122.943 139.039C122.323 139.058 121.827 138.895 121.388 138.439C120.988 138.024 120.757 137.598 120.749 136.995C120.74 136.362 120.953 135.893 121.391 135.458C121.808 135.045 122.255 134.85 122.852 134.85C123.451 134.85 123.899 135.045 124.309 135.461C124.714 135.872 125.022 136.294 124.933 136.832Z" fill="#C02828"/>
<path d="M124.934 104.883C125.018 105.417 124.719 105.843 124.319 106.257C123.883 106.713 123.393 106.889 122.767 106.867C121.619 106.83 120.785 105.948 120.757 104.741C120.743 104.141 120.975 103.709 121.38 103.293C121.821 102.842 122.308 102.663 122.934 102.685C124.08 102.724 124.937 103.605 124.934 104.883Z" fill="#C02828"/>
<path d="M114.309 72.7921C114.434 73.4032 114.131 73.8318 113.731 74.2477C113.303 74.694 112.826 74.9003 112.194 74.8907C111.59 74.8843 111.159 74.6572 110.748 74.2477C110.333 73.8366 110.138 73.3904 110.138 72.7921C110.138 72.1955 110.336 71.7509 110.748 71.3366C111.182 70.8951 111.653 70.6856 112.288 70.6936C112.889 70.7016 113.326 70.9223 113.729 71.3382C114.135 71.7493 114.434 72.1811 114.309 72.7921Z" fill="#C02828"/>
<path d="M112.24 171.205C111.153 171.204 110.104 170.211 110.164 169.077C110.224 167.904 111.137 167.068 112.24 167.047C113.328 167.024 114.375 168.035 114.316 169.168C114.258 170.342 113.344 171.161 112.24 171.205Z" fill="#C02828"/>
<path d="M15.7703 224.612C15.2515 224.386 14.6462 224.359 14.2683 223.886C13.9304 223.462 13.6822 222.937 13.7479 222.42C13.8151 221.92 13.9496 221.373 14.3708 220.987C14.5918 220.784 15.5605 220.357 15.8295 220.421C16.3708 220.547 16.9569 220.632 17.3364 221.101C17.6758 221.521 17.9256 222.048 17.8584 222.564C17.7911 223.065 17.6598 223.617 17.2339 223.996C16.8175 224.364 16.2715 224.409 15.7703 224.612Z" fill="#C02828"/>
<path d="M28.5378 222.515C28.3056 223.033 28.288 223.639 27.814 224.02C27.388 224.359 26.8628 224.602 26.3488 224.544C25.8476 224.485 25.3 224.343 24.9125 223.929C24.7075 223.708 24.2783 222.74 24.3376 222.473C24.4641 221.932 24.5522 221.35 25.0133 220.966C25.4313 220.621 25.9629 220.381 26.4769 220.44C26.9797 220.499 27.5274 220.638 27.9133 221.058C28.2912 221.469 28.3216 222.02 28.5378 222.515Z" fill="#C02828"/>
<path d="M68.3748 210.007C70.0497 209.92 70.0497 209.951 70.647 210.544C71.169 211.062 71.2042 211.133 71.1242 212.803C70.7527 213.113 70.3507 213.45 69.9488 213.786C69.6238 213.602 69.4204 214.087 69.0185 213.9C68.6133 213.714 68.1506 213.674 67.8591 213.271C67.699 213.049 67.3531 212.831 67.3724 212.639C67.406 212.299 67.0761 212.08 67.2202 211.704C67.5245 210.909 67.486 210.896 68.3748 210.007Z" fill="#C02828"/>
<path d="M121.998 92.2857C123.654 92.2169 123.644 92.2057 124.267 92.8327C124.756 93.3206 124.837 93.4005 124.735 95.0944C124.363 95.4031 123.987 95.7774 123.55 96.0541C123.326 96.1965 122.961 96.2685 122.717 96.1949C122.277 96.0557 121.744 96.0541 121.467 95.5519C121.337 95.3168 120.967 95.104 120.989 94.9153C121.033 94.573 120.687 94.365 120.84 93.9812C121.153 93.1926 121.106 93.1734 121.998 92.2857Z" fill="#C02828"/>
<path d="M6.89803 222.532C6.89643 223.698 6.16625 224.372 4.94286 224.393C4.41764 224.402 4.01412 224.239 3.63942 223.884C3.20227 223.471 3.08697 222.983 3.10299 222.406C3.13181 221.302 3.85719 220.599 5.01812 220.6C6.20147 220.602 6.90124 221.321 6.89803 222.532Z" fill="#C02828"/>
<path d="M122.775 149.622C122.222 149.705 121.836 149.452 121.462 149.107C121.013 148.691 120.936 148.187 120.951 147.619C120.976 146.531 121.723 145.84 122.896 145.845C124.062 145.848 124.73 146.579 124.754 147.809C124.762 148.332 124.589 148.732 124.238 149.107C123.824 149.543 123.332 149.694 122.775 149.622Z" fill="#C02828"/>
<path d="M37.2006 224.385C35.9805 224.38 35.3063 223.625 35.3175 222.372C35.3287 221.288 36.0845 220.597 37.2615 220.6C38.4256 220.603 39.0934 221.336 39.1174 222.564C39.1254 223.091 38.9508 223.489 38.6002 223.863C38.1854 224.301 37.6938 224.447 37.2006 224.385Z" fill="#C02828"/>
<path d="M88.9219 201.11C89.1893 200.66 89.1797 200.107 89.612 199.763C89.9931 199.458 90.4687 199.398 90.8947 199.213C91.3062 199.501 91.9179 199.448 92.1965 199.931C92.4127 200.305 92.7297 200.75 92.6801 201.12C92.616 201.572 92.4799 202.106 92.0492 202.45C91.6681 202.756 91.1925 202.815 90.765 202.999C90.355 202.713 89.7449 202.764 89.4631 202.282C89.2437 201.91 89.0964 201.494 88.9219 201.11Z" fill="#C02828"/>
<path d="M101.438 192.411C100.94 192.14 100.315 192.139 100.026 191.633C99.8127 191.259 99.7022 190.825 99.5469 190.419C99.8543 190.021 99.7839 189.395 100.28 189.125C100.661 188.917 101.113 188.599 101.476 188.661C101.962 188.746 102.567 188.877 102.857 189.384C103.068 189.76 103.18 190.194 103.334 190.6C103.026 190.997 103.095 191.62 102.602 191.892C102.221 192.103 101.806 192.249 101.438 192.411Z" fill="#C02828"/>
<path d="M47.8108 220.586C48.2672 220.84 48.8133 220.843 49.1639 221.271C49.4746 221.648 49.5242 222.128 49.718 222.552C49.4378 222.964 49.4394 223.521 49.0134 223.867C48.6563 224.156 48.1904 224.166 47.8108 224.385C47.3769 224.145 46.8309 224.143 46.4802 223.715C46.1695 223.337 46.1215 222.857 45.9277 222.435C46.208 222.021 46.1759 221.421 46.6403 221.133C47.0086 220.906 47.4281 220.76 47.8108 220.586Z" fill="#C02828"/>
<path d="M122.872 81.687C124.033 81.6886 124.56 82.2356 124.554 83.4369C124.55 84.5821 123.996 85.0988 122.779 85.094C121.692 85.0892 121.145 84.5198 121.145 83.3905C121.145 82.2308 121.697 81.6854 122.872 81.687Z" fill="#C02828"/>
<path d="M113.944 61.9813C113.949 63.1569 113.403 63.7088 112.241 63.7088C111.08 63.7088 110.534 63.1569 110.535 61.9813C110.537 60.8504 111.075 60.305 112.192 60.3018C113.397 60.297 113.943 60.8232 113.944 61.9813Z" fill="#C02828"/>
<path d="M122.845 156.632C123.766 156.631 124.562 157.432 124.554 158.353C124.549 159.273 123.742 160.049 122.807 160.039C121.934 160.028 121.153 159.24 121.145 158.363C121.137 157.43 121.92 156.632 122.845 156.632Z" fill="#C02828"/>
<path d="M113.944 179.694C113.953 180.627 113.17 181.423 112.243 181.423C111.369 181.425 110.55 180.646 110.534 179.795C110.517 178.853 111.281 178.031 112.187 178.018C113.127 178.005 113.937 178.778 113.944 179.694Z" fill="#C02828"/>
<path d="M81.5482 211.359C81.5482 211.695 81.5482 212.106 81.5482 212.524C81.2519 212.796 80.9541 213.073 80.597 213.402C80.2656 213.402 79.8252 213.402 79.364 213.402C79.0918 213.124 78.8084 212.833 78.5186 212.538C78.5186 212.108 78.5186 211.668 78.5186 211.228C78.7876 210.96 79.055 210.691 79.3448 210.401C79.7579 210.401 80.1951 210.401 80.5906 210.401C80.8837 210.694 81.1687 210.982 81.5482 211.359Z" fill="#C02828"/>
<path d="M58.5745 221.168C59.5065 221.157 60.131 221.75 60.1374 222.659C60.1438 223.527 59.5385 224.127 58.717 224.21C57.8507 224.298 57.0693 223.449 57.0933 222.753C57.1253 221.819 57.681 221.179 58.5745 221.168Z" fill="#C02828"/>
<path d="M122.859 71.2793C123.584 71.2857 124.417 72.3062 124.373 72.8245C124.321 73.4867 123.435 74.3648 122.796 74.3024C122.103 74.2352 121.381 73.4611 121.333 72.8085C121.289 72.2135 122.224 71.2425 122.859 71.2793Z" fill="#C02828"/>
<path d="M132.976 114.247C133.453 114.247 133.891 114.247 134.321 114.247C134.53 114.457 134.73 114.657 134.952 114.88C134.952 115.319 134.952 115.779 134.952 116.25C134.757 116.445 134.557 116.643 134.336 116.867C133.894 116.867 133.433 116.867 132.963 116.867C132.766 116.672 132.568 116.47 132.344 116.25C132.344 115.81 132.344 115.348 132.344 114.88C132.539 114.684 132.741 114.484 132.976 114.247Z" fill="#C02828"/>
<path d="M134.222 127.486C133.859 127.486 133.449 127.486 133.007 127.486C132.821 127.27 132.619 127.035 132.341 126.71C132.341 126.426 132.341 125.989 132.341 125.496C132.541 125.338 132.786 125.144 133.154 124.855C133.386 124.855 133.822 124.855 134.306 124.855C134.475 125.055 134.679 125.29 134.961 125.618C134.973 126.197 135.178 126.979 134.222 127.486Z" fill="#C02828"/>
<path d="M122.837 170.447C121.956 170.444 121.519 169.998 121.522 169.11C121.529 168.23 121.972 167.794 122.863 167.797C123.742 167.803 124.181 168.248 124.176 169.136C124.171 170.014 123.726 170.452 122.837 170.447Z" fill="#C02828"/>
<path d="M133.689 135.624C134.344 135.653 135.014 136.376 134.975 137.014C134.937 137.659 134.191 138.326 133.563 138.275C132.953 138.225 132.309 137.528 132.323 136.934C132.338 136.283 133.054 135.597 133.689 135.624Z" fill="#C02828"/>
<path d="M133.641 106.102C132.991 106.094 132.299 105.381 132.323 104.744C132.347 104.091 133.067 103.416 133.705 103.452C134.313 103.485 134.968 104.154 134.973 104.76C134.979 105.499 134.156 106.129 133.641 106.102Z" fill="#C02828"/>
<path d="M102.576 201.569C102.35 201.798 102.132 202.022 101.915 202.241C101.596 202.241 101.28 202.241 100.976 202.241C100.747 202.018 100.523 201.798 100.304 201.58C100.304 201.262 100.304 200.947 100.304 200.644C100.529 200.416 100.747 200.192 100.965 199.973C101.285 199.973 101.599 199.973 101.903 199.973C102.132 200.195 102.357 200.416 102.576 200.63C102.576 200.952 102.576 201.267 102.576 201.569Z" fill="#C02828"/>
<path d="M68.7583 223.817C68.5373 223.597 68.3163 223.374 68.0938 223.151C68.0938 222.839 68.0938 222.524 68.0938 222.207C68.3163 221.988 68.5389 221.769 68.7663 221.547C69.0737 221.547 69.3876 221.547 69.7046 221.547C69.9256 221.766 70.1466 221.988 70.3676 222.211C70.3676 222.523 70.3676 222.838 70.3676 223.156C70.1482 223.374 69.9256 223.596 69.703 223.817C69.3892 223.817 69.0737 223.817 68.7583 223.817Z" fill="#C02828"/>
<path d="M134.786 94.1795C134.778 94.7665 134.263 95.3119 133.649 95.3119C133.062 95.3135 132.516 94.7921 132.516 94.1763C132.514 93.5892 133.036 93.0454 133.649 93.0454C134.239 93.0438 134.777 93.5669 134.786 94.1795Z" fill="#C02828"/>
<path d="M112.241 189.373C112.805 189.379 113.372 189.872 113.375 190.51C113.377 191.073 112.877 191.638 112.237 191.641C111.675 191.646 111.109 191.145 111.105 190.507C111.101 189.944 111.603 189.384 112.241 189.373Z" fill="#C02828"/>
<mask id="mask0_31_553" style="mask-type:luminance" maskUnits="userSpaceOnUse" x="14" y="231" width="4" height="4">
<path d="M14.1777 231.763H17.0472V234.495H14.1777V231.763Z" fill="white"/>
</mask>
<g mask="url(#mask0_31_553)">
<path d="M15.6024 232.146C16.2013 232.134 16.7393 232.662 16.7505 233.267C16.7617 233.865 16.2317 234.406 15.6248 234.417C15.0259 234.425 14.4879 233.897 14.4767 233.293C14.4671 232.694 14.9955 232.154 15.6024 232.146Z" fill="#C02828"/>
</g>
<mask id="mask1_31_553" style="mask-type:luminance" maskUnits="userSpaceOnUse" x="25" y="231" width="3" height="4">
<path d="M25.2451 231.763H27.7047V234.495H25.2451V231.763Z" fill="white"/>
</mask>
<g mask="url(#mask1_31_553)">
<path d="M26.4137 234.417C25.7732 234.404 25.2736 233.844 25.2784 233.281C25.2816 232.644 25.8468 232.144 26.4105 232.147C27.051 232.15 27.549 232.716 27.5474 233.278C27.5442 233.918 26.9773 234.409 26.4137 234.417Z" fill="#C02828"/>
</g>
<path d="M90.6245 213.03C90.0897 212.836 89.7118 212.483 89.5068 211.937C89.6718 211.366 90.0241 210.953 90.679 210.776C91.2122 210.915 91.5677 211.326 91.7791 211.886C91.5869 212.462 91.2122 212.852 90.6245 213.03Z" fill="#C02828"/>
<mask id="mask2_31_553" style="mask-type:luminance" maskUnits="userSpaceOnUse" x="3" y="231" width="4" height="4">
<path d="M3.51953 231.763H6.38903V234.495H3.51953V231.763Z" fill="white"/>
</mask>
<g mask="url(#mask2_31_553)">
<path d="M5.0009 234.426C4.27071 234.015 4.27071 234.015 3.86719 233.328C4.23548 232.566 4.23548 232.566 4.98008 232.146C5.5005 232.294 5.86879 232.619 6.06735 233.12C6.10578 233.214 6.10418 233.345 6.06735 233.44C5.89441 233.918 5.52932 234.215 5.0009 234.426Z" fill="#C02828"/>
</g>
<path d="M133.641 146.58C134.225 146.812 134.597 147.173 134.786 147.715C134.631 148.318 134.206 148.662 133.649 148.873C132.925 148.477 132.925 148.477 132.514 147.81C132.858 147.037 132.858 147.037 133.641 146.58Z" fill="#C02828"/>
<mask id="mask3_31_553" style="mask-type:luminance" maskUnits="userSpaceOnUse" x="35" y="231" width="4" height="4">
<path d="M35.9033 231.763H38.3629V234.495H35.9033V231.763Z" fill="white"/>
</mask>
<g mask="url(#mask3_31_553)">
<path d="M37.2071 232.129C37.8012 232.35 38.1551 232.729 38.3488 233.263C38.1775 233.857 37.7724 234.217 37.2087 234.418C36.6755 234.217 36.2768 233.886 36.083 233.315C36.2095 232.732 36.621 232.374 37.2071 232.129Z" fill="#C02828"/>
</g>
<path d="M123.308 62.949C122.991 62.949 122.68 62.949 122.372 62.949C122.214 62.789 122.06 62.6355 121.903 62.4803C121.903 62.17 121.903 61.8565 121.903 61.5446C122.152 61.2775 122.368 60.9704 122.819 61.052C123.083 61.0983 123.336 61.036 123.578 61.2839C123.82 61.5286 123.793 61.7733 123.794 62.0437C123.796 62.4675 123.793 62.4675 123.308 62.949Z" fill="#C02828"/>
<mask id="mask4_31_553" style="mask-type:luminance" maskUnits="userSpaceOnUse" x="46" y="232" width="4" height="3">
<path d="M46.5615 232.172H49.0211V234.495H46.5615V232.172Z" fill="white"/>
</mask>
<g mask="url(#mask4_31_553)">
<path d="M48.1384 234.191C47.4787 234.428 47.2433 233.881 46.9102 233.598C46.6716 232.937 47.2193 232.702 47.5043 232.371C48.1656 232.131 48.3994 232.679 48.7325 232.963C48.9727 233.622 48.4234 233.858 48.1384 234.191Z" fill="#C02828"/>
</g>
<path d="M122.896 178.965C123.55 178.971 123.612 179.04 123.606 179.746C123.602 180.419 123.518 180.491 122.755 180.477C122.168 180.469 122.083 180.36 122.092 179.65C122.1 179.018 122.174 178.957 122.896 178.965Z" fill="#C02828"/>
<path d="M133.601 84.147C132.949 84.1422 132.887 84.0718 132.892 83.3681C132.895 82.6931 132.982 82.6195 133.744 82.6339C134.33 82.6451 134.418 82.7506 134.407 83.4608C134.399 84.0942 134.325 84.155 133.601 84.147Z" fill="#C02828"/>
<path d="M134.161 159.092C133.831 159.092 133.539 159.131 133.265 159.076C133.123 159.046 132.944 158.868 132.908 158.724C132.847 158.489 132.852 158.216 132.907 157.977C132.94 157.825 133.104 157.693 133.238 157.587C133.294 157.541 133.421 157.581 133.515 157.577C134.393 157.549 134.617 157.865 134.316 158.707C134.279 158.817 134.229 158.924 134.161 159.092Z" fill="#C02828"/>
<path d="M79.6089 223.322C79.1525 222.716 79.1541 222.427 79.5961 222.087C79.7258 221.988 79.9164 221.951 80.0861 221.931C80.4624 221.883 80.5729 222.236 80.8227 222.441C80.6177 223.006 79.9996 222.95 79.6089 223.322Z" fill="#C02828"/>
</svg>
