<svg width="48" height="48" viewBox="0 0 48 48" fill="none" xmlns="http://www.w3.org/2000/svg">
<path d="M47.976 10.9138C47.956 9.88412 47.8735 8.85662 47.7288 7.83698C47.5564 6.93002 47.2634 6.05021 46.8576 5.22098C45.9693 3.4673 44.5452 2.04236 42.792 1.15298C41.9681 0.749087 41.094 0.45691 40.1928 0.284177C39.1654 0.136535 38.1298 0.0523751 37.092 0.0321766C36.6528 0.0153766 36.084 0.00817661 35.82 0.00817661L12.1848 0.000976562C11.9208 0.000976562 11.352 0.00817654 10.9128 0.0249765C9.88313 0.0448164 8.85563 0.127369 7.836 0.272176C6.92904 0.444592 6.04924 0.737592 5.22 1.14338C3.46642 2.03186 2.04152 3.45592 1.152 5.20898C0.748216 6.03293 0.456044 6.90703 0.2832 7.80818C0.134888 8.83558 0.0499274 9.87114 0.0288002 10.909C0.0144002 11.3482 0.00480022 11.917 0.00480022 12.181L0 35.8162C0 36.0802 0.00719998 36.649 0.024 37.0882C0.0438398 38.1178 0.126393 39.1453 0.2712 40.165C0.443643 41.0719 0.736642 41.9517 1.1424 42.781C2.03088 44.5346 3.45495 45.9595 5.208 46.849C6.03198 47.2527 6.90606 47.5449 7.8072 47.7178C8.83464 47.8654 9.8702 47.9496 10.908 47.9698C11.3472 47.9866 11.916 47.9938 12.18 47.9938L35.8152 47.9986C36.0792 47.9986 36.648 47.9914 37.0872 47.9746C38.1169 47.9547 39.1444 47.8721 40.164 47.7274C41.0709 47.5548 41.9507 47.2619 42.78 46.8562C44.5345 45.9681 45.9603 44.544 46.8504 42.7906C47.2542 41.9666 47.5464 41.0925 47.7192 40.1914C47.8676 39.164 47.9525 38.1284 47.9736 37.0906C47.988 36.6514 47.9976 36.0826 47.9976 35.8186L48 12.1858C48 11.9218 47.9928 11.353 47.976 10.9138ZM24.5208 40.6978H24.5136C21.6568 40.6972 18.8456 39.981 16.3368 38.6146L7.2648 40.993L9.6936 32.1298C7.81309 28.8665 7.06169 25.074 7.55592 21.3403C8.05014 17.6066 9.76237 14.1402 12.4271 11.4786C15.0919 8.81697 18.5603 7.10887 22.2947 6.61909C26.029 6.1293 29.8206 6.88521 33.0816 8.7696C36.3426 10.654 38.8908 13.5616 40.3312 17.0416C41.7715 20.5216 42.0235 24.3796 41.0481 28.0174C40.0728 31.6552 37.9244 34.8696 34.9363 37.1622C31.9481 39.4548 28.2871 40.6976 24.5208 40.6978Z" fill="white"/>
<path d="M24.5278 9.36275C21.9864 9.36201 19.4912 10.0421 17.3017 11.3324C15.1122 12.6227 13.3084 14.476 12.0777 16.6995C10.8471 18.9231 10.2347 21.4358 10.3041 23.9762C10.3736 26.5167 11.1223 28.9921 12.4726 31.1451L12.811 31.6828L11.3734 36.9291L16.7566 35.518L17.275 35.8252C19.4664 37.123 21.9665 37.8077 24.5134 37.8076H24.5206C28.2929 37.8082 31.911 36.3102 34.5789 33.6433C37.2468 30.9763 38.746 27.3587 38.7466 23.5864C38.7472 19.814 37.2493 16.1959 34.5823 13.528C31.9153 10.8602 28.2977 9.36099 24.5254 9.36035L24.5278 9.36275ZM32.8894 29.6908C32.5748 30.2103 32.1561 30.6591 31.6596 31.0089C31.1632 31.3588 30.5997 31.6021 30.0046 31.7236C29.1061 31.8776 28.1841 31.8201 27.3118 31.5555C26.4845 31.2978 25.6714 30.9965 24.8758 30.6532C21.9231 29.1714 19.4064 26.9474 17.5726 24.1996C16.5722 22.9275 15.965 21.391 15.8254 19.7788C15.8139 19.1133 15.9411 18.4527 16.1989 17.8391C16.4568 17.2254 16.8396 16.6723 17.323 16.2147C17.4658 16.0518 17.6409 15.9201 17.837 15.828C18.0332 15.7359 18.2463 15.6854 18.463 15.6796C18.7462 15.6796 19.0318 15.6795 19.2814 15.6939C19.5454 15.7059 19.8958 15.5932 20.2414 16.4284C20.6014 17.2828 21.4558 19.3876 21.5614 19.6012C21.6292 19.7131 21.668 19.8402 21.6742 19.971C21.6805 20.1017 21.6541 20.232 21.5974 20.35C21.4897 20.6067 21.3459 20.8467 21.1702 21.0628C20.9542 21.3124 20.7214 21.6196 20.5294 21.8116C20.3134 22.0252 20.0926 22.2556 20.3398 22.6828C20.9818 23.7821 21.7834 24.7801 22.7182 25.6444C23.7325 26.5461 24.8963 27.2641 26.1574 27.766C26.5846 27.982 26.8342 27.9436 27.0838 27.658C27.3334 27.3724 28.1518 26.41 28.4374 25.9827C28.723 25.5556 29.0062 25.6276 29.3974 25.7692C29.7886 25.9108 31.8934 26.9452 32.3206 27.1612C32.7478 27.3772 33.0334 27.4804 33.139 27.658C33.256 28.3454 33.1693 29.0521 32.8894 29.6908Z" fill="white"/>
</svg>
